/* XPM */
static char *_4db0c8dc1cc4ecbce4ba8518eb40bbePeqvHTqbEp8rGusD[] = {
/* columns rows colors chars-per-pixel */
"40 40 251 2 ",
"   c #070808",
".  c #0B0B0A",
"X  c #160707",
"o  c #0C120E",
"O  c #19100C",
"+  c #090B13",
"@  c #160B12",
"#  c #0C1717",
"$  c #151913",
"%  c #2A1411",
"&  c #261A15",
"*  c #19241A",
"=  c #17281C",
"-  c #1D321F",
";  c #2B221A",
":  c #3A2618",
">  c #0C1D27",
",  c #251D21",
"<  c #0C2122",
"1  c #0B2428",
"2  c #162827",
"3  c #0E302F",
"4  c #1A342A",
"5  c #192C31",
"6  c #183635",
"7  c #292625",
"8  c #312A24",
"9  c #273929",
"0  c #3B3529",
"q  c #263B36",
"w  c #3B3C36",
"e  c #430C11",
"r  c #481717",
"t  c #69151D",
"y  c #442A18",
"u  c #5A251E",
"i  c #451D22",
"p  c #532724",
"a  c #483625",
"s  c #523B25",
"d  c #443D36",
"f  c #653827",
"g  c #6E342E",
"h  c #1E423B",
"j  c #2F4727",
"k  c #28463A",
"l  c #324C33",
"z  c #3A4B3A",
"x  c #3A593A",
"c  c #356D3D",
"v  c #2F733E",
"b  c #32733D",
"n  c #534E2F",
"m  c #4C463A",
"M  c #584736",
"N  c #445D39",
"B  c #784D33",
"V  c #67533B",
"C  c #4D6A3E",
"Z  c #536D3B",
"A  c #75683D",
"S  c #64743D",
"D  c #163C46",
"F  c #253F40",
"G  c #1E4C4A",
"H  c #194652",
"J  c #244343",
"K  c #254847",
"L  c #295648",
"P  c #375B45",
"I  c #285150",
"U  c #2B6E43",
"Y  c #296C47",
"T  c #396646",
"R  c #336F42",
"E  c #257044",
"W  c #2D7244",
"Q  c #2D7249",
"!  c #347244",
"~  c #3B7443",
"^  c #33754A",
"/  c #3A7449",
"(  c #38794A",
")  c #2F6855",
"_  c #347558",
"`  c #366266",
"'  c #564B45",
"]  c #435B43",
"[  c #5B5448",
"{  c #744C44",
"}  c #675849",
"|  c #765C48",
" . c #765C52",
".. c #466545",
"X. c #546D43",
"o. c #437544",
"O. c #477747",
"+. c #437A4A",
"@. c #4B7C4C",
"#. c #5D7C45",
"$. c #587748",
"%. c #426B54",
"&. c #477D54",
"*. c #547B54",
"=. c #6C6546",
"-. c #657A47",
";. c #727C48",
":. c #766D50",
">. c #766856",
",. c #7A6F66",
"<. c #821D20",
"1. c #892F30",
"2. c #8B6838",
"3. c #AD6D39",
"4. c #B87837",
"5. c #C2762B",
"6. c #C57B36",
"7. c #9E5E54",
"8. c #8A6B4F",
"9. c #85774B",
"0. c #8A7855",
"q. c #987A5C",
"w. c #B97B42",
"e. c #AA6655",
"r. c #8A7B68",
"t. c #947C64",
"y. c #4C824D",
"u. c #53824C",
"i. c #5B8648",
"p. c #5F9147",
"a. c #4C8259",
"s. c #538353",
"d. c #5A855C",
"f. c #588858",
"g. c #65844B",
"h. c #6C854C",
"j. c #678949",
"k. c #6D8A4D",
"l. c #72844D",
"z. c #738A4B",
"x. c #78884B",
"c. c #759148",
"v. c #618554",
"b. c #6A8551",
"n. c #638A53",
"m. c #6D8B52",
"M. c #638B5C",
"N. c #698D5D",
"B. c #748B53",
"V. c #788C55",
"C. c #679159",
"Z. c #6C925D",
"A. c #769759",
"S. c #4F8262",
"D. c #558461",
"F. c #6D9167",
"G. c #6E9267",
"H. c #739763",
"J. c #B28839",
"K. c #CE8B2F",
"L. c #CE8A33",
"P. c #C98739",
"I. c #D18B34",
"U. c #D48838",
"Y. c #D38D3B",
"T. c #D5933C",
"R. c #D7983E",
"E. c #888B4F",
"W. c #968948",
"Q. c #A78A48",
"!. c #B98745",
"~. c #B9964A",
"^. c #AC8A5E",
"/. c #A89959",
"(. c #B79558",
"). c #93846C",
"_. c #90966F",
"`. c #988A77",
"'. c #B69369",
"]. c #A89578",
"[. c #8DA370",
"{. c #8BA27D",
"}. c #9CAC76",
"|. c #99A87A",
" X c #ADAF6D",
".X c #A5AA75",
"XX c #C78D46",
"oX c #CC8C42",
"OX c #C79549",
"+X c #D49343",
"@X c #D99641",
"#X c #DC9B44",
"$X c #D79D4A",
"%X c #CD9453",
"&X c #E19B44",
"*X c #DEA146",
"=X c #DEA44C",
"-X c #DAA253",
";X c #E2A245",
":X c #E2A34B",
">X c #E4AB4D",
",X c #E2A553",
"<X c #E4A953",
"1X c #E8AD57",
"2X c #EBB051",
"3X c #E7B55B",
"4X c #DCB371",
"5X c #EAB966",
"6X c #F0BC65",
"7X c #E8BD78",
"8X c #EBC277",
"9X c #EEC972",
"0X c #F2C678",
"qX c #989385",
"wX c #A69884",
"eX c #99A884",
"rX c #99B287",
"tX c #B8A784",
"yX c #B0B18D",
"uX c #AAB89A",
"iX c #C5B28A",
"pX c #CDAF90",
"aX c #CAB696",
"sX c #E5BC98",
"dX c #BAC493",
"fX c #BAC4A6",
"gX c #D9C590",
"hX c #EFCC85",
"jX c #F3CC89",
"kX c #EED182",
"lX c #F5D488",
"zX c #E5C697",
"xX c #F6D798",
"cX c #F7E39D",
"vX c #D6CAA7",
"bX c #CBD2AB",
"nX c #F9DCA4",
"mX c #F6DBAB",
"MX c #E7D4B1",
"NX c #F4DCB3",
"BX c #F9E6A7",
"VX c #FAE4AC",
"CX c #EDE9B9",
"ZX c #F7E8B8",
"AX c #E4DFC1",
"SX c #EAE7C6",
"DX c #F4EEC6",
"FX c #FBF3C6",
"GX c #FAF2CB",
"HX c #F4EFD0",
"JX c #F9F2D4",
/* pixels */
"U U Q Y Y Y E U U U U U U E W W W W Q W W W ^ ^ ^ ^ ^ E W E W W W W Q ^ Q ^ Q &.",
"Y d.fXuXuXuXuX/ U W U @./ ! ! ^ ! ^ ^ ! ! ! R R ^ ^ ! @.W W W ^ a.yXdXdXdXbXD.&.",
"Q {.vX}  .wXZXM.U U W }.V.! ! ! ! ! ! ! ! ! R R ! ! u./.o.v ! ^ d.zX} ' } yXeX&.",
"_ {.).' 0 m mXn.Q +.f.v./.o./ ! ! ~ ~ ~ ~ ~ ~ ! ~ c ~ m.b b ! ! d.NX[ } r.pXeXa.",
"_ {.r.>. .} xXv.! ! ! ~ ~ ~ ~ +.M.[.|.|.rXrX[.n.@.~ ! ~ b b ~ ! d.NX[ ,.>.pX|.S.",
"_ {.).yX>.} zXv.! R R ! ! @.rXbXDXDXGXGXGXGXCXDXbXeXM.b b b ! ! s.aX} m } sX|.S.",
"_ {.MXm >.0.zXv.R R ! ! H.MXGXCXiXt.r.).`.`.wXwXMXJXSX{.b c ! ! d.zXtX).].pX|.S.",
"_ eXMX; | | sXv.^ ^ / eXSXHXwX7.1.B B { { { e.e.t.r.JXCXrX~ R W d.].8 m d `._.D.",
"_ eXNX8 `.].mXv.! ! rXDXGXAX,.M % X X X X X r e 8.d JXGXZXdX/ Y f.`.w qXd pX.XD.",
"_ eXNX].t.aXNXM.Q |.ZXFXGXSX' `.aXwXqXwXtXtX'.q.| 7 JXJXVXBX.XQ f.aXqX`.).sX.Xa.",
"Q &.M.G.G.H.G.( d.CXVXZXGXGXvXq.g g f g f u e % r q.GXZXcXkX9Xh.^ n.N.G.G.G.f.f.",
"^ W U E E E Y ^ dXcXxXZXVXZXmXxXjX7X%X%X-X+Xw.3.3.%XnX0XlX3X>XOXo.W Q Q Q ^ ( a.",
"^ W Q ( U E Q Z.9X0XkXxXxXnXxXxXjX4Xa & 2.!.y B 6.XX6X3X3X>X;X&XE.! Q W y.f.( a.",
"^ ^ y.Z.^ W W  X5X9X9X9X0X0XlXq.M 8.V   & : ;   s oX;X;X#X;X;X#X~.o.! ~ A.A.( a.",
"^ ^ M.A./ W &.gXkXkX0X8X8X0XjXtX  9.^.; V ^.8.O 4.Y.;X#X*X*X:X:X$X$.! ! u.s.( a.",
"^ W W ! W ^ f.cXVXVXVXVXVXnXxXiX  V =.& m r.} O 4.T.;X=X3X<X<X:X-X-.~ ~ ! ! ^ a.",
"^ W U U ! / [.BXVXVXZXZXVXnXxXiX  =.:.& 8 ' w O !.+X*X,X<X<X<X,X-XE.~ ~ ! ! ! *.",
"! ! c b ~ ( .XVXVXVXVXVXVXnXlXiX  :.0.; a 9.} . 3.+X#X:X<X<X<X<X,XE.~ ! ~ ! ~ s.",
"~ ~ ~ ~ ~ ~ .XBXVXVXVXnXxXlX7X0 a (.%XM A Q.!.; & 4.@XR.=X<X<X<X<XW.~ ~ b.h.+.f.",
"+.+.O.o.o.o.h.8XhXhXlX0X8X0X0X4X8X5X7X:.~.=X-XXXw.Y.T.I.K.=X#XR.R.-.~ / h.V.+.f.",
"@.+.+.o.l T $.$X#X=X5X7X8X0X0X0X8X4X'.@ a 2.: B P.Y.@XR.R.$XK.L.L.*.T T O.@.@.f.",
"@.+.~ ) H 6 T W.=X<X5XhXjXjX0X0X(.8 a @ y B a . y P.*X$X$X$XK.I.J.( ) 6 T @.y.M.",
"@.+.L H H > 1 N OX;X:X>X1X3X5Xn . a 2.& ; a & y 5.I.T.T.Y.L.L.P.$.G ` 6 3 l y.M.",
"s.o.* . .   o j ~.:X;X;X;X>X2X~.8 A W.; f 5.y y L.T.T.T.I.I.L.J.k # +   . * u.Z.",
"s.s.@.X.m ..u.n.E.$X#X;X&X;X:X2Xa M V O : f O : T.@XR.Y.Y.I.J.z.@.c T 9 Z i.n.Z.",
"f.f.f.l...k x n.n./.@X#X#X#X&X<Xs 2.XXO a B @ : Y.T.Y.I.L.P.W.n.N.*.[.L x ..m.H.",
"a.L k 9 4 6 > 2 N B.~.@XR.+XT.R.XXoX+Xw.!.6.3.3.U.Y.L.L.P.J.h...P D L > 2 2 4 Z.",
"s.l * * , 2 * l #.g.B.~.@XT.T.T.T.oXY.P.P.6.6.6.P.P.L.P.W.h.g.X.9 9 = ; = * j Z.",
"f.u.u.;.d T C.b.g.h.j.m.~.+X+X+XoXoXP.P.6.6.4.6.6.P.P.Q.h.h.g.g.g.#.-.z O.p.p.A.",
"f.i.i.A.*.I x i.g.g.b.b.h.W.OX#X@XT.Y.U.6.6.6.U.P.J.W.h.h.h.h.h.j.#._.) I T p.A.",
"@.P k k 2 6 # 4 l g.k.k.k.k.x.Q.Q.OXOXoXoXXX!.Q.W.x.l.h.h.h.g.x P D J 1 3 < 4 f.",
"@.4 +   @ . + $ N h.j.X.V.k.m.B.V.V.V.x.x.x.l.h.h.h.h.h.h.k.g...2 = # @ o   - n.",
"s.s.#.-.u $.v.v.j.i.L 1 ] m.m.m.B.V.l.h.h.h.l.l.l.h.h.j = b.h.v.-.#.;.p s.u.i.A.",
"f.f.n.h.1...*.Z.O.Y / L 6 z b.h.l.h.h.h.h.h.h.l.h.k.*.%.6 h P $.b.#.E.g ..$.n.H.",
"+.k k q t 5 5 h h K h 6 2 2 4 $.h.h.h.l.l.l.l.h.-.] J k < 2 # 4 k 6 9 i 2 - 9 H.",
"O.$ o . t o $ 2 = # .   $ o * N l.l.l.x.l.l.l.l.-.4 # .   o $ 9 2 $ & r o $ 9 m.",
"i.i.i.S t S S 9 #.#.=.p #.b.g.h.l.l.x.l.l.l.;.l.l.h.g.-.t *.s.u.z S n g $.i.i.A.",
"n.j.c.z.<.n 9.n Z X.0.g Z k.z.k.g.-.-.$.O.$.-.;.x.z.h.-.1.=.$.X.0 ;.s 1.x.c.z.A.",
"i.z.X.4 7 > # 2 < 2 2 2 2 4 C h.g.#.Z $.O.O.-.l.z.N l < 5 5 2 < 6 1 < 7 4 N c.B.",
"$.T K J K I K K K K J J k J q J K k k k J J F K q J J K K J K q K K K K J k $.M."
};
