/* XPM */
static char *e40b9419959a451cf70497d7eacebf4cRjMYHY9c0RInYeJI[] = {
/* columns rows colors chars-per-pixel */
"40 40 254 2 ",
"   c #0B090B",
".  c #140B0E",
"X  c #0B1719",
"o  c #1C1415",
"O  c #261618",
"+  c #3C111B",
"@  c #0B231D",
"#  c #27241D",
"$  c #1D1E25",
"%  c #3A1E26",
"&  c #0B2A2F",
"*  c #162427",
"=  c #0C3527",
"-  c #1B3A2A",
";  c #093A38",
":  c #123934",
">  c #282725",
",  c #332A25",
"<  c #28312B",
"1  c #36322A",
"2  c #333834",
"3  c #373834",
"4  c #561722",
"5  c #66182B",
"6  c #751C2E",
"7  c #42362B",
"8  c #4E3234",
"9  c #6B2339",
"0  c #732D38",
"q  c #0D4437",
"w  c #174938",
"e  c #0C523B",
"r  c #165434",
"t  c #224F2A",
"y  c #284936",
"u  c #384338",
"i  c #275737",
"p  c #256C37",
"a  c #38743C",
"s  c #49463D",
"d  c #4C5037",
"f  c #0C3D40",
"g  c #6A3D40",
"h  c #763B42",
"j  c #184E4C",
"k  c #195B45",
"l  c #2A4A46",
"z  c #3C4744",
"x  c #395746",
"c  c #2B5A55",
"v  c #13644B",
"b  c #286746",
"n  c #346746",
"m  c #357947",
"M  c #2B7555",
"N  c #3E7D63",
"B  c #4A4741",
"V  c #534A42",
"C  c #58564B",
"Z  c #4C5A53",
"A  c #714C46",
"S  c #794849",
"D  c #645A4A",
"F  c #467649",
"G  c #4D6B51",
"H  c #576556",
"J  c #587A58",
"K  c #686249",
"L  c #7C6C4D",
"P  c #67655A",
"I  c #756759",
"U  c #56736D",
"Y  c #6A6961",
"T  c #767666",
"R  c #757369",
"E  c #871833",
"W  c #991D39",
"Q  c #8E2E3B",
"!  c #99253C",
"~  c #A53C3F",
"^  c #BD4637",
"/  c #D17526",
"(  c #E6762C",
")  c #9E1D41",
"_  c #B21B44",
"`  c #9A2847",
"'  c #8D3A45",
"]  c #AA2E4A",
"[  c #B62749",
"{  c #BB354A",
"}  c #A92D52",
"|  c #A83851",
" . c #B93B58",
".. c #CE334E",
"X. c #C63553",
"o. c #D83B62",
"O. c #914F56",
"+. c #8A5859",
"@. c #AF4F4C",
"#. c #B84559",
"$. c #AA585B",
"%. c #8B735C",
"&. c #AC6759",
"*. c #955B62",
"=. c #B44961",
"-. c #AE5869",
";. c #B95867",
":. c #956B6B",
">. c #857868",
",. c #B46268",
"<. c #B06E70",
"1. c #CB4D52",
"2. c #C94759",
"3. c #D34A54",
"4. c #D85459",
"5. c #E27457",
"6. c #C94E61",
"7. c #D64A69",
"8. c #CB5868",
"9. c #D75767",
"0. c #C85B73",
"q. c #E05469",
"w. c #D9656B",
"e. c #CC6C76",
"r. c #D76975",
"t. c #C87172",
"y. c #D87678",
"u. c #E36976",
"i. c #E3777C",
"p. c #338A3D",
"a. c #3C8849",
"s. c #398255",
"d. c #468748",
"f. c #458553",
"g. c #529154",
"h. c #6F915E",
"j. c #69A854",
"k. c #599761",
"l. c #6B8968",
"z. c #71936E",
"x. c #678572",
"c. c #798B77",
"v. c #73A36B",
"b. c #DE8628",
"n. c #E4862E",
"m. c #89866A",
"M. c #97966E",
"N. c #888975",
"B. c #978977",
"V. c #8A9176",
"C. c #97937A",
"Z. c #A78E77",
"A. c #BA8974",
"S. c #9CAA7E",
"D. c #B5A97B",
"F. c #DE8853",
"G. c #D18D7A",
"H. c #E3857C",
"J. c #F0807C",
"K. c #CCBA7D",
"L. c #DB6D81",
"P. c #D97D85",
"I. c #EC7485",
"U. c #E77E86",
"Y. c #7B9A82",
"T. c #8B938E",
"R. c #969984",
"E. c #B09188",
"W. c #96A786",
"Q. c #91B18F",
"!. c #ABA78A",
"~. c #B7AC8C",
"^. c #A4AC9A",
"/. c #AAB799",
"(. c #B7B190",
"). c #B9B49A",
"_. c #9BAEAF",
"`. c #B4B8AA",
"'. c #C98585",
"]. c #D88584",
"[. c #C59886",
"{. c #D5988E",
"}. c #DB9693",
"|. c #E98A87",
" X c #F18B88",
".X c #E6978B",
"XX c #EE938E",
"oX c #F5928F",
"OX c #E89696",
"+X c #F79B97",
"@X c #CFAA96",
"#X c #C9B997",
"$X c #E0A689",
"%X c #EAA79A",
"&X c #F4A798",
"*X c #F3B499",
"=X c #F593A5",
"-X c #D2B9A1",
";X c #ECAEA4",
":X c #F6A8A4",
">X c #E8BBA7",
",X c #F4B4A5",
"<X c #F7BAA9",
"1X c #F5BBB2",
"2X c #BDC5A4",
"3X c #BDC1B0",
"4X c #D8CB9B",
"5X c #C8C8A7",
"6X c #D6CAA7",
"7X c #DDD5AB",
"8X c #CCCAB7",
"9X c #DACCB2",
"0X c #CAD1B2",
"qX c #DAD6B6",
"wX c #E4C7A6",
"eX c #F6C3AD",
"rX c #E7D7AB",
"tX c #E7C9B6",
"yX c #F7C8B5",
"uX c #EBDCB4",
"iX c #E5D8B8",
"pX c #EBDCBB",
"aX c #F4D9B6",
"sX c #F3DCBA",
"dX c #DFE4BE",
"fX c #EEE1AF",
"gX c #E7E3BB",
"hX c #EEE3BC",
"jX c #F2E3B4",
"kX c #F3E5BB",
"lX c #F8E6BD",
"zX c #F5E8BD",
"xX c #DCCFC8",
"cX c #E9DCC3",
"vX c #E7D1CC",
"bX c #F4DCC6",
"nX c #EFE6C2",
"mX c #EAE6C8",
"MX c #F2E6C2",
"NX c #F7E6C4",
"BX c #F4EAC5",
"VX c #F9ECC4",
"CX c #F5EDCB",
"ZX c #F9EECB",
"AX c #F9F1C6",
"SX c #F7F1CD",
"DX c #FAF1CD",
"FX c #F6ECD1",
"GX c #F7F1D1",
"HX c #FAF2D3",
"JX c #F7F4D8",
"KX c #F9F4DA",
"LX c #FAF9E7",
"PX c #F8F9F0",
/* pixels */
"KXLXLXLXLXLXLXLXLXKXHXHXHXHXHXHXHXHXHXHXHXHXHXHXHXKXKXJXKXKXHXHXHXHXHXHXHXHXHXBX",
"LXFXy.y.y.|.|.i.HXHXHXHXDXCXZXZXSXDXDXDXZXCXCXCXDXGXBXGXSXGXHXGXSXtX|.].}.GXDXnX",
"PXvX0.e.6 $.i.4.DXDXSXCXuXK.uXVXVXZXZXDXZXBXBXBXBX0Xl.5XMXBXBXBX-X{.oX&X0.@XDXnX",
"PXxX<.:.9 g ,.4.ZXDXZXzXD.K.jXzXVXVXpX].e.%XlXVXVX2Xs.v.hXMXhXm.G.eX<X&Xu.9 cXMX",
"PXxX-.<.9 :.,.3.ZXDXVXVXkXMXkXlXNXsX.X:X,XP.OXNXBXVXVXMXkXhXfX3 %.A. X X9.5 cXnX",
"PXxX=.;.' ,.e.3.ZXDXZXBXVXVXkXsXlXt.1XeXeX<Xr.;XaXbXBXMX).5XuX3 l P 9...! +.nXMX",
"LXvX0.t.O.&.OX3.ZXDXBXZXZXNX%XL.r.} {.;X;X&X2.7.I.U.tXBXN Q.jX>.X o ! E +.iXZXMX",
"LXvXe.A 8 A [.3.VXZXCXCXBXaXOX+X<X0.#.H.%Xu.6.&X,X&Xy.iXQ.P 9X1 Y C P !.pXBXZXMX",
"LXbXe.A :.+.[.1.ZXZXBXCXVX;.:X<XyXOX#.G.$X1.H.&XeX<X9.G.gX7 1 ).CXBXMXlXMXVXCXMX",
"KXbX6.e.i.9.u.2.VXtX@XtXVX;.=X<X,X;Xy.b./ / <X|.yX*Xq.[.gX7 C.gXqX).#XiXMXVXCXnX",
"KXGXyXyXyXyXeX>XMX].;.O.).tX-.XX].y.8.n.( ^ 0.L.,Xu. .mXN.C 8XR.&.,.$.*.sXBXZXnX",
"SXHXDXDXHXGXCXBX'.e.%X4.@.!.;X} 0.|.0. .8.=.L.L.} =.tXcX2 /.c.K &X&X+X} *.BXDXnX",
"CXDXDXHXHXHXGXmX-.XX|.3.~ s @Xw.1XyXyXr.;.bXyX<X7.<.BXR.Y 3Xr J %X&XoXo.6 9XZXnX",
"CXSXmXc.c.x.U `.E.#.4.~ , = P 8.%XyX<Xy.| yX1X:X7.*.cXC 2X^.q e +.7.7.[ h mXDXnX",
"CX0XN g.k.j.m w N.A 7 2 & ; N.[.6.w.J.u.....X.X.0 #XN.K > # < = 1 [ _ Q tXDXDXnX",
"FXCXT.c v M M M k !.H z z $ iXjX~.$.......! S T qX5X# 1 C.kX9X8 V T >.9XSXGXDXnX",
"SXHXSX).Z X @ r b J U x.W.d D sXaXrXB.8 % >.9XhXiXB C 9XVXaXU.r.9.tXZXVXZXZXDXnX",
"DXDXDXqXz.d.a.r n b * : n h.7 Z.rXv.5X^.Z H 6XhXN.> 9XVXtXP.eX<X|.;.iXBXBXDXDXBX",
"ZXHXdXk.k.d.e : F a.: m.u d 7 8 wX6X9XiXcXz P #X  >.iX'.O.;.yX.X+X| E.{.>XDXDXBX",
"DXSXQ.k.d.k : : g.f.e !.#XK I o I [.<.&.B.5XY , P 5XE.OX'.` ].U.XXE #.8.#.-XDXMX",
"ZXnXg.s.M j U R.F s.e !.jXaXwX8 g H.,XXX#.O.:.O 9X!.G.:X<Xy.$.H.@.&.w. Xy.#.ZXMX",
"ZX0Xn l Z R.hX7XF M i uXjXjXwXt.+XyX<X|.9. .6 >.sXI P.:X,Xy.5.n.b.F.9. XU.] bXnX",
"ZX5XR.7XVXzXkXkXV.r C.kXjXuXO.XX+XaX X X&X2.] 6 iXB.$.XX.Xw.3.( ( 5.w.H.y.` bXMX",
"GXGXZXBXVXzXkXkXuXW.uXaXuX>.'.:XXX%XoXr.w.8.{ W %.5Xh | ] #.8.{ 2. .] | ` <.BXMX",
"DXHXDXZXlXsXuXkXkXjXjXjXrX8 ;X,X&X<X9.9. Xw.[ ! 3 uXqXh .X*X*X6.[ r.w.;.W wXDXnX",
"SXDXZXsX0.;.` O.6XlXkXjXrX1 y.}.bX&Xi.&X*XH.{ 6 B kXkX@Xw.&X&Xw._ 2.w.6.t.AXDXMX",
"ZXHXpX}.OXOX7.X.0 ).kXjXjXC A %XU.+X:XXX9.{ Q O ~.kX6XA.S 2.u.6.) [ [ e.aXAXDXMX",
"SXDX<.OXyX,X|.@.1 > uXkXkX!.u L $.8.i.2.! ! % Y uX#XG.%X<.9 0 ' wX>X@XaXVXAXDXBX",
"GXHXE.8.oXI.r.D w X 5XjXkXkXH u 2 5 6 5 + . < (.!.Z.<XeX|.W ).DXAXVXVXVXVXDXHXBX",
"HXDXMX:._ ..` - =   B B.7XVXpX6Xs # #   # I 7X6X- %.XX|.2.E R.DXDXVXBXVXAXDXHXBX",
"HXHXZXMX{.S +   * R.B.s s B.6XuXrXB.m.o (.kXfX#X= b O.2.W 5 `.Y.x.W.qXnXBXDXDXBX",
"HXHXDXVXCXxX_.T.T.qXMXFXT , 7 ).rX~., 1 rXjXrX4Xy * O 5 4 N.Y.r r w : m W.qXDXBX",
"HXHXZXZX2Xv.f.F y G 0XSXSXqXN.1 >.6Xo 1 rX(.D.rXM.2 V D !./.j j k q q - G qXDXBX",
"DXHXDXZX!.F a d.d.p f.W.V.R.nX(., C.O # 4XM.m.BXS.F l.G x n f & X X R `.CXDXDXBX",
"DXDXDXDXW.n y d i i i p p.a.l.rXD.o   1 #X7XkX!.i m x x - m @ - a w l 2XVXZXDXMX",
"ZXDXDX/.g.g.F i t d.i : : b M l.uXT . 7 uXhX5Xi n w H 5X- g.q X - m b w /.SXDXMX",
"ZXDXmXh.d.n w * y j.a 2 R = j c 7XZ.. D hXgXM.d w J 6X6Xt d.e * - q k k x hXAXMX",
"ZXHX^.m v v j T.J j.p y qX2X< @ ~.d   T hX9XD # P 7XhXiXy s.q z /.* ; j e V.AXkX",
"DXmXH u 2 c.5XGXY a.i x mXBXBXiXqXs   D hX).C V fXkXkXMXT k & 8XGX8X^.B C G gXkX",
"HXHXmXGXGXSXDXZX5XF w 8XZXCXBXMXBXB.  , iXR 8 D zXzXVXVXqXc T.FXHXZXDXDXSXCXDXMX"
};
