/* XPM */
static char *a655505df5634d39be15da0a023eae58XEUsPaZy7ZYoW4ox[] = {
/* columns rows colors chars-per-pixel */
"40 40 252 2 ",
"   c #010101",
".  c #0A0406",
"X  c #180206",
"o  c #171717",
"O  c #29030B",
"+  c #270C15",
"@  c #18291D",
"#  c #36291E",
"$  c #263519",
"%  c #3B1E21",
"&  c #1B3828",
"*  c #292726",
"=  c #3B2C24",
"-  c #293A2B",
";  c #393528",
":  c #3A3A38",
">  c #4F0E17",
",  c #74041D",
"<  c #67131C",
"1  c #73141C",
"2  c #4C2D1E",
"3  c #561724",
"4  c #7C0825",
"5  c #671E26",
"6  c #7A1525",
"7  c #4B2A26",
"8  c #592526",
"9  c #4B332E",
"0  c #46382A",
"q  c #553A32",
"w  c #6C2428",
"e  c #7A2125",
"r  c #673936",
"t  c #753033",
"y  c #3C471F",
"u  c #1A4D2B",
"i  c #1D5738",
"p  c #2D4A26",
"a  c #39572F",
"s  c #274834",
"d  c #3A483A",
"f  c #285838",
"g  c #2D5D3C",
"h  c #375834",
"j  c #3C6F2C",
"k  c #29653B",
"l  c #36663D",
"z  c #39743C",
"x  c #474428",
"c  c #454539",
"v  c #455632",
"b  c #4A6D33",
"n  c #49693E",
"m  c #6D3A41",
"M  c #1F5B41",
"N  c #295C42",
"B  c #345543",
"V  c #296746",
"C  c #376945",
"Z  c #2B7648",
"A  c #2B7D4E",
"S  c #377749",
"D  c #306A52",
"F  c #367A55",
"G  c #4F5248",
"H  c #585245",
"J  c #7B4946",
"K  c #665648",
"L  c #496947",
"P  c #467B4B",
"I  c #53774D",
"U  c #6E6E51",
"Y  c #766657",
"T  c #676864",
"R  c #797468",
"E  c #7A776C",
"W  c #8B051C",
"Q  c #83231B",
"!  c #880A27",
"~  c #990928",
"^  c #851527",
"/  c #9A1531",
"(  c #A50527",
")  c #AB0325",
"_  c #AA0A2A",
"`  c #B90325",
"'  c #B4052A",
"]  c #BD042C",
"[  c #B40A2D",
"{  c #BC092C",
"}  c #A4192A",
"|  c #B8142D",
" . c #A90B35",
".. c #B20734",
"X. c #BC0532",
"o. c #BB0A33",
"O. c #BA1735",
"+. c #8E2C36",
"@. c #B3293A",
"#. c #C40426",
"$. c #C4042C",
"%. c #CB0629",
"&. c #CB042D",
"*. c #C40A2E",
"=. c #D2032D",
"-. c #D3082F",
";. c #C4142F",
":. c #C40632",
">. c #CC0533",
",. c #C40A33",
"<. c #CB0A32",
"1. c #CC0839",
"2. c #D30533",
"3. c #D60736",
"4. c #C61939",
"5. c #D21738",
"6. c #E20936",
"7. c #C7253D",
"8. c #BE2845",
"9. c #CE1545",
"0. c #D61E46",
"q. c #CB2B43",
"w. c #C82845",
"e. c #C62E4A",
"r. c #D7264C",
"t. c #C43147",
"y. c #CC3146",
"u. c #C5324A",
"i. c #CA334B",
"p. c #D1374B",
"a. c #CA3954",
"s. c #D33855",
"d. c #934A54",
"f. c #B65054",
"g. c #877653",
"h. c #BB5760",
"j. c #946E66",
"k. c #AD6B66",
"l. c #CB4356",
"z. c #D44456",
"x. c #D8475C",
"c. c #D44A5B",
"v. c #CB5C5D",
"b. c #E77A5B",
"n. c #D94B61",
"m. c #C95A6A",
"M. c #D85467",
"N. c #E45B6E",
"B. c #CC6A6C",
"V. c #D36668",
"C. c #D1796B",
"Z. c #CC6D78",
"A. c #DA6774",
"S. c #D26E73",
"D. c #CE7474",
"F. c #D37175",
"G. c #D97776",
"H. c #D5727B",
"J. c #D9747A",
"K. c #E4717C",
"L. c #399426",
"P. c #538F38",
"I. c #1D8D5A",
"U. c #2F8B4D",
"Y. c #3B8255",
"T. c #598749",
"R. c #478653",
"E. c #4F8F55",
"W. c #619266",
"Q. c #6AA265",
"!. c #E69735",
"~. c #E4B234",
"^. c #948B6E",
"/. c #888679",
"(. c #AD8E76",
"). c #BEA278",
"_. c #E3AA56",
"`. c #D58979",
"'. c #EC937D",
"]. c #D9AF6B",
"[. c #EEB173",
"{. c #EDB57B",
"}. c #F2CE53",
"|. c #F2C56B",
" X c #DA7C84",
".X c #E77E84",
"XX c #999687",
"oX c #979E94",
"OX c #A59985",
"+X c #B79F88",
"@X c #A8A589",
"#X c #A8AB9D",
"$X c #B7B196",
"%X c #B8B6A6",
"&X c #DB8682",
"*X c #D2928F",
"=X c #E6868D",
"-X c #E1908B",
";X c #E49998",
":X c #CEAF96",
">X c #C8BA9B",
",X c #F0B089",
"<X c #E9AA96",
"1X c #ECB898",
"2X c #F1B896",
"3X c #E89EA8",
"4X c #D6ABA7",
"5X c #CABDA7",
"6X c #E7AEA6",
"7X c #EBB7A6",
"8X c #F3BBAC",
"9X c #EEBAB4",
"0X c #95C682",
"qX c #CCC09C",
"wX c #F2C789",
"eX c #EBC59B",
"rX c #F2C799",
"tX c #F5D699",
"yX c #C8C1AE",
"uX c #D6C5A4",
"iX c #D4CAB5",
"pX c #DCD8BA",
"aX c #EAC7AC",
"sX c #F0D0A9",
"dX c #E4CCB7",
"fX c #F2C7B7",
"gX c #F3CCB4",
"hX c #E8D7BA",
"jX c #F6D9B6",
"kX c #F2D3BC",
"lX c #E5E2B9",
"zX c #F7E7BB",
"xX c #C6CAC5",
"cX c #D8D7C7",
"vX c #E8DAC5",
"bX c #F6D7C4",
"nX c #F2DCC5",
"mX c #F2D1CB",
"MX c #ECE3C3",
"NX c #EAE5C9",
"BX c #F6E8C9",
"VX c #FAECCD",
"CX c #F8F1C7",
"ZX c #FAF3CE",
"AX c #EBEBD8",
"SX c #F0EED9",
"DX c #FCF5D2",
"FX c #F8F4D7",
"GX c #FDF9D5",
"HX c #FCF9DA",
"JX c #EBEBE2",
"KX c #F8F8E9",
/* pixels */
"&Xy.y.e.e.e.e.u.e.y.y.y.y.y.y.y.y.q.q.w.t.t.t.t.t.u.i.y.t.t.u.y.y.i.i.u.u.i.y.V.",
"S.%.5.p.p.i.p.7.&.$.$.$.<.s.&.&.&.&.#.l.;XO.] ] X.,.w.:.$.$.$.$.4.p.i.u.u.7.$.x.",
"B.%.8XBXqXdXzX<X] ] ] ;.A.BXG.w.` 6 j.mXfX6Xl.] 4.V.gXv.O.] { $.G.jX>X>XzXaX4.c.",
"B.{ nXXXd H (.7X' ' ! (.zX1XzXf.0 V %XeX!.rX:X3 *XsX2XjXC.^ [ *.G.sXc K qXhXw.c.",
"B.{ kX@XH Y ^.<X' ~ 8 0X,Xb.7Xk.# u @XrX!.|.g.$ (.2Xb.'.,Xx e *.C.:X; ^.g.5Xw.z.",
"B.[ iXY H yX^.:X^ 2 y P.tX,XkXD.W < J 8XrXjX@.W D.gX,XwX).$ $ r (.$X0 R H iXO.c.",
"B.o.BXj.; ; H >Xv j y < 1X2XfXq.` ` #.p.M.A.[ ) h.6XhX<X+.$ z N (.uXG T %XBX7.c.",
"B.O.BXuX+XOX>XuXL b v 1 4.4.*.#.%.;.4.4.O.| O.| ` <.M.{ ! a z V OXdXR $XOXjX7.c.",
"S.O.<XgXkXhXjX>Xn z j 3 X.] $.q.K.fXnXnXnXnXnX:Xm.$.$.] 6 k k g XXhXhXhXhX6X5.c.",
"F.{ { t G d d = s p v  ...O.m.zXCXCXZXDXDXDXDXDXVXdXl.$.( = u & @ - L v 7 [ &.c.",
"S.] 6 V V k R.l 6 Q ^ .. .d.5XzXCXZXDXFXFXDXDXDXZXZXZXF.,.! r < L I L L h 8 #.c.",
"S.) c f b h k C ~ :.] , + + o >XZXZXDXFXFXDXDXDXZXZXZXVX&X,.] ~ a f C l a v _ c.",
"S.~ 7 ; j k f q ,.2., . .   . pXZXZXGXcX%XSXDXZXZXZXZXDXZX=X&.' % s f h 0 8 ! c.",
"H.:.o.} ; 7 e #.2.( X       K DXDXDXiX:   T pXDXZXZXDXDXDXDXD.$.) 6 = 2 ! ] $.n.",
"H.<.,.{ ) $.=.=.>.O         XXDXGXGXR     . #XZXZXZXDXDXDXDXVXq.&.] ' ) ' $.$.c.",
"H.,.,.+.U O.=.2.~           XXGXHXGX#Xo   * iXZXZXZXDXDXDXDXVX-X&.$.{ I w ) &.c.",
"H.,.Y T.T.^.s.1.X           E FXHXHXKX#X/.NXDXZXZXZXZXDXDXDXDXBXq.;.(.I.Y.L ] c.",
"H.[ C P.P.U r.1.X           . %XHXHXHXHXDXDXDXZXZXZXZXDXDXDXDXVXz.| j.I.A - o.z.",
"H.:.~ b L.e 3.4               * cXHXHXHXGXDXDXDXZXZXDXDXDXDXDXVX X&.} A h ~ >.z.",
"H.1.&.} +.1.9.!                 * %XNXHXHXGXFXDXDXDXDXDXDXDXDXDX;X&.%.} _ $.&.x.",
"H.1.0.<XaXx.0.!                     % j.#XoXcXFXFXDXDXDXDXDXDXFX;X-.s.<X&Xa.&.z.",
"Z.s.9XjXsXBXN.!                             o XXKXGXDXDXDXDXDXGX4Xn.jX7X1XfXs.z.",
"Z.M.BX|.}.jX=X!                               o #XHXGXGXGXDXDXFX4Xn.gX_.~.nXM.z.",
"Z.e.8XtXtXkXn.:.X                               * pXGXGXGXGXDXBXA.4.<X{.wX7Xw.z.",
"D.<.3XkX-XnXr.3.>                   . : :         U HXHXHXGXGXgX<.#.;X'.8X;X:.z.",
"F.<.0.r.w.x.3.3.( .                 T KXKXT       * AXHXHXGXDX&X>.&.<.<.4.4.>.z.",
"J.<.<.<.3.-.2.3.2.>                 xXKXKXyX      * AXHXHXZXaX4.>.&.$.>.:.:.:.z.",
"J.<.<.<.{ _ ' 2.2.] O               : JXAXc       G FXFXZXhXl.&.&.` ( ( [ { :.x.",
"H.o.^ 0 S R.I r <.2.( X               o o       o %XCXVXMXJ.>.$.e G l l ; 5 ~ z.",
"H.~ C U.A S E.E.5 6.2.! X                       E MXMXMXH.*.$.~ F Z Z g n n 6 x.",
"H.,.c E.Q.R.F P 7 / < >.~ X                 . /.NXlXdXm.,.6 ^ 6 Z f I I L x ' x.",
" X1.^ R.R.R.W.S & C ^ 3.3...> .         o * 5XMXBX*X8.$.>.( S @ V Q.Y.Z V w >.x.",
"J.1.o.8 D V M i S Y.n / 1.1.1.) , O X O q `.`.`.a.o.$.:.' K P l i k i f 7 ] 2.x.",
"J.1.o.q k f V S R.E.R.t =X-X<.>.>.$.] e.w...o.X.X.o. XA.+.F P P l u u s 5 ] 2.n.",
"F.>.w E.U.Z I F N F C J bXbX;Xa.>.] &XbX4Xk...o.O.*XmX8Xd.s S g l l P S R.5 >.n.",
"F.,.= A Z T.D A V Z U vXeX[.kXZ...m NXwXwX%X7 8 h.MX6X;XgXY C C l f P g f 9 *.n.",
"H._ f Z S S B s V 9 +.nX].}.eX/.v U.vX[.[.@Xu u R.dX_.[.2Xj.r g h f V Y.C B _ M.",
"H.~ g S P d 3 / - ( s.6XjXtXjXg.; 7 4XaXaXk.# y r bX,XtXrXC...8 w ^ s N D M ~ M.",
"H._ 3 1 ^ ~ $.$.' >.=.A.;X7X<X| ] $.a..XN.| ) ' $.K.bXJ.<X| ,.] ] $.) W 1 > _ M.",
"H.>.=.=.2.=.=.&.&.&.=.-.<.w.5.&.&.&.%.#.#.#.#.#.&.&.q.{ ;.*.,.$.$.$.&.&.&.&.2.n."
};
