/* XPM */
static char *_7b0f0960f5342efd5607f30f20058ecZUk5dATCmdx7BGkJ[] = {
/* columns rows colors chars-per-pixel */
"40 40 242 2 ",
"   c #050919",
".  c #0F131A",
"X  c #28271E",
"o  c #09162D",
"O  c #051434",
"+  c #0A1232",
"@  c #0B1A32",
"#  c #061839",
"$  c #2C1B27",
"%  c #351A2D",
"&  c #132131",
"*  c #15253B",
"=  c #2F2822",
"-  c #3A352C",
";  c #252A35",
":  c #562F34",
">  c #3C453E",
",  c #5B4A3D",
"<  c #774D38",
"1  c #0B1D44",
"2  c #051D48",
"3  c #042244",
"4  c #0B2244",
"5  c #0C254B",
"6  c #09294A",
"7  c #162745",
"8  c #08334E",
"9  c #19374C",
"0  c #0C2A52",
"q  c #082956",
"w  c #122D53",
"e  c #13275D",
"r  c #023556",
"t  c #0D3355",
"y  c #033956",
"u  c #0C3B55",
"i  c #02365B",
"p  c #0B365C",
"a  c #023A5B",
"s  c #0C3C5B",
"d  c #153757",
"f  c #283B49",
"g  c #373A45",
"h  c #263A55",
"j  c #033561",
"k  c #033A62",
"l  c #0A3964",
"z  c #153D65",
"x  c #543D47",
"c  c #0E435D",
"v  c #10405E",
"b  c #274859",
"n  c #354B58",
"m  c #3B535E",
"M  c #0D4363",
"N  c #0B476B",
"B  c #134463",
"V  c #184966",
"C  c #134D6B",
"Z  c #1A536D",
"A  c #0F4670",
"S  c #164A73",
"D  c #1A5574",
"F  c #274965",
"G  c #324965",
"H  c #2A5568",
"J  c #365767",
"K  c #23497A",
"L  c #28587A",
"P  c #365C74",
"I  c #2E6370",
"U  c #3C6375",
"Y  c #356778",
"T  c #3C667B",
"R  c #3B6B7C",
"E  c #5B5547",
"W  c #4B4F50",
"Q  c #635745",
"!  c #705F53",
"~  c #776A51",
"^  c #445C69",
"/  c #565F66",
"(  c #4A666D",
")  c #436575",
"_  c #4E6972",
"`  c #486A78",
"'  c #556C77",
"]  c #5A6D74",
"[  c #52737C",
"{  c #57767C",
"}  c #6B6C6E",
"|  c #66777A",
" . c #757A79",
".. c #86514D",
"X. c #806C51",
"o. c #81725A",
"O. c #957B66",
"+. c #6F837E",
"@. c #76887B",
"#. c #95886B",
"$. c #8E8875",
"%. c #A8946B",
"&. c #A79A7B",
"*. c #B09777",
"=. c #B3A37B",
"-. c #C6A47E",
";. c #2D5C82",
":. c #366986",
">. c #4A6D85",
",. c #576681",
"<. c #497486",
"1. c #527482",
"2. c #547A82",
"3. c #597887",
"4. c #667C86",
"5. c #737F80",
"6. c #3C829A",
"7. c #59818B",
"8. c #538A93",
"9. c #6A8385",
"0. c #64848C",
"q. c #698689",
"w. c #6C8489",
"e. c #798887",
"r. c #78948D",
"t. c #668993",
"y. c #728D94",
"u. c #659492",
"i. c #789496",
"p. c #7EA797",
"a. c #5699A6",
"s. c #7696A4",
"d. c #72B0AC",
"f. c #868C85",
"g. c #838B89",
"h. c #8B9388",
"j. c #979A8B",
"k. c #818F99",
"l. c #879896",
"z. c #999B95",
"x. c #A49D85",
"c. c #B09C82",
"v. c #8CA399",
"b. c #93A39D",
"n. c #99A698",
"m. c #ABA588",
"M. c #B2AA8D",
"N. c #B9AC8D",
"B. c #A9A495",
"V. c #A8A897",
"C. c #B4AD97",
"Z. c #B0B196",
"A. c #B8B69A",
"S. c #899EA4",
"D. c #88A7A4",
"F. c #98A8A5",
"G. c #84B6AD",
"H. c #99B5AA",
"J. c #8AADB3",
"K. c #8DB9B4",
"L. c #99B8B3",
"P. c #A5ABA2",
"I. c #A7B5A8",
"U. c #B4B9A7",
"Y. c #A6BAB3",
"T. c #B1BCB3",
"R. c #CDB78F",
"E. c #C8BA97",
"W. c #E0BD96",
"Q. c #C4BDA6",
"!. c #88C5B9",
"~. c #96C7B9",
"^. c #AECCB4",
"/. c #A8C6B9",
"(. c #B8C8B8",
"). c #CDC09E",
"_. c #D9C69B",
"`. c #E7CB9D",
"'. c #F3E29B",
"]. c #C7C5AA",
"[. c #D4C6A3",
"{. c #D5CAA6",
"}. c #DCCCA5",
"|. c #D4CBAB",
" X c #DACDAA",
".X c #D5D0AC",
"XX c #DCD1AD",
"oX c #C7CAB7",
"OX c #D7CFB2",
"+X c #C7D5BC",
"@X c #DCD5B3",
"#X c #D8D6BA",
"$X c #E8CEA4",
"%X c #E4D2A4",
"&X c #E3D2AC",
"*X c #EBD6AA",
"=X c #E4D6B3",
"-X c #E4DAB3",
";X c #E4DDBB",
":X c #EADDBA",
">X c #F0DFBC",
",X c #E6E2BE",
"<X c #ECE2BC",
"1X c #F5E9BF",
"2X c #A7BBC4",
"3X c #ABCAC3",
"4X c #BACAC4",
"5X c #A5D2CA",
"6X c #ABD3C8",
"7X c #B5D2C3",
"8X c #BCD2C3",
"9X c #BCD8C9",
"0X c #C2D3C4",
"qX c #C8D9C7",
"wX c #D8DCC4",
"eX c #CCD7D1",
"rX c #CCE1C9",
"tX c #D8E3CA",
"yX c #DCE4CC",
"uX c #D6E7D4",
"iX c #DBE5D3",
"pX c #DDEBD3",
"aX c #E4E4C5",
"sX c #EBE6C4",
"dX c #E3E4CA",
"fX c #E9EACA",
"gX c #F4EBC4",
"hX c #F9EDC3",
"jX c #F4EDCC",
"kX c #F8ECC8",
"lX c #F7F1CA",
"zX c #FAF2CC",
"xX c #E7E9D6",
"cX c #EBEBD4",
"vX c #F2EDD0",
"bX c #EDF1DA",
"nX c #F3F2D4",
"mX c #FAF4D3",
"MX c #F4F5DA",
"NX c #FAF9DA",
"BX c #F5F5E1",
"VX c #FBFAE3",
/* pixels */
"7.r i j k k k j a a k k k k k k j i j j i i i i j j i j i i r i i l i i r i i >.",
"3.i e.U.U.n.C.B.a a a k C a a a a a r B M a a a i a k N B a a a 4.A.U.I.I.I.B 1.",
"7.p -X#.x.- -.W.a a a :.i.a a r r a a 1.U y r r r i k L k.M r r n.N.#.E *.OXJ 2.",
"7.p  X! B.= %.R.y a a H t.V r r r a a a y r r r r r B y.F r r r n.=.Q - , M.J 2.",
"7.p &XQ %.X #.R.y r r y s a a M B T w.4.3.4.U B s r r r r r r r n.~ #.E ~ c.J 2.",
"7.l *X_.'.~ %XE.y r r r y s t.Y.wXdXzXmXmXzXdXwXI.0.l y r r r a n._.*X=.`.`.J 2.",
"7.s *X%.X.! #.E.8 r r y H (.jXjXlXlXkXkXhXgXjXlXzXjX(.T y r r r b.c.=., R.`.J 2.",
"7.z *X&.Q E *.R.r r r Y eXmXsX<XgXgXjXgXgX<X<XsX<X<XsXdXy.s r r v.$.E - E &XJ 2.",
"0.B [.! O.! X.N.r y >.iXmX,X;X<XsX#XP.I.I.U.wX;X&X}.{.@XsXb.s r v.#.*.~ o.*XJ 2.",
"0.s XX XXX%X`.&.a Y xXmX,XOX@X;X].(.yXMXBXbX/.F.].}.).[.XX-XF.r +.$X$X$X$X_.b { ",
"0.a y r r y u s C qXfX@XOXOXE.Q.qXMXuXuX!.5XcXcXI.B.[.).{.XX;X{ r u s s u s a 2.",
"q.a a r r r r M Y.jX@X|.@XZ.(.pX6XrXqX8X7X9X8X9X^.P.Q.=X&X%X&X#XP i r r i a a 1.",
"q.a a l r r r <.mXgX;X@X@XI.xXuX^.7XqX9X/.eX3XwX!.F.U.sX:X&X%X>XJ.i r a :.r a [ ",
"9.a a L M r a 4XjX;X@X@X].i.d.qXqX/.u.u.Y.8XqX4XiXqXU.n.].&X%X=XwXB r 1.T.P a 1.",
"9.a a 0.V r H yXsX|.{.XXh.qXyX8X/.i.7 * F s.0XeX3X0XoX+Xv.XX*X&X=X[ r r U a a 2.",
"9.a a v r y 1.vX;X|.|.{.l.D.8Xi.] f d   t G S.4XpX(.Y.T.I.A.-X&X&XI.r r y y a 2.",
"9.a a y a a I.gX<X.XXX XU.F.r._ O # 5 @ @ 0 H S.eX3XD.J.v.B.}.&X&X#Xc y r a a 2.",
"9.a y r y a H.gX<X-X X[.{.A.A./ 2 O O w   t G y.J 4XH.(.P.V.[.&X&X=XH y r a a 2.",
"9.r r r r s Y.gXgX-X{.[.[. X&XA.l 5 O 5 w O 0 0 >.k.f l.(.v.M._.}.XXU u y a s 2.",
"9.r r a a s (.gX1X=X{.[.E.[.XX;XL 5 2 5 V + z o q t ; C.M.B.M.E.E. X) s s v M 2.",
"9.a a B a M u.gX<X:X X).E.E.-XaX;.2 q 0 L 2 V @ z p ; V.M.m.N.R.R.A.F V V B C 3.",
"q.N [ e.Z M Y aXgXkXgX-X{.E.:XfX;.2 l p ;.5 z o S p * B.x.M.N.N.R.$.Z J ) ) Z t.",
"y.D ` 2.R Z A ^.hXhXhXhXhXgXkXdXK 2 t z ;.0 z @ A p & j.x.m.N.N.m.^ P | | | ` i.",
"y.C C Z C Z S <.gXhXhXhXkXlXmXb.q 4 w ` 3.t l o p q o @.j.x.m.N.$.P _ ] ' ] ' l.",
"y.C C V P P D A /.hX1XhXzXzXBXd # t 4.BXVX2X<.& * 0 # g $.h.x.B.U T ' ' ) ) ` l.",
"y.C H 4.z.z.3.L ;.,XkXkXzXNX,.2 4 S.BXVXVXNXMXY.7 5 5   | h.h.( V 9.z.z.g.e.9.V.",
"l.) h.B.C.V.C.V.9.l.sXkXjXg.5 4 l.BXVXbXcXNXNXmXyX^ 4 o f e.+.J g.B.B.B.z.f.f.V.",
"h.] g.e.e.g.j.j.h._ e.dXe.4 f T.NXNXyX7XJ.pXNXmXmXU.F.g.. _ w.g.f.h.f.e.e.e.5.h.",
"l.` ) T T R T Y Y I Z 9 6 e.cXVXnXqX7XK.K.xXyXnXNXwXMXfXe.+ ` 9.| [ [ [ [ ` _ #X",
"P.` T R T Y Y Y H V b e.yXMXMXMXiXqXK.a.!.qX0XpXqXiX0Xd.9X| & J [ [ 1.<.) | oXsX",
"aX].j.n n n n ^ l.U.xXMXbX+X+XqX3XK.8.K.rXqXL.H.u.L.iXd.~.iX].E n J ) | A.gXaX;X",
"sXzXjXxXxXxXcXbXmXyXpXpX~.G.G.L.a.6.~.bXdX7XJ.:.b W qX4Xa./.+XnXyXdXdXsXfXwX/.#X",
"^.iX(.vXfXfXnXyXyX(.0X/.7.d.u.0X/.8XiX9X9XyXL.z c % } (.s.>.8.9X3XdX8X+X(.H.H.I.",
"0.0.^.qX/.K.(.~.+Xt.0.b.h J 3.(.rX^.d.~.tXyX7X9 y ; : ; b.] e { 1.Y.D.0.F.y.7.4.",
"4.a F i.7Xs.<.V t.{ z w M 7 4.F H./.p./.pX+XcX] O q : % $ ..E 6 S e 3.U H G n h.",
"| # 0 5 ) (.t.A k t A 4 8 6 3 q i.^.H.P { qXbXI.# 3 5 x % $ ..x 4 5 d F u 9 9 ] ",
"D.h 5 w w G F.F.z q i S 4 r 8 s Y.wXG.T 3 1.9XxX5.O 3 6 W : % : < g @ & / b.I.].",
" .* G 1 h m P i.4XJ 4 t s q 3 k.cXP.T.(./ 0 K 8X;Xg.# 3 6 f > ; $ E  .I.i.3.G r.",
"w.3 # H 7 O 4 7 b n.4.1 O d z.fXe.h |  .n.6 2 J A.<XoXn 4 5 9 @.A.+Xv.P v u 6 ( ",
"e.t t 5 d F * 7 w F w.j. .].<XD.w t 9 9 | n 4 8 @.:X>X,XOXoX;XOXv.2.V d t t s [ "
};
