/* XPM */
static char *_e4205602f6740e2d808a0b38ed79891Kkw3fxDU0a990giB[] = {
/* columns rows colors chars-per-pixel */
"40 40 256 2 ",
"   c #110F15",
".  c #19171A",
"X  c #2B141C",
"o  c #37171E",
"O  c #38201D",
"+  c #0A1826",
"@  c #171E28",
"#  c #0F1D33",
"$  c #2E1923",
"%  c #182629",
"&  c #0E2832",
"*  c #152836",
"=  c #1B323A",
"-  c #29282B",
";  c #352829",
":  c #31332F",
">  c #273536",
",  c #46231A",
"<  c #4D2228",
"1  c #48373A",
"2  c #673023",
"3  c #274837",
"4  c #2B4934",
"5  c #39593C",
"6  c #3C6936",
"7  c #3B653A",
"8  c #4F4E35",
"9  c #724C2F",
"0  c #47673B",
"q  c #52733C",
"w  c #737639",
"e  c #183445",
"r  c #15324C",
"t  c #273844",
"y  c #263956",
"u  c #363850",
"i  c #1F3D62",
"p  c #463849",
"a  c #7F3845",
"s  c #1B494D",
"d  c #0C4259",
"f  c #194656",
"g  c #2A434A",
"h  c #384648",
"j  c #385B48",
"k  c #274958",
"l  c #354955",
"z  c #26535B",
"x  c #34535A",
"c  c #2E6141",
"v  c #3C6843",
"b  c #397748",
"n  c #1A4B64",
"m  c #104E6C",
"M  c #1B566B",
"N  c #095D76",
"B  c #065C7C",
"V  c #0A5D7D",
"C  c #195A77",
"Z  c #2A4964",
"A  c #27576A",
"S  c #375968",
"D  c #2A4B77",
"F  c #275C74",
"G  c #365878",
"H  c #04617D",
"J  c #0C637E",
"K  c #1D6375",
"L  c #166578",
"P  c #14647B",
"I  c #1B647D",
"U  c #1D697C",
"Y  c #0F707B",
"T  c #346869",
"R  c #27667A",
"E  c #376879",
"W  c #444A45",
"Q  c #595B4C",
"!  c #485455",
"~  c #6A4F56",
"^  c #476843",
"/  c #556C44",
"(  c #487644",
")  c #577947",
"_  c #546C53",
"`  c #6C6D55",
"'  c #455A66",
"]  c #5E5C7A",
"[  c #486B79",
"{  c #526C75",
"}  c #777468",
"|  c #6E7071",
" . c #9F451F",
".. c #8F4F2A",
"X. c #A85227",
"o. c #B65C28",
"O. c #B96530",
"+. c #C9742E",
"@. c #CE6F31",
"#. c #EE7E3B",
"$. c #A9575F",
"%. c #907A4A",
"&. c #AF754C",
"*. c #8E7673",
"=. c #AB6F75",
"-. c #D24E53",
";. c #E94F51",
":. c #D26755",
">. c #E96F5E",
",. c #CB4A6D",
"<. c #EE5F78",
"1. c #D76D71",
"2. c #E66768",
"3. c #E37C76",
"4. c #F07076",
"5. c #3C884D",
"6. c #578647",
"7. c #5D8354",
"8. c #67854D",
"9. c #728E4E",
"0. c #639A5F",
"q. c #6F8F68",
"w. c #79A869",
"e. c #E48937",
"r. c #F1BB34",
"t. c #F2C124",
"y. c #85994A",
"u. c #82A44B",
"i. c #8CA954",
"p. c #9BAA58",
"a. c #A5A950",
"s. c #898679",
"d. c #938874",
"f. c #B69171",
"g. c #98AC6F",
"h. c #A8B167",
"j. c #CA9148",
"k. c #ECA150",
"l. c #CF8279",
"z. c #ED926F",
"x. c #E88878",
"c. c #F3897D",
"v. c #ECA771",
"b. c #055F82",
"n. c #0A5F82",
"m. c #195F83",
"M. c #345587",
"N. c #056484",
"B. c #0B6584",
"V. c #046887",
"C. c #0B6986",
"Z. c #0B678A",
"A. c #056A8D",
"S. c #0B6A8A",
"D. c #136583",
"F. c #176587",
"G. c #146A85",
"H. c #1D6A84",
"J. c #146B8A",
"K. c #1C6C8A",
"L. c #1A718D",
"P. c #096B92",
"I. c #186E93",
"U. c #226B84",
"Y. c #296A84",
"T. c #226D8A",
"R. c #346C84",
"E. c #257386",
"W. c #2C7285",
"Q. c #23738C",
"!. c #2C758D",
"~. c #387688",
"^. c #266F94",
"/. c #2C7692",
"(. c #297893",
"). c #337994",
"_. c #3B7D92",
"`. c #4B6E8F",
"'. c #566D88",
"]. c #467787",
"[. c #577785",
"{. c #457B91",
"}. c #666985",
"|. c #657786",
" X c #797984",
".X c #647B90",
"XX c #906F82",
"oX c #84768A",
"OX c #967985",
"+X c #B17B88",
"@X c #D86C80",
"#X c #EB6C84",
"$X c #E87986",
"%X c #348296",
"&X c #598589",
"*X c #4F8795",
"=X c #74868B",
"-X c #6B8594",
";X c #708F92",
":X c #758C94",
">X c #508FA5",
",X c #7097A4",
"<X c #74A9AE",
"1X c #8A898D",
"2X c #938C8E",
"3X c #879498",
"4X c #96979A",
"5X c #A88387",
"6X c #AE9691",
"7X c #98A892",
"8X c #B2A998",
"9X c #8F99A3",
"0X c #88ACAC",
"qX c #97A6A7",
"wX c #83A9B5",
"eX c #86B3B6",
"rX c #A9A7A4",
"tX c #B6B2AE",
"yX c #D68884",
"uX c #D19093",
"iX c #EA8788",
"pX c #EB9589",
"aX c #F49088",
"sX c #EA8A95",
"dX c #EA9898",
"fX c #F69897",
"gX c #D4A89D",
"hX c #E4A999",
"jX c #F6AE93",
"kX c #F4A599",
"lX c #E99EA6",
"zX c #F59BA1",
"xX c #D1B3AA",
"cX c #EAA9A5",
"vX c #F7A9A5",
"bX c #E9B7A7",
"nX c #F5B7A8",
"mX c #EEAEB1",
"MX c #F6B9B6",
"NX c #DBD3AE",
"BX c #D0C5B2",
"VX c #DCD8BC",
"CX c #EDC5AB",
"ZX c #F5C3AB",
"AX c #F5C9B6",
"SX c #E6D9B8",
"DX c #F3D1BE",
"FX c #B4BDC1",
"GX c #D5CAC4",
"HX c #F9CCC3",
"JX c #F7D6C4",
"KX c #F1D8C9",
"LX c #FADDCC",
"PX c #EDEAC9",
"IX c #F6E5CB",
"UX c #F8E8D5",
/* pixels */
"E.K.K.K.K.H.H.U.K.K.U.U.U.H.U.U.T.T.K.K.T.T.U.U.U.T.T.T.K.U.U.U.U.U.H.H.H.U.R ~.",
"N.U.0XwXwXwX,XB B b.n.V V B b.V N.N.b.B.B.B.V N.N.F.^.F.b.b.b.V B B D.{.W.C * x ",
"V.eX8X| Q BXUX_.b.J *XV V *XD.J J N.N.&XE J n.n./.xXKX9Xm.*XK.V B W.rXZXuXt   x ",
"A.<Xs.} } } PX~.n.H J N N P U 0.5.T D.C P P R.K.FXJXDXJX-XB B N [ 8XZXnX3.a ~ ~.",
"A.<X6Xs.*.s.PX~.J E 2XT M P s.f.w d.] C I 4XDXxXBXLXnXHX1X~.K N &XbXiXz.z.dXOX).",
"A.eXd.} } ` SXW.P 1XnX*.f M 6Xx.:.yX$.P ).KXAXnXnXdXiXvXmXUXGXR ~.bXpXv.z.fXoX).",
"A.eX6Xs.s.d.VX~.I OXsX=.W @ ~ >.:.l.~ D.K.xXAXcXsX-.e.2.AXKXUX{.B.}.1.3.2.1.] /.",
"A.eX*.NXQ } BX~.P R 5X~ h Z S 1 > h M P R.gXnXnX<.#.t.;.sXfXJXqXN.u < :.$.r N.Q.",
"A.eXSXd.} BXPX{.I P M S x k E R R K P P ,XDXvXvX4.;.:.,.KXUXSX&XZ X & A U S.C.(.",
"A.,XPXSXVXSXVX~.I Y.[ _ ^ j x S A C P P _.VXZXnXvXvXdXMX6X3X;XE $   = e n N.S.(.",
"C.S.Q.Q.L.L.T.F.I | ` _ q 9 8 8 ; s K P P &X4X:XBXHXMXLX4XY.F - + n C C =XH.B.Q.",
"B.V.V.V.V.B.M = l ` h / Q &.j.j.j...- A P P B.C.,XJXLXKX} F > + M Y.=X].I B.J E.",
"B.B.V.,XqX' & F R { Q 8 8 8 9 ..o.O.o.2 t C P B.G.:XtX} X . + m U.rXAXgXR.J J W.",
"B.I.3XBXZXf.S R.R S h - q.! 1 ..o.X.o.e.+.: x ! p 1 O   + m B.-X3XbXZXsX+XrXI T.",
"P.rXAXkXkX3.mX XR A l 3X`.M.p X. .+.@. .@.k...O o   + f P D.{.bXMXc.aX4.kXZXrX!.",
"S.qXDXz.v.aXsX XR ' 3X:X`.`.p X.o.O.o.+.@.X.&.2 & M I P P P {.xXMX>.v.c.aXvX2X).",
"S./.6Xz.z.iXOX[ E 4X=X.XD G !  .@.X.@.O...9 . f K R U U U P U {.2X>.z.3.x.5XE ~.",
"S.A. XnX$XiX[.S 4XqX-XG D D u o.o.@.....% 4 > 3 s z A K U H.H.U.'.vXiXzX*.R I ~.",
"A.A.{.bXfXuX_.' 1X3XD Z * r - ...., : 5 v ^ ( 6.9.9.0 3 z K H.H.R.xXfXdX|.U.P W.",
"A.A.V.=X5X_.m.{ 3X{ y * M F.z 8 7 7 5 7.W : ) i.p.i.9.q 6 4 A H.H.].6X=XU P P E.",
"A.L.;XG.J.K.C | =XG y & K.F.g ^ 7 6 7 9.Q ! g.a.y.y.9.) 0 0 > R U U R I W.-XB.!.",
"A.S.].G.J.J.C ' =X{ y # H.J._ 8.) 6.6.w.q.h.h.p.y.9./ 7 0 / 5 t A R U I W.[.D.!.",
"S.Z.B.Q._.K.D.g { |.Z r = C ! ` b w.u.w.w.p.p.9.) ( 7 ^ v 5 / ! k E R R.U.J.G.!.",
"S.Z.S.xXbX1XI.n ' { G i r r - %.( w.g.7Xg.g.) q 7 ( ( 3 5 ) 4 % A R 1XcX1XJ.G.!.",
"S.I.,XCXnXuX4XY.g x S Z k k i ..0 ( 7.0.8.8./ ) ( v 5 v ( 3 5 d R 1XcXfXl.OXJ.!.",
"P.,XZXc.jXpXvX&XA * y y k e # ; %.b ( 6.b 6.8.7.^ / 7.4 ) 0 * P |.dXx.pX2.4.}._.",
"P.9XZXz.c.4.3.[._.t $   e # f n 8 %.j b c i.6 ) } 4 ) ^ % = M U |.iX2.pX2.2.'._.",
"P.T.2XbXfX#Xl f k : X ; 2XtX{.D.C W 9 ` 3 8.6.> _ W % > F E.E.U C | hXpX1.=.K._.",
"S.S.A.tXdXXXS S t * y gXIXIXGX~.H.G.m ! * 4 4 = > g n R Y.Y.R R I Y.1XyX| K.J.).",
"C.S.J.%X{.I M t @ F.%XKXJXHXLXgX6X6XU.D.I C C H.I C K R x l @ @ A R R R.U.F.J.).",
"B.B.{.R M f e @ I (.>XIXAXvXAXkXpXgXR n M C m.C C k ; , ; k Z k t A M F D.G.J.).",
"B.B.m d d r + f E.FXGXzXiX3.#X$XHXHX2X. .   $ X X o < 1 x S A Z % % e n D.F.J.).",
"B.B.N.:X2Xp & P 0XLXHXMX-.r.:.dXHXLXDXE f f e k k t > x S | [ F A e R.4X XG.J./.",
"Z.J.-XCXnX,.k Y 0XLXlXlX:.k.:.sX$XMXJX&XH.~.1X[ =XE A A *.6XE F F t l.vXgX.XU.).",
"S.,XZXhXx.1.=.R ).GXUXUXiX$X@XnXIXJXtX~.K.rXvXl.c.+XE [ dXkX+XR E 6X1.iXiXkXoX(.",
"S.,XnXx.jXkXkX| B.].-X9XLXMXHXxX-X,X).F.^.gXfXx.aXiXE R  XdXXXP ;XAXiXjXx.fXoX).",
"S._.hXaXkXc.c.| N.V.Z.>XUXHXLXtXB.B.C.J.L.-XuX5Xl.l.{ H.H.U D.B.[.sXsXpXiXyX'.).",
"S.A.3XdXcX=.}.D.K.(.A.L.tXIXKX-XB.B.S.*X_.L.{.W.[.|.Y.F.H.).Q.D.B.'.uXfXiXoXG.!.",
"C.Z.B.|.|.G.C.N.L.L.V.V.I 0X,XB.V.B.C.!.Q.J.J.J.G.J.J.J.J.%X!.C.S.S.W.|.'.H.G.!.",
"B.B.N.V.V.A.V.V.V.V.V.V.V.A.A.A.V.B.S.S.S.Z.Z.Z.C.J.S.J.S.C.C.B.B.V.V.S.S.C.B.Q."
};
