/* XPM */
static char *d958099d1e864781d990ecc8f1407099yiIXi1TwtJTcAVEq[] = {
/* columns rows colors chars-per-pixel */
"40 40 249 2 ",
"   c #020202",
".  c #090605",
"X  c #070806",
"o  c #0A0806",
"O  c #06050B",
"+  c #070B0A",
"@  c #0B0B0A",
"#  c #150508",
"$  c #110E0C",
"%  c #0D120C",
"&  c #11140D",
"*  c #18190E",
"=  c #050815",
"-  c #0F1515",
";  c #141512",
":  c #1A1A13",
">  c #1A1B15",
",  c #26050C",
"<  c #320F15",
"1  c #14200E",
"2  c #0D2819",
"3  c #1A2314",
"4  c #15271A",
"5  c #1D251C",
"6  c #193719",
"7  c #26261B",
"8  c #332F1A",
"9  c #28341B",
"0  c #060B23",
"q  c #08122A",
"w  c #12182F",
"e  c #0B1738",
"r  c #282824",
"t  c #372D24",
"y  c #243522",
"u  c #2B3B25",
"i  c #363625",
"p  c #232835",
"a  c #393A36",
"s  c #4C111A",
"d  c #700C1C",
"f  c #432518",
"g  c #5E381A",
"h  c #653A1A",
"j  c #5C0E23",
"k  c #700F26",
"l  c #433C34",
"z  c #74362D",
"x  c #20411E",
"c  c #184729",
"v  c #17522E",
"b  c #1C4D31",
"n  c #28462B",
"m  c #334426",
"M  c #3C4326",
"N  c #3F4629",
"B  c #3B4A2C",
"V  c #26552B",
"C  c #335A29",
"Z  c #254A33",
"A  c #3A4A36",
"S  c #2D553A",
"D  c #395638",
"F  c #1F7036",
"G  c #296939",
"H  c #3A6636",
"J  c #75461F",
"K  c #474628",
"L  c #51412C",
"P  c #44572D",
"I  c #484539",
"U  c #5B4837",
"Y  c #4A553C",
"T  c #714C28",
"R  c #67563A",
"E  c #775738",
"W  c #486738",
"Q  c #586A35",
"!  c #487635",
"~  c #577838",
"^  c #656F38",
"/  c #0D1D42",
"(  c #101E43",
")  c #16264A",
"_  c #0D2956",
"`  c #142955",
"'  c #113055",
"]  c #2B374C",
"[  c #1B3F66",
"{  c #3B5446",
"}  c #2D6F48",
"|  c #386A47",
" . c #34794B",
".. c #2B4665",
"X. c #4B4A46",
"o. c #4C4C4C",
"O. c #5C5B4B",
"+. c #5D5B52",
"@. c #595C5A",
"#. c #645D4F",
"$. c #635E52",
"%. c #476947",
"&. c #566A47",
"*. c #44704C",
"=. c #567845",
"-. c #587859",
";. c #7D6143",
":. c #67754C",
">. c #656055",
",. c #67645B",
"<. c #717457",
"1. c #4A5765",
"2. c #545C66",
"3. c #566068",
"4. c #6D6E69",
"5. c #757467",
"6. c #797A71",
"7. c #97242C",
"8. c #D21136",
"9. c #8E562C",
"0. c #A85334",
"q. c #8B6832",
"w. c #A96A39",
"e. c #B37031",
"r. c #B22E44",
"t. c #C23643",
"y. c #A15753",
"u. c #8D6D4E",
"i. c #946F48",
"p. c #967548",
"a. c #827957",
"s. c #957653",
"d. c #A97C4E",
"f. c #B37A44",
"g. c #907B6B",
"h. c #807F79",
"j. c #D85157",
"k. c #558439",
"l. c #6A8639",
"z. c #3B884A",
"x. c #528E4D",
"c. c #668649",
"v. c #768B4A",
"b. c #68984B",
"n. c #77984B",
"m. c #6B8656",
"M. c #758358",
"N. c #689659",
"B. c #769858",
"V. c #62A54E",
"C. c #72A94D",
"Z. c #68A458",
"A. c #78A759",
"S. c #519665",
"D. c #668461",
"F. c #748769",
"G. c #759767",
"H. c #7E817B",
"J. c #7B9373",
"K. c #6AAA64",
"L. c #76AC63",
"P. c #A9863D",
"I. c #919052",
"U. c #A88C43",
"Y. c #B88846",
"T. c #A98758",
"R. c #B1945C",
"E. c #86A755",
"W. c #9BAA57",
"Q. c #89916C",
"!. c #898675",
"~. c #948E78",
"^. c #96927C",
"/. c #9A937B",
"(. c #9F987D",
"). c #AE986E",
"_. c #82A560",
"`. c #86B96A",
"'. c #8FAA78",
"]. c #AEA675",
"[. c #D2924B",
"{. c #CB9B68",
"}. c #D8A768",
"|. c #D1AF76",
" X c #E0C071",
".X c #74898B",
"XX c #848688",
"oX c #989685",
"OX c #8A9396",
"+X c #A09983",
"@X c #95AC84",
"#X c #ACB18C",
"$X c #A8A799",
"%X c #B0AC9F",
"&X c #BAB797",
"*X c #8A9CA7",
"=X c #9FA7A1",
"-X c #B3AFA0",
";X c #BABAA9",
":X c #B6BBB1",
">X c #C4AF88",
",X c #C9B68D",
"<X c #D4B386",
"1X c #D4A79D",
"2X c #C7B995",
"3X c #A9C78F",
"4X c #BAC39E",
"5X c #B8C1B4",
"6X c #C5C59B",
"7X c #D2CD95",
"8X c #D7C598",
"9X c #E0CA9F",
"0X c #C9C7A8",
"qX c #D2C6A0",
"wX c #DBD3AB",
"eX c #C8C7B8",
"rX c #D5CAB3",
"tX c #D5D5B6",
"yX c #DCDABC",
"uX c #E8D6A7",
"iX c #E9D5A8",
"pX c #E8DAB4",
"aX c #DDE1BB",
"sX c #F1E1AA",
"dX c #EDE7BC",
"fX c #F5E6B9",
"gX c #B5C5C1",
"hX c #C7CFC4",
"jX c #DCDCC7",
"kX c #E2DCC3",
"lX c #DAE0D0",
"zX c #EBE5C2",
"xX c #EAE7C9",
"cX c #EBE5CB",
"vX c #F0E5C4",
"bX c #F5ECC4",
"nX c #FAEDC4",
"mX c #F5EDCC",
"MX c #FAEECA",
"NX c #F7F1CB",
"BX c #FAF2CD",
"VX c #EAE9D5",
"CX c #F4EDD3",
"ZX c #F4EED9",
"AX c #F5F2D4",
"SX c #FCF5D3",
"DX c #FBF8D5",
"FX c #F7F6DC",
"GX c #FAF4DA",
/* pixels */
">.                                                                            !.",
"$.  #.Q.a.a.I.U             *         i @                       T i.u.s.s.U   !.",
"$.o ,X].R R |.).          o L         R t       8 $   @ I     o Y.f.T 9.0.Y.o !.",
">.o ).U s.U ;.R.    l t                               L p.7     Y.f h h g f.. !.",
">.o ).u.T.E p.).    l t           a X.X.I I r           7   7 o Y.J 9.9.J f.. !.",
">.X |.T.{.u.d.R.            r !.h.0XBXBXmXmXrX$X5.7         t o Y.e.e.e.0.Y.. !.",
">.o <Xg.T.E  XR.        $ !.yXNXBXBXBXBXBXMXBXBXmXyX5.;         U.L q.T E e.. !.",
"$.o <X<.;.L }.R.      r ;XSXSXBXBXBXBXBXBXBXBXzXbXbXbX&Xi       Y.w.f f 9.e.. !.",
">.o <XT.u.E {.R.    a yXGXAXSXSXBXBXBXbXnXMXMX&X'.dXfXbX0Xo.    Y.E w.e.9.w.o ~.",
">.  u.}.}.}.}.;.  a cXCX2X,XpXSXSXBXBXdX@XtXMXyXK.(.sXfXbXkXX.  E [.[.[.[.w.. ~.",
">.              r eXCX8X>X,X2XzXSXBXBXnX4XD.0XbX3Xm.].sXsXbXrX>               ~.",
"$.    *     ; @ $XAXvX,X,X2X2XzXSXDXBXBXBXaX5.wXpX#XM.7XuXbXMX/.o     . t     ~.",
"$.  i ).*     +.AXDXmX8X,X8XpXAXSXmXSXSXBX3XS.z.S.J.F.Q.sXsXfXzXX.    t T.>   ~.",
"$.    t     ; yXBXSXBXvXpXbXyXtXg.: l rXBXtX^.Q.J.D.m.m.fX3X`.vX^.    o 7     ~.",
"$.          5.cXSXDXSXSXDX;Xa o.] 2.eXAXBXBXBXBXBXzX'.V 6X`.K.bXdX>           /.",
"$.7 =.      4.DXSXSXDXDXrXr.OXhX*X2.CXSXBXBXBXBXBXBXbXoXA c.`.MXnXI     P P   (.",
"+.o m.3   > F.'.mXSXCX1X8.8.s - q [ h.SXBXSXBXdX@XJ.D.'.<.n G.9X].N   * A.9   /.",
"+.  =.P   > A.F cX2Xy.7.t.j.d.a q / @.DXSXNX4Xx.} D.-.*.%.%.S c.k.C & B Z.-   /.",
"+.  W !   X Z.G ZXmXcXcXAXDXAX1.e w $XDXSXtXm.@XtXMXpXpXpXdX&XD b.C o D x.    /.",
"+.  c.n.m   N.G SXSXSXSXSXDX$X_ = 4.ZXDXSXSXSXBXBXbX9XiXiXpXfX4XC.W @ Q.G.;   (.",
"+.  M k.2   N.G cXdXSXSXSX;X[ e a cXDXSXBXSXSXSXBXbXiX9X8X8XiX6XV.C   ~ G %   (.",
"$.  M A.2 m L. .*.#XSXSXAX1.' = ,.5X;X;X;XeXSXSXSXSXbX8X8X8X2XB.b.H   c.z.+   (.",
"+.  M A.4 % x.A MXBXSXSX;X' _ p 6.6.6.6.XX3.$XAXBXSXbX8X8XuXfX7Xx.c   v.z.+   /.",
"$.  M Z.2 @ N.D DXBXBXSX-X.X.XhXBXSXSXAXcXeX6.4.cXBXBXbXnXnXnXdXL.v   v.x.+   /.",
"$.  i Z.2 % V.| mXBXMXBX%X$XGXVXcXDXGXGXZXcXcXOX@.kXBXBXBXMXMX0XA.b   v.x.+   /.",
"$.o K Z.2 % V.V 5.NXBXBX;XH.FX:X:XFXGXGXFXZXjX5X.X] jXSXBXBXzXY C.b @ E.x.%   /.",
">.; :.B.A % V.c $ oXMXMXSXXXjXjX2.hXgX5XlX5X=XOX] w p tXBXNX,.3 C.b & n.=.i   ^.",
">.  B K.4 7 `.H   $ ~.mXSXVX4.cXOX) [ ....] ) e q 0 ( ] $X6.  i E.S   b.} +   /.",
"$.  N L.4 & A.v   * o ^.AXGX:XH.cX.Xq 0 = = = = 0 e ) ` ` O   * L.n   n. .@   ^.",
">.  K L.4 & _.v   K o   >.yXFX$XoXyX%X@.q q q q ( e ( ` _ ( O 3 `.Z @ n. .o   ^.",
">.  N A.4 % A.v     X X   a !.jX-X!.tXwX%X6.o.{ e / ) ) e ) e 7 `.b   n. .X   /.",
">.  M Z.2 & A.V   % M K       & !.4.eX0XoXwX8XqX^.p ` e ) q ) A G.{   v. .X   +X",
">.; :.B.u * n.V   & 5 Q             oX5Xo ~.g.: r > w 0 / = e 5 L.c % E.=.9   +X",
">.  B b.6 ; N.b 3 m -       * 8     < z   , d           O   O 3 K.b o c.! *   (.",
",.  m V.x ; N.c X y u % 9 m Q 3     < j   , s   & B @ o 3 X   * L.Z o b.! o   /.",
",.  u Z.6 ; N.c & 5 = 3 ~ l.Q 1 o   k ,   k <   5 N.n 5 5 y Q * L.b   c.H     ~.",
",.  u A.6 ; B.Z ^ *.| 6 n ~ W P 9 # k . . d # m x.c.D y A &.:.u _.G o ~ C     ~.",
",.% Q b.6 * A.Z O.| } S H =.W u 7 < j     7.$ y u W *.Z S *.%.A B.V   W H N & ^.",
",.X N Q &.y A.D %.-.F.-.Y =.I.I.z 7.z q.T 0.^ ~ n.c.&.=.c.M.a.Y B.S n W y K % oX",
"5.r r r Y &.M.<.M.I.v.W.W.W.I.f.f.e.P.U.U.I.I.I.v.v.B.Q.m.m.m.-.-.%.A A r r r $X"
};
