/* XPM */
static char *_4fae4a082cf4bede5b74abf528ebde3pfhQdUfHDXTD9CkB[] = {
/* columns rows colors chars-per-pixel */
"40 40 251 2 ",
"   c #030203",
".  c #0A0405",
"X  c #0B050A",
"o  c #0C0B0B",
"O  c #140A0D",
"+  c #19110D",
"@  c #130A13",
"#  c #190A15",
"$  c #181316",
"%  c #1D1C1A",
"&  c #210816",
"*  c #220B1B",
"=  c #2A1214",
"-  c #271618",
";  c #361819",
":  c #282119",
">  c #36251B",
",  c #1E0923",
"<  c #2C0A23",
"1  c #2C1624",
"2  c #361828",
"3  c #3C1834",
"4  c #143624",
"5  c #2A2324",
"6  c #382527",
"7  c #373133",
"8  c #452B1A",
"9  c #553A1E",
"0  c #421A25",
"q  c #491B37",
"w  c #541B3B",
"e  c #671C2B",
"r  c #452827",
"t  c #532627",
"y  c #493627",
"u  c #563925",
"i  c #4A2637",
"p  c #56293A",
"a  c #483935",
"s  c #593638",
"d  c #702E2D",
"f  c #662937",
"g  c #66373C",
"h  c #763A3C",
"j  c #15511D",
"k  c #23431C",
"l  c #145231",
"z  c #244A29",
"x  c #15703B",
"c  c #366627",
"v  c #306734",
"b  c #704F1E",
"n  c #5D4527",
"m  c #4E4E36",
"M  c #5A4734",
"N  c #654928",
"B  c #794829",
"V  c #75552B",
"C  c #664937",
"Z  c #6F4D34",
"A  c #6A5439",
"S  c #795537",
"D  c #4C6826",
"F  c #766A35",
"G  c #531D44",
"H  c #5B2243",
"J  c #563345",
"K  c #672B47",
"L  c #732B44",
"P  c #673342",
"I  c #783845",
"U  c #793F51",
"Y  c #1C5E40",
"T  c #2C6745",
"R  c #4A4A47",
"E  c #584741",
"W  c #5A5648",
"Q  c #575656",
"!  c #674944",
"~  c #784748",
"^  c #655748",
"/  c #72594F",
"(  c #784754",
")  c #597343",
"_  c #786B52",
"`  c #7A7567",
"'  c #70706C",
"]  c #881D37",
"[  c #971D39",
"{  c #8F3037",
"}  c #8C4F33",
"|  c #895B32",
" . c #A75735",
".. c #956629",
"X. c #987825",
"o. c #88693A",
"O. c #986836",
"+. c #9A7A3A",
"@. c #AA7630",
"#. c #A77A36",
"$. c #873A45",
"%. c #B62C46",
"&. c #C6324F",
"*. c #824647",
"=. c #964748",
"-. c #875847",
";. c #94594C",
":. c #894954",
">. c #955157",
",. c #975D54",
"<. c #B05954",
"1. c #866648",
"2. c #94654A",
"3. c #8E734F",
"4. c #986856",
"5. c #987559",
"6. c #A67743",
"7. c #B8734F",
"8. c #A16455",
"9. c #A67857",
"0. c #915463",
"q. c #8A7866",
"w. c #937566",
"e. c #B47867",
"r. c #C15158",
"t. c #CA7844",
"y. c #CD5A62",
"u. c #D6736E",
"i. c #EB7375",
"p. c #3E8734",
"a. c #578938",
"s. c #92833D",
"d. c #A88A37",
"f. c #B8893B",
"g. c #D6962F",
"h. c #C68B37",
"j. c #C79238",
"k. c #D89A38",
"l. c #E09B3B",
"z. c #DBA63A",
"x. c #DDA43B",
"c. c #E2A535",
"v. c #E3A43D",
"b. c #E3AB3E",
"n. c #978650",
"m. c #A88646",
"M. c #B78A44",
"N. c #B8934B",
"B. c #B78858",
"V. c #B29551",
"C. c #998569",
"Z. c #8B8574",
"A. c #978575",
"S. c #A98B6B",
"D. c #B88764",
"F. c #B79869",
"G. c #B78B76",
"H. c #AA9474",
"J. c #B79677",
"K. c #B9A272",
"L. c #C48C46",
"P. c #CA9945",
"I. c #D99945",
"U. c #C88657",
"Y. c #C49A57",
"T. c #D89955",
"R. c #E29C58",
"E. c #C8A64A",
"W. c #D3A547",
"Q. c #DDA443",
"!. c #DEA943",
"~. c #DDA44A",
"^. c #DEAA4A",
"/. c #DFB04D",
"(. c #C8A35B",
"). c #DAA855",
"_. c #E3A543",
"`. c #E3AB43",
"'. c #E3AB4B",
"]. c #E7AA48",
"[. c #E7B249",
"{. c #E3AA54",
"}. c #E5B357",
"|. c #C38C67",
" X c #C5986B",
".X c #C78A74",
"XX c #C69A76",
"oX c #D79072",
"OX c #E79171",
"+X c #CBA469",
"@X c #D6AB6C",
"#X c #C8A677",
"$X c #D3A47B",
"%X c #D6A878",
"&X c #D6B774",
"*X c #DBB679",
"=X c #E5A965",
"-X c #E3B965",
";X c #E9B668",
":X c #E4BB6C",
">X c #EBAA75",
",X c #E3BC73",
"<X c #E6B876",
"1X c #E2C06C",
"2X c #E7C479",
"3X c #E9C67D",
"4X c #DF7B82",
"5X c #9A968A",
"6X c #AE9984",
"7X c #A8A697",
"8X c #B5AB91",
"9X c #B8B39D",
"0X c #B2B7B3",
"qX c #D79384",
"wX c #D49289",
"eX c #EC8A85",
"rX c #E89887",
"tX c #CDB28C",
"yX c #D6BA87",
"uX c #E9A787",
"iX c #E7B987",
"pX c #F1AC9A",
"aX c #EAB791",
"sX c #F2B592",
"dX c #CCBEA9",
"fX c #E8BBA3",
"gX c #EDB3AD",
"hX c #F4B9A5",
"jX c #D3C294",
"kX c #DCC797",
"lX c #E9C587",
"zX c #EBCA82",
"xX c #F4C285",
"cX c #F3D28C",
"vX c #ECC895",
"bX c #F2C699",
"nX c #ECD295",
"mX c #F3D399",
"MX c #D6CBA6",
"NX c #D5CAAD",
"BX c #DAD3B8",
"VX c #EBC7A9",
"CX c #F4C6AC",
"ZX c #F2D2AB",
"AX c #ECC9BA",
"SX c #F5C8B5",
"DX c #E8D5B2",
"FX c #F1E2B8",
"GX c #D8D5C2",
"HX c #F2D2C6",
"JX c #EEE9D3",
/* pixels */
"-X`.^.W.I.P.k.b.b.b.`.[.}.^.b.`.b.`.`.`.`.`.`.`.`.`.!.^.`.`.`.`.`.!.x.!.!.`.`.zX",
"-XW.dXNXBXNXMX@Xb.`.b.-XAXAX:X`.`.`.`.`.`.`.`.`.`.lXfXvX].].'.!.!.;XiX=X~.!.`.3X",
"-X(.9X7XR W ` @Xz.E.W.ZXwXi.sX`._._.}.vXiX{.`.`.}.SXi.hX;XxX>Xx.).hXOXrXU.T.v.2X",
":X(.` Q 7 R 5XF.z.a.p.kXfXaXZX`.c.v.ZXrXhX<X_.].-XHXrXCX].~.m.h.T.hXeX.XqX.Xv.1X",
"*X+Xq.5XR ' 5X&Xz.F 6.Y.N.9.{.k.k.v.mXOXpX>XI.~.~.+X2.%X#.o.M B | / ! M t.k.c.2X",
",X(.dXMXW ` BXyXh.N ;XvX'.h._.@.b b 3.S.D.7.} u L.L.f.P.M.M.| 6.6.|.$XaXuX'.v.2X",
",X(.jXDX^ 9XDXtX+.|.SXVX{...9 u #.+Xo.> > S J.qX8.y +.W.).].I.I.{.ZXaXu.oXuXv.2X",
",XV.jXZ.Z.8XDXtX).%XfXD.n Z j._.aXHXBXiX~.{.hXi.rX7.A M N O.I.).).%XsXrXuX>Xb.2X",
":XV.` A.H.H.C._ iXK.m u L.Q.v.'.hXeXrXhX`.'.hXgXvXT.iXoXC / VXgXfXF.n.F.N.z.`.3X",
":X'.^.).N T.R.).6XJ.tX>X;X;X].}.hXhXpXsX`.`.!.{.'._.iXR.uXVXfXy.lX!.#.P._.`.].zX",
":X'.'.;XO.N C B.w..XeXpX}.'.`.`.'.-X}.k.z.b.b.b.[.[.-X_.JX4XqX6XC.F N ).{.Q.].3X",
"1XW.iXVX;Xk.5.F.u tXSXaX'.`.b.b.z.f.X.8 | #.Q.`.[.[.`.].DXgXG.^ _ A I.iXbXL.].2X",
",XN.wXu.>XI.tXA O.{.}.[.].`.v.+.N a / w.6 6 8 ..Q.`.[.].{.^.W.n J.M T.bXy.} '.3X",
"*XY.H.$XL.U.C.u ~._.+.A M M.f.a q.6XJ. X~ ! 1 - 9 L.C M n P.`.W.A 1.+.yXXXO.'.3X",
",Xn.W *XC H.3.S '.+.1.yXjX1.6 q.lXyXyX$X~ ( ~ 2 X ^ tXXXg > Q.[.C D.m tXC.V '.3X",
",X).n $X5.C.3.V '.u r y 5.OX-.K.yXyXmX%X4.( P p h $Xe.6 + O f.[.A XXM kXE O.[.zX",
",X).N 5.*X<X#XM ~.N 6   - }  .yXmXvX+X X-.I $.I $.8.6   . - f.N.8X$XXX5.; P.[.zX",
",X).N.y 9.@XnXtX3.n t     - -.vXnXlX#X9.~ ~ I I I 2     . = o.8XFX|.2.r S `.[.zX",
",X/.f.y y Z 9.*XkXtX_ $ . > G.vXvX$X X9.~ I I I f 1 .   r 1.#XkX5.! a 6 P.'.'.zX",
",X^.'.^...8 u } 2. XiX5.D.%XbXlX$X XD.4.~ I I $.{ { f g :.$X4./ E r V ~.`.`.`.zX",
":X'.^.Q.g.j.@.9 r S 6.9.1.w.C.iX X|.+X4.*.I =.<.f 0 0 s ,.~ s 6 V L._._.`.`.`.zX",
":X^.W.+XOXaXQ.x.d.n - + X @ $ s 8.B.7.,.~ $.=.p $     X + + N j.~.~.>X=XQ.!.`.3X",
",X!.V.AXpXCX;X`.!.j.; > N - Q o g 4.;.~ h g p @ 5 % 1 O   : P.^._.aXhXrXaX_.`.3X",
":X!.%XhXi.pXlX`.`.n o.B.@XC ' R $ Z -.:.I p $ 7 ` 1 G *   . N Q._.CX4Xi.sX'.`.3X",
":X!. XpXgXCX:Xz.f.S o. X,X+XM a A XX<X@X;.I 2 1 2 p H 0 . @ + #.k.<XhXCXuXx._.3X",
":XV.x ) )._.z.k.V 9.C e.+X&X9.;.%XcXcX,X8.U L K L L w < O X , ; j.Q.W.P.j.g.v.zX",
":XE.v c d.].v.#.-.2.! P -.,.$X*XnXcXcX2XU.=.L L L f - X   @ * , .._.(.s.D j._.zX",
":X{.E.+.m.sX{.F 4.~ p 7 6 I :.aXnXnX%XD.2.=.I L i <   %   @ # < N R.#XD F _.].zX",
":X'.^.D |.rX|.Z 9.Z i 5XR i ~ lXF.B.%XyXe.I f K q   o 7X7 @ # , - T.B.k s.].].zX",
":XW.a.j 3.OXo.3.9.} i dX' r g 3.F.vXtXG.,.;.h 0 2   % GXW   @ 3 1 O.n.c D d.].zX",
":XV.c j D M.u D.-.h 3 9XdX6 - 2.oX.X.XD.4.*.*.g # o ` JXW   @ 2 3 8 F k k F ].zX",
":X`.P.f.M.V > %Xw.i 1 ` FXBXQ w.e.-.^ / ! r f P 1 0XJXNX%   @ 3 3 + 6.@.h.z.].zX",
"-X`.!.Q.f.o.> @XXXs 3 5 8XMX7X9.! A.wXoXoX7.t p I JXBXR     * q q o | k.v.v.b.zX",
"-X`.!.Q.f.S > B.#X,.1 X % Z.A.E e.h ; %.{ t %.0 L 9X7     X p H 2 # > h.v.v.b.3X",
"-X_.x.I. .6.- S B.oXJ $   o 6 a r.O O &.d   d ] # $     X * H w X = u } k.v.`.3X",
"-X!.j. .} 7.} r / u.:.r o     ; &.] %.&.%.[ %.d         & w w < . } ..B } l.`.3X",
":XQ.o.1._ S B > ! 0.<.>.2 X     ; ] [ [ ] [ e .     X * w q 2 * . B V O.u O.`.zX",
":X^.O.T v v | $ 3 J =.>.U 2       . .     .       . * w q 2 X X O y l z m #.[.zX",
",X[.m.T Y x s.r 1 H t :.>.q 2                   X & q H 2 * X # # 7 l 4 m x.[.zX",
",X}.Y.n.) m 3./ i J 6 ( :.0.U 5 : - % % % % % % 6 K K K 6 5 5 6 i a m F m.'.[.cX"
};
