/* XPM */
static char *_11d02465aea44e3f0670f0c038b21cdKp8ZjBEkrnhRwrWA[] = {
/* columns rows colors chars-per-pixel */
"40 40 256 2 ",
"   c #030203",
".  c #0A0606",
"X  c #0A0907",
"o  c #070809",
"O  c #0B0A0A",
"+  c #130C0B",
"@  c #180B0A",
"#  c #0B110E",
"$  c #13130C",
"%  c #140B10",
"&  c #1A0E11",
"*  c #071715",
"=  c #141513",
"-  c #161916",
";  c #1B1915",
":  c #1B1B19",
">  c #25130F",
",  c #281A15",
"<  c #37191A",
"1  c #0D221A",
"2  c #1A2719",
"3  c #292217",
"4  c #362718",
"5  c #263C1A",
"6  c #1B1F27",
"7  c #0A2624",
"8  c #152B2A",
"9  c #17382A",
"0  c #073836",
"q  c #183735",
"w  c #2A2928",
"e  c #392928",
"r  c #283529",
"t  c #34332D",
"y  c #36382A",
"u  c #273838",
"i  c #363531",
"p  c #393732",
"a  c #373833",
"s  c #3B3934",
"d  c #422F15",
"f  c #482C1A",
"g  c #65371B",
"h  c #691F2F",
"j  c #48252B",
"k  c #4D3826",
"l  c #593B2A",
"z  c #522C30",
"x  c #483937",
"c  c #523736",
"v  c #6B3531",
"b  c #0D4533",
"n  c #164439",
"m  c #1B593B",
"M  c #2B4929",
"N  c #374B26",
"B  c #254C36",
"V  c #22573A",
"C  c #37533B",
"Z  c #28683C",
"A  c #396338",
"S  c #6B431A",
"D  c #564228",
"F  c #4E4F33",
"G  c #44443A",
"H  c #674228",
"J  c #6A4636",
"K  c #774D30",
"L  c #675237",
"P  c #526F39",
"I  c #3A3F4F",
"U  c #543E42",
"Y  c #653E43",
"T  c #084742",
"R  c #124843",
"E  c #1A5C47",
"W  c #334C48",
"Q  c #245D49",
"!  c #1B6D4F",
"~  c #286947",
"^  c #366A47",
"/  c #2D7646",
"(  c #387A4A",
")  c #2D7153",
"_  c #474744",
"`  c #574945",
"'  c #53514A",
"]  c #455452",
"[  c #565B59",
"{  c #684646",
"}  c #764847",
"|  c #68544B",
" . c #634C52",
".. c #665954",
"X. c #775756",
"o. c #4D6B4F",
"O. c #577649",
"+. c #496857",
"@. c #6A734C",
"#. c #79675B",
"$. c #4E5B69",
"%. c #58686C",
"&. c #777467",
"*. c #79706F",
"=. c #8D3733",
"-. c #A63D24",
";. c #925332",
":. c #A35935",
">. c #896A3B",
",. c #966333",
"<. c #CA7E3B",
"1. c #865257",
"2. c #955B5A",
"3. c #B35057",
"4. c #8F774F",
"5. c #89695C",
"6. c #94645A",
"7. c #AF7055",
"8. c #AC5A66",
"9. c #B75A68",
"0. c #966764",
"q. c #897068",
"w. c #A46665",
"e. c #A8756B",
"r. c #BC776C",
"t. c #B47170",
"y. c #C3545F",
"u. c #C86D6D",
"i. c #D87978",
"p. c #EF6E71",
"a. c #6A8F3B",
"s. c #38864C",
"d. c #378652",
"f. c #438549",
"g. c #598A4E",
"h. c #509352",
"j. c #6E964C",
"k. c #678C55",
"l. c #699859",
"z. c #6DA150",
"x. c #65A45A",
"c. c #71A85A",
"v. c #76916F",
"b. c #A7833A",
"n. c #E7A513",
"m. c #F1B019",
"M. c #E6A62C",
"N. c #AF904F",
"B. c #87A954",
"V. c #93A759",
"C. c #91AC5E",
"Z. c #9BB25A",
"A. c #888678",
"S. c #948774",
"D. c #A2806B",
"F. c #A98678",
"G. c #84AC61",
"H. c #9CB365",
"J. c #C79C44",
"K. c #E98E4D",
"L. c #EBB04C",
"P. c #DC897B",
"I. c #CE9273",
"U. c #E7887E",
"Y. c #EE9678",
"T. c #EEAA73",
"R. c #EAA977",
"E. c #B76E82",
"W. c #CA7287",
"Q. c #F06890",
"!. c #668D8C",
"~. c #8E8F84",
"^. c #97988B",
"/. c #AA9A84",
"(. c #B1948B",
"). c #9BA492",
"_. c #AAA48C",
"`. c #B5A984",
"'. c #B3AA8F",
"]. c #A8A898",
"[. c #B4AD91",
"{. c #B7AC98",
"}. c #A8B09B",
"|. c #B9B397",
" X c #9FABA8",
".X c #ADACA0",
"XX c #B1B4AA",
"oX c #B6B6AC",
"OX c #C58B83",
"+X c #D68988",
"@X c #C6998A",
"#X c #D49492",
"$X c #D69992",
"%X c #E78B88",
"&X c #F28E88",
"*X c #E5988B",
"=X c #E99A97",
"-X c #F49A94",
";X c #D5AD96",
":X c #D8A79C",
">X c #C8B797",
",X c #E9A38C",
"<X c #F2B48F",
"1X c #E9A797",
"2X c #F5A99A",
"3X c #EDB79D",
"4X c #DE9DA4",
"5X c #CFB3A9",
"6X c #D6B4A3",
"7X c #ECAAAB",
"8X c #F4A8A6",
"9X c #E9B7A8",
"0X c #F2B4A4",
"qX c #F7BAA7",
"wX c #F3B4AB",
"eX c #EBBCB2",
"rX c #F6BAB4",
"tX c #B8C7B6",
"yX c #E6C399",
"uX c #C7C5AA",
"iX c #C9C8B7",
"pX c #D9C7B2",
"aX c #D4D0B2",
"sX c #D8D7B5",
"dX c #E6C6AB",
"fX c #F6C4AC",
"gX c #E5D8AE",
"hX c #F5D1AB",
"jX c #ECCAB5",
"kX c #F5CCB4",
"lX c #F8C8B6",
"zX c #E6DAB5",
"xX c #F6D3BB",
"cX c #F9D2BC",
"vX c #F4D8B8",
"bX c #EDE0BE",
"nX c #F4E3BD",
"mX c #D3CCC1",
"MX c #D7D5C6",
"NX c #E6DEC4",
"BX c #F7D9C4",
"VX c #DEE1C6",
"CX c #E9E5C9",
"ZX c #F8E8C6",
"AX c #F5ECCD",
"SX c #FAEDCB",
"DX c #F7F2CB",
"FX c #FAF3CD",
"GX c #ECECD3",
"HX c #F6EFD1",
"JX c #FBEAD6",
"KX c #F5F3D3",
"LX c #FAF3D3",
"PX c #FBF9D5",
"IX c #F8F6DB",
"UX c #FAF6DA",
/* pixels */
"s                                   = w w o           o                     o _.",
"p =     w #...o       3 L         , @XjX4X{         @ D       o ` q.x   + , o _.",
"p o   e 6XkXeX1.      O f         /.BXBX8X=X,       . ,       #.jXxX9X{ X , o _.",
"t     5.cXxXcXOXc | ` O     x .._ e.cXBX8X=X}  .U X     c ` x @XxXvXlXu.    o _.",
"t o : #.kXkXcX+X9XBXjX}   x 6XvXBXW.eX9X=XW.0XkXkXY o x 1XlX9XE.xXqX0X3.& o o _.",
"t x pX9X*X0X<X1XfXkXkX@XX F.jXnXeX7XI.L.L.dX1XxXkX=X+ (.qXlXrX#XR.<XU.*X6X5.X _.",
"x 6XcXcXY.L.n.T.qXqX0Xe.  5.9XlXrXfXM.n.K.eX1XfX0X+XO q.0XwXwX<Xm.n.Y.2XlX:Xj '.",
"G 9XkXkX3XM.M.T.=X*Xt.&   ; t.wXwXu.R.M.R.i.1X0XOX,   ; F.$X%X3XM.M.*XqXfXqXz [.",
"x $XqX3X%XT.T.Y.8X9.j       & j 8.*X2XK.1X#X9.z &       < E.7XP.<XT.U.-X*Xw., '.",
"i ; 1.%XqX2Xr.hXJXrX9..       q.wXfX0XY.2XfX2Xu.+       q.xXJXwXy.1XqX1X8.@ o [.",
"t = 6XxXZXjX(.nXbX9X7.X o $   ` OX9XjX0X1X0X+Xv . + X   S.gXvXlXu.9XvXkX8Xj o [.",
"i o X.8X0XF.c >X`.L ;   k K     z *.mXBXA.*.x     H ,   : @.>X;Xj 0.8X-X8.@ o [.",
"i   . e < +   e [ +.#   4 4     w MXHXNXHX5X3     l 4   - F t w   + e e &   o [.",
"t o o           o B M o         oXIXLXLXLXDX`.        X C y             o   o [.",
"t 2 O.r #         M M o : v.).w ^.IXLXLXLXDX|._ ^.&.= # ^ -         $ 5 P 2 o [.",
"t o N B.B.P O.X   A M t aXAXLXCXW XXIXjXLXsX_ mXKXGX].- ^ 1   2 @.@.B.B.F X X [.",
"i   3 z.l.G.H.F O k.M &.DXLXLXAXoX$.=XU.I.G A.KXLXLXCX' C o.- B.Z.C.l.f.2   X [.",
"p   O l.c.l.B.@.2 H.o.).LXLXZXvXhX..e.2.&.' lXwXLXLXIXA.l.k.2 c.c.l.g.Z o   X [.",
"p     9 x.c.g.g.9 c.^ [ GXLXLX1XU.7.q.5.L F.p.lXIXIXNX_ k.O.B x.x.g.( 8     X [.",
"s     * ^ j.z.d.n O.~ q ^.SXAXZXr.,.N.4.4.L ,XBXLXCXA.q +.o.V h.g.f.V       X [.",
"p       7 ~ z.h.R A E q u &.A.A.k >.N.l K k J #.#.` O q ) W ~ s.( V *       o [.",
"s O N g.k.A Z d.! W !.u iX{.6.t.t.e L f l e OX;X$XF., W Q B ~ m b 5 F P y o o |.",
"G C H.H.Z.j.a.P E v.KXuXAXKXIXBX5.X.e.2.t.c 5XZXZXHX_.oXiX9 m P j.B.B.Z.V.C - |.",
"] ( h.f.f.^ ~ m +.GXIXKXyXAXGX).G /.dXhXyX(.x @XZXZX9X1XkXq.9 V ~ / s.d.d.d.^ |.",
"s * E ( / ~ ! ! +.IXIXPXzXuXXX[ .X.X*.pXdX5X . .xXwX%X&X1XI.q E Q E ~ ~ ! 1 O |.",
"p   1 ( / / Q n u MXPXLXDX_.]  XHXHXaXU ;X1X+XY 0.%X&X-XY.r.q R E ! ~ E 8   o |.",
"i     * b o.iXiX.Xi uX-X-X...XHXKXHXNX*.0.*X1Xi.e i.p.p.u.c S./...n n # = . o |.",
"i       w CXIXLXKX5Xz 6.6.G 9X2XAXLXSX^.6.,X1X&Xj v =.=.} aXSXZXdXp X   X   o |.",
"i       ' CXLXLXZXp.3.:.<.-.i.p.LXLXLX&.0.2X=X9.J b.K h P.,XSXSXZX/.O       o |.",
"p       A.LXPXFXkXp.3.7.<.;.5.P.IXDX}.- z 2.2.f k J.N.K p.U.ZXSXZXD.X       X [.",
"s       w NXPXPXZX:Xv ;.;.K 8 W $.[ 6 > 3.u.u.} 4 N.b.J U.0XZXSXvX|   k l o X [.",
"s         ' CXPXVX_ | =.g e |.zXzXsX'.v &XwXlX*Xv L l h c (.kXqXw.+   3 D   o [.",
"i   , d     G ' a ^.CXQ.5XI aXZXSXAXzX{ qXBXBXlXc w.3.%Xu.} c j o           X [.",
"p   $ D 3 ,   = oXIXLXrXJX%.].FXLXSXbXe.qXvXvXjXY jX:XfXhXqXv     H X + >   X '.",
"s     4 ; @   : MXPXPXFXFXtX$.AXLXDXoXe 1XvXdXOXX.nXFXFXDXZX2.    $ > ;.g   X '.",
"s   X ,.g d   = iXPXPXLXPXCXw &.uX}.6 * c F.0.,  .vXFXFXLXAX{   + 4 J ;.> . X '.",
"s o g ,.S d     w iXaXPXGX~.=   o 0 T T b 0 *   % (.vXFX>X~.&   O d >.;.:.< X '.",
"s     K >   l     # [ A._ O     # 7 7 T 0 0 *     + { #.p o   . k   > v @   X '.",
"p     X     ,                         7 7                     o ,     .     X [.",
"_ : : : : ; : ; : : ; : : : : : : : : : : : ; : ; ; = = = : : : : : : ; ; ; : |."
};
