/* XPM */
static char *d721918cdd974e6df56003c88e9b8fa7HwZUZa0Jg9YzXkXf[] = {
/* columns rows colors chars-per-pixel */
"64 64 234 2 ",
"   c #080618",
".  c #0C0A1C",
"X  c #140D1C",
"o  c #190E1D",
"O  c #15121F",
"+  c #1C131E",
"@  c #24171E",
"#  c #0E0D21",
"$  c #150E21",
"%  c #151323",
"&  c #1A1524",
"*  c #1A1827",
"=  c #1B1A2A",
"-  c #191C33",
";  c #241725",
":  c #2A1624",
">  c #231C24",
",  c #2D1A25",
"<  c #2D1C2A",
"1  c #331B24",
"2  c #341B26",
"3  c #3A1E24",
"4  c #1E2334",
"5  c #26212A",
"6  c #2B232B",
"7  c #3C2126",
"8  c #37232B",
"9  c #3D232B",
"0  c #2B2A38",
"q  c #392A36",
"w  c #38323C",
"e  c #422526",
"r  c #42252B",
"t  c #47282B",
"y  c #4B2A2C",
"u  c #542A2E",
"i  c #53332E",
"p  c #442C35",
"a  c #4C2D31",
"s  c #542C32",
"d  c #5B2C31",
"f  c #483337",
"g  c #45313A",
"h  c #4B353A",
"j  c #4B3A3C",
"k  c #553235",
"l  c #5B3435",
"z  c #57383A",
"x  c #6C352F",
"c  c #683936",
"v  c #743E36",
"b  c #4E413D",
"n  c #54433D",
"m  c #64453D",
"M  c #78443B",
"N  c #2C2F45",
"B  c #373644",
"V  c #3C3C4B",
"C  c #4C3C44",
"Z  c #463A48",
"A  c #543D43",
"S  c #3D414C",
"D  c #4B444B",
"F  c #534442",
"G  c #584749",
"H  c #5B454A",
"J  c #55494D",
"K  c #58504A",
"L  c #444452",
"P  c #494A56",
"I  c #4C4B54",
"U  c #534B53",
"Y  c #564C56",
"T  c #585558",
"R  c #5B545C",
"E  c #664744",
"W  c #634C4C",
"Q  c #7A4947",
"!  c #685148",
"~  c #6C544B",
"^  c #73574D",
"/  c #634E51",
"(  c #645253",
")  c #6B5454",
"_  c #665859",
"`  c #6C5B5B",
"'  c #735A57",
"]  c #77635C",
"[  c #505062",
"{  c #595B66",
"}  c #665C63",
"|  c #785F60",
" . c #5E6270",
".. c #636264",
"X. c #6A6369",
"o. c #746363",
"O. c #776664",
"+. c #7B6C65",
"@. c #746B6C",
"#. c #7B6D6C",
"$. c #676874",
"%. c #766D72",
"&. c #787271",
"*. c #797579",
"=. c #854B3C",
"-. c #86503E",
";. c #834E43",
":. c #8A5646",
">. c #955B46",
",. c #895B54",
"<. c #935E55",
"1. c #9D664C",
"2. c #88645A",
"3. c #996958",
"4. c #9C715C",
"5. c #A46B51",
"6. c #A2765B",
"7. c #836C66",
"8. c #986C61",
"9. c #87736A",
"0. c #99766A",
"q. c #837573",
"w. c #887975",
"e. c #847C7D",
"r. c #8B7D7A",
"t. c #927D77",
"y. c #A67666",
"u. c #A27468",
"i. c #8E827E",
"p. c #9A867B",
"a. c #B38567",
"s. c #A98878",
"d. c #677586",
"f. c #7D7D83",
"g. c #787C87",
"h. c #847E84",
"j. c #768691",
"k. c #7A8795",
"l. c #7B8B9B",
"z. c #7D91A2",
"x. c #848384",
"c. c #8C8483",
"v. c #84858B",
"b. c #8A888A",
"n. c #8B8B8C",
"m. c #948884",
"M. c #9C8C83",
"N. c #938D8A",
"B. c #9B8E8A",
"V. c #8D918F",
"C. c #9A928C",
"Z. c #848C95",
"A. c #8B8D92",
"S. c #928E91",
"D. c #8E9194",
"F. c #8A929A",
"G. c #939394",
"H. c #9A9A96",
"J. c #979798",
"K. c #94959A",
"L. c #9B9B9B",
"P. c #A59387",
"I. c #A99083",
"U. c #A4958C",
"Y. c #A39B94",
"T. c #9DA29D",
"R. c #A4A19C",
"E. c #ABA69D",
"W. c #B1AB9F",
"Q. c #8998A4",
"!. c #979DA3",
"~. c #A19FA2",
"^. c #8FA0A8",
"/. c #99A3A8",
"(. c #9CA5AB",
"). c #9AA9B3",
"_. c #A3A5A3",
"`. c #ADABA3",
"'. c #A7AAAA",
"]. c #B2ADA5",
"[. c #B0AFA9",
"{. c #AEB1AC",
"}. c #B4B3AB",
"|. c #B9B5AA",
" X c #BBB5AC",
".X c #A5AEB4",
"XX c #AAB3B5",
"oX c #B6B9B6",
"OX c #BCBCB3",
"+X c #C1B6AD",
"@X c #C2BAAE",
"#X c #C3BCB3",
"$X c #C9BEB5",
"%X c #BDC1B9",
"&X c #C6C3B8",
"*X c #C4C4BA",
"=X c #CAC6BA",
"-X c #CCCABD",
";X c #D4D0BF",
":X c #BBBFC3",
">X c #BEC7C3",
",X c #C4CBC5",
"<X c #C5CBC7",
"1X c #CDCDC2",
"2X c #D2CEC2",
"3X c #CDD1C6",
"4X c #CDD3CB",
"5X c #D3D2C5",
"6X c #D8D6C7",
"7X c #D3D5CA",
"8X c #D5D9CE",
"9X c #DBDBCD",
"0X c #CED5D0",
"qX c #D5DAD1",
"wX c #DCDED1",
"eX c #E1DECE",
"rX c #E0DFD0",
"tX c #DFE0CD",
"yX c #DEE1D3",
"uX c #DEE5DB",
"iX c #E1E1CE",
"pX c #E3E4D4",
"aX c #E7E7D7",
"sX c #EAE9D6",
"dX c #E5E6D8",
"fX c #E6E8D9",
"gX c #EBECDC",
"hX c #F0EFDC",
"jX c #EEF0DE",
"kX c #F1F1DE",
"lX c #EDEFE0",
"zX c #F0EFE0",
"xX c #EEF1E1",
"cX c #F2F3E1",
/* pixels */
"e.*.$.T X.U.U.U.P.P.P.U.P.U.P.P.P.P.P.P.P.P.M.I.M.I.M.M.M.p.M.M.M.M.p.p.p.p.p.p.p.p.p.p.p.p.p.p.p.p.p.p.p.p.p.p.p.t.t.9.I { {  .",
"I = = w @ u y y u y a y y y y y y y y t y y t t r t y e t e r r r r e r 9 9 9 9 r 7 e 9 7 r 7 7 e 3 3 3 3 9 3 3 3 3 3 : B - % = ",
"B N N B X 1 r , t 9 9 9 1 u 1 r y 8 u 9 8 t 2 8 8 , r 1 9 , 9 2 2 9 1 r 8 8 8 2 y < 7 e , t 9 , a < 2 9 < r , 8 9 , r & V = N = ",
"P 4 N I 5 C H A F F A H A H H F J J F F F F F C j g j j j h h j f j h f j f j h h h f j g f p p f h p f g g g 9 p g g p V - - V ",
"P  . .0 E 0.y.u.y.y.y.y.u.u.u.u.8.8.3.8.8.8.3.3.3.<.<.<.<.<.,.,.,.:.>.<.<.<.<.<.,.,.,.;.;.Q Q Q Q Q Q Q Q Q Q Q Q Q Q Q 0 B P V ",
"= % # # , 9 t t r 9 r r r 9 7 e e 7 e e e e e r r 7 3 7 7 3 3 3 3 3 3 3 7 3 3 1 2 2 1 1 1 1 1 1 1 1 1 1 1 1 1 2 2 1 1 : . # # # ",
"8 c l :   # * = * * * * * * * = = = % % %   . % % % * * * * % % %               . . . . # # .                           . a u y ",
"..6.:.a . & 5 6 6 6 6 6 6 6 5 > > > * ; % . % 6 6 6 6 6 6 > > > > + X X   . o + % & + + & & & o o o X X X X X X X o o X & s.>.=.",
"..y.1.l ; y E ~ E m E E c m c c c c k k u , t z c c c c m m z l l l l l y 3 l l l l l l l l k k k k s s u y y y s a a 3 & I.1.-.",
"..y.4.l , D l.z.k.R Z.F.$.X.l.l.I g.l.z.J f ( j.} l.z.[ j.z.l.D Z.z.d.^ l Z l.z.d.{ j.l.Y j.k.l.Z l.l.k.w k.l. .$.k.j.p > I.1.-.",
"..y.3.l 1 I )..X!.X..XXXv.%.(.).} D..XXXX.F ] z.*.).).X.!..X.X` (.).Q.7.~ D Q.).F.X././.} D.(.).H (.).(.A /.(.h.$././.C > I.5.-.",
"..6.5.i 1 U 4XcXpX#.kXkX+Xm.kXkXt.}.cXcX+.F ] z.Y.kXcXM.1XcXjX9.pXcX-X0.~ J 4XjX1Xh.cXxXP.OXcXcX' 9XkXfXW wXkX$Xh.cXcXW 5 s.5.-.",
"..6.5.i 1 U 7XcXaX&.cXcX@XC.cXcXt.OXcXcX+.F 7.Q.R.cXcXB.5XcXgX7.fXxX-X0.~ U 8XgX5Xm.cXxXU.OXxXxX] 9XxXgX~ pXjX*Xb.cXcX/ > s.5.;.",
"..6.5.i 1 U 7XcXaXq.cXcX+XC.kXcXt.OXxXcX+.n 7.^.E.cXcXB.7XkXgX9.aXkX-X9.^ U 9XjX5XB.cXzXY.*XcXgX' 9XcXgX( pXkX*XS.cXcX( 5 s.5.>.",
"..a.1.i 7 T 7XkXpXq.kXhX+XC.kXgXt. XjXcX9.F 7.!.R.kXjXB.;XgXfX7.pXhX-X9.^ Y 8XgX2XM.hXgXU.#XlXgX] 9XgXfX( pXjX@XG.kXcX( > s.5.:.",
"..6.1.i 7 F Y.}.E._ `.].m.&.}.}.O.m.].}.] H ' &.w.].`.O.Y.W.W.' E.].H.9.^ F {.=X].w.=X=Xr.Y.OX X( }.OX XE }.*XU.e.-X5X! > s.5.;.",
"..6.:.y 9 Z !.'.~.( !.J.*.X.!.!._ x.'.'.X.F ` j.&.'._.@.A.'._._ /..XA.9.~ g A.J.h.Y D.A._ *.G.G.H n.F.A.A v.A.@.R n.x.H > s.>.;.",
"..4.>.t 9 J 4XkXaX#.cXkX#XN.kXkXw. XcXcX+.F O.Q.Y.cXxXM.3XxXgXq.pXjX-X9.~ D 7XgX2Xc.cXlXU.OXgXgX| wXxXgX) wXgX$Xc.kXkX) > s.>.;.",
"..4.>.y 7 U 8XcXaXq.cXcX#XG.kXjXt.%XjXcX+.F +.^.`.kXjXB.7XjXgXq.pXjX=X9.~ J 7XgX5XB.xXjXY.*XgXlXo.wXhXgX' dXgX*XN.cXkX) > s.1.-.",
"..6.>.y 1 Y qXcXaXe.cXcX@XG.kXkXt.%XjXcX+.n 7.(.W.hXkXB.7XgXfXw.aXgX-X9.~ H 8XgX5XB.lXgXY.=XlXgXo.pXgXlX' dXxX#XC.cXcX) 5 s.1.M ",
"..4.>.y 9 T 0XcXaX&.kXgX#XN.jXgXr.OXgXjX+.F 7.'.`.gXgXB.7XgXfXw.pXgX=X9.~ J 7XgX1XM.gXfXU.*XgXgX] pXgXgX) pXgX#XC.kXcX' 6 s.>.M ",
"..5.>.t r j G.R.S.( H.R.e.@.R._.` x.L._.` n ~ &.q.L.H.` b.R.R.) N.G.x.7.! j H.`.H.#.`.`.#.N.R._.( R.`.`.E _.[.c.@.H.R.W > s.>.M ",
"R 1.:.y r D ,XpX6Xo.9XyX}.x.wXyXq._.yX8X+.j ' z.G.wXyXi.XXqX8XO.<XwXOX7.! Z oX9XOXq.9X9Xm.R.7X8X) *X9X7XW >X8X].*.7X9XW > s.-.v ",
"R 3.>.t 9 T 7XhXpX#.cXjX@XN.jXkXt.oXxXxX7.n ] Q.`.gXgXM.<XgXfX9.yXgX=X9.! J 4XgX2Xm.gXgXU.#XgXgXo.9XgXfX' yXgX=Xb.kXkXW > s.:.M ",
"R 3.>.e 3 T 8XkXpXq.cXxX#XC.jXjXt.OXgXjX7.F 7.^.].gXgXB.4XgXfX9.pXgX=X9.~ J 7XgX5Xm.xXgXY.#XgXgXO.pXgXfX) pXgX=XS.kXcX/ > s.>.=.",
"R 3.:.e 7 R 7XgXpXq.cXgX@XC.gXgXp.OXgXgX7.F 7./.W.gXgXB.4XgXfX9.pXfX=X9.~ U 7XfX2XB.lXgXY.#XgXgX] pXgXgX) pXgX*XN.kXcX` > u.>.M ",
"..3.-.e 7 U *XeX7Xq.pXeX XC.pXwXt.|.pXaX+.F 7.T.Y.pXpXm.<XpXwX9.9XeXOX7.! H 1XyX=XC.aXpXC.@XpXwX' rXaXpX) eXaX#Xm.pXfX' > s.-.=.",
"_ 1.-.e 7 Z A.J.b.H A.G.*.} G.J.) @.J.L._ F ~ $.X.n.A.` g.D.D.( Z.Q.f.2.m q j.L.x.R G.L.X.&.S.G.H b.G.G.z Z.F.*.U A.G.H > s.-.=.",
"( :.>.e 1 U 4XkXpX@.cXjX#Xn.jXjXt.{.jXgXO.n ' Q.R.xXxXM.>XxXgXq.uXjX*X7.E D 4XgX1Xx.jXgXU.oXgXgX` qXgXlX) qXgX=Xx.gXjXW > s.M M ",
"T ,.;.e 2 Y 0XcXaX#.cXcX@Xn.jXgXt.|.xXxX+.b ' Q.`.jXxXB.4XgXfX9.dXgX=X] m U 8XgX5Xb.gXgXU.OXgXgX' wXgXlX' yXgX-Xb.jXkXW > 0.=.M ",
"T ,.;.e 1 Y 0XxXpX&.cXgX@Xn.jXgXi.OXlXxX+.j ' !.].gXgXB.4XgXfX9.pXfX=X] m U 8XgX2XN.gXgXU.*XgXgXo.yXgXgX' dXgX=XN.hXkX) > 0.-.v ",
"T :.M 7 2 R 3XgXpX#.gXfX XD.gXfXm.OXgXgX#.b ] /.`.fXgXm.1XfXaXw.yXdX*X] m U 7XaX-XB.fXfXB.&XfXfXo.yXgXdX' pXgX*XN.fXhX' > 0.M v ",
"T :.M 7 1 D Y.`.Y._ `.`.i.&.].].] c.R.E.' b ^ *.i.}.].O.`. X}.] `.].H.] n C E.}.Y.w.OXOX9.E.OXoX_ %X*XOX~ *X*XY.&.].}.W @ 0.-.v ",
"T ;.M 7 3 D (.:XoX_ oX,XH.@.OX*X@.A.>X<Xo.b ) j.f.oX:X&.D.oXoX_ /.OX/.] n w /.oXL._ {.oX&.*.{.oXH S.'.'.A J.'.S.{ .X{.H ; u.=.v ",
"K ;.M 7 3 I ,XgXpX#.xXgX@Xc.gXgXr.{.jXcX+.j ) z.E.gXxXB.*XgXfX+.9XgX=X] z L 4XfX5Xc.gXgXU.}.gXgX' 7XfXfX) 9XfX=Xf.sXhXW > 0.=.x ",
"K ;.M 7 3 U 4XgXpXq.xXgX@XN.gXgXi.}.lXxX] p H Q.`.gXgXB.3XgXfX+.pXgX*X' z I 7XgX5Xm.gXgXU.#XgXgX] wXgXlX_ pXgX=Xn.gXhXH > 8.=.x ",
"K ;.M 7 1 U 4XgXpXq.gXgX XC.gXfXi.|.gXgX] 6 w Q.`.fXgXm.7XgXdX#.pXfX*Xj < I 8XfX2XN.gXgXU.*XgXgX] pXgXgX) pXgX&Xn.hXkX( > 8.M x ",
"K >.v 7 1 T 3XkXaXw.gXgX#XJ.xXgXm.OXgXgX#.% 0 /.].cXcXm.8XlXgXw.fXhX1Xw # R qXxX1XC.lXgXU.=XgXgXO.fXlXgX' fXgX#XH.cXcX) > 8.M x ",
"H ;.M 3 1 w n.J.b.F V.G.*.R D.D.H $.J.J.J % % Y @.J.J._ x._.J.T D./.v.0 . w n.L.e._ L.Y.X.*.L.J.H n.~.J.A J.L.*.R A.n.A > 8.M x ",
"F ;.M 3 2 L ,XsXtX%.gXfX@Xv.fXsXr.{.gXgX` O # d.Y.gXgXi.*XfXdX#.9XfX*X0 . L *XpX=Xe.fXaXm.'.pXpX) 3XpXpX~ 4XpX*Xf.pXpXH > 2.M c ",
"F ;.v 3 , I 3XgXpX*.kXgX Xn.gXgXr.XXgXgXO.q j l._.gXgXm.4XgXfX#.yXfX*XW p L 1XfX-Xc.gXgXU.oXgXgX` qXfXfX( wXfX=Xv.hXgXH ; 2.M c ",
"n M c 1 : I 4XgXpX*.gXfX XN.gXfXr.{.gXgX] p W Q.`.gXgXm.7XfXaX#.pXsX*X^ k L 3XfX-Xc.gXgXC.OXfXfX` wXfXfX( wXgX*Xn.gXgXH @ ,.c c ",
"F M c 1 , I <XgXrX*.gXfX XC.fXsXr.}.fXfXo.p W Q.`.fXfXm.7XaXpX#.pXaX*X! k P 3XaX=XN.fXdXB.*XfXdXo.pXgXpX( yXfX#Xb.gXgXH @ 2.c c ",
"F M c 1 , L oX2X=Xo.5X2XE.c.2X1X9.R.-X1X' q E n.Y.1X1Xw.%X5X1X+.1X1X}.m a L  X=X].c.5X1Xe. X5X1X_ 5X7X1XW 1X7XE.x.5X1XH + 2.c d ",
"n M c 1 , w Z.'.!.J !.!.*.{ G.J.Y *.(.(.H 8 A d.*.(.'.X.*.J.Q.J n.(.Z.z a w k.!.v.T L./.} %.!./.D A.!.!.C g.A.*.T F.F.h @ ,.c d ",
"n M c 1 : L ,XgX9X@.fXsX|.n.gXfXq.{.gXgX` 9 H k.E.sXfXm.%XfXpX%.wXdXOXm a L <XaX=Xe.gXdXB.{.fXpX_ 7XdXaX( 7XiX@Xf.pXaXA @ ,.c d ",
"n M c 1 : I <XfXeX&.gXfX XA.gXgXr.XXfXgX` 9 H z.`.fXdXm.,XaXpX@.yXaXOXm a L 3XfX-Xc.gXfXB.oXfXfX` 7XdXfX( wXfX*Xn.gXfXA @ ,.x d ",
"b M c 1 : I 3XfX9X&.gXfX|.A.gXfXr.{.fXgX` 9 H Z.E.fXfXm.<XaXrX%.yXaXOXE a I 4XdX-Xc.fXaXC.oXdXdX` 6XaXpX/ wXfX#Xn.sXsXC + ,.c d ",
"b M c , : Y 1XsXeX%.sXpX Xn.fXfXr.oXfXgX' 8 H F.Y.aXaXi.-XpXpX#.yXaX#XH a I 3XaX=Xc.aXaXB.OXfXaX` 9XaXpX/ wXaX#Xc.gXgXF + ,.c d ",
"j v c : : w x.J.n.J G.n.@.{ n.v.J %.D.A.H 8 h { X.J.A.R x.G.n.J n.G.f.F r q j.n.*.} G.D.} *.D.A.A N.G.b.j b.n.@.T n.v.g + ^ d s ",
"j v l : , Z XX7X1XX.7X5XE.f.7X7X#./.qX8X_ 8 A j.J.8X8Xe.{.4X4X@.<X4X{.z t Z oX7X}.*.qX7Xi._.8XqXW *X7X7XH *X4X`.*.1X3XC + ^ d s ",
"j v l : , L >XsX9X%.fXdX|.v.aXdXw.'.fXfX` 7 H l._.pXaXm.*XpXpX@.9XpXOXA y Z ,XpX=Xc.fXaXB.{.aXpX_ 1XaXpX/ 8XaX#Xf.pXiXC + ^ l s ",
"j v l , : P <XfX9X%.fXaX|.v.aXaXr.'.dXfX` 7 A l.`.aXpXm.*XpXpX@.9XpXOXF t L ,XaX=Xc.dXpXB.}.pXpX_ 5XaXpX( 8XdX#Xh.sXpXC + ^ d u ",
"j v k @ : P <XaX9X#.aXpX}.v.pXpXr.'.aXfX` 8 A l.R.pXyXr.*XeX9Xo.9XwX XF t L ,XpX*Xc.pXyXN.}.yXwX_ 7XaXyX( 9XaX Xe.aXaXC + ^ s u ",
"j c u @ : I *X9X2X#.9X9X].b.9X9Xw.`.9XwX` 8 A k.H.9X6Xw.*X7X1XO.5X7X}.z 9 I *X5X Xc.9X7Xc.}.7X7X` 2X9X7XH 1X9X].e.9X9XC + ^ s u ",
"6 r 1 o : w v.!.n.J J.L.*.R J.J.Y *.!.!.H 1 g { X.J.J._ *.J.J.J A./.g.j 9 0 f.J.x.R J.J.} %.J.J.C v.J.J.g n.J.f.Y n.x.q X h 1 , ",
"g.d.$.V : S oXiX5Xo.yXiX}.h.pXpXw.'.aXfX_ , C j.J.pXpXe. XyX9Xo.5XeX}.a 9 V OXeX#Xf.dXyXN.].pXyXR *XyX9XH 5XpX Xg.iX6XZ 5 v.$. .",
"L = % & : P %XpX5XX.pXpX].f.pXpXq.'.pXpX( < C k.J.pXyXr.OXyX9XX.5X9X[.k 3 V %XeX#Xf.pXwXm.].wXwX_ 1XyX9XH 7XpX Xg.rX9Xw = V * = ",
"V = % % : P >XpX7XX.yXiX].*.pXrXq.'.pXpX( < C l.J.wX9Xe.OXwX9XX.3X9X}.a 1 V %X9XOX*.wX9XN.`.wX9XR 1XwXwXJ 7XyX X*.9X9XB = V = = ",
"B * O % ; P >XpX7XX.9XwX].*.pXwXq./.wXpX_ , Z k.H.wX9Xe.oX9X7X} -X9XoXp 2 V OX9XOX*.9X9Xb.`.9X8XY 1XwX9XD 1X9X}.$.9X9Xg * B 5 X ",
"B % O % + w v.L.A.D _._.e.{ H.J.T *._.L.D ; w { @.L.H._ x.J.J.D A.L.x.8 2 0 x.G.*.T L.L...*.L.J.Z J._./.w n.L.*.D n.b.8 & B * X ",
"0 % % % + 0 g.J.J.B J.J.*.L /.'.I { !.(.Z : w $.I (.!.I $.J.G.Z j.D.f.9 , 0 x.H.x.L L.(.{ *.!.!.B v.J.L.8 A._.f.L J.A.6 * B = X ",
"w   . % & > I { { 0 ....U V {  .B P { { w : q L B { { w P { { 0 { { [ 8 2 5 { $.{ B $.$.V P $.$.0 { ..$.> [ ..Y 0 { { < * B . O ",
"B * % % $ : t y y a h h a s s k u y a k a # $ 6 8 9 p 9 p p t t t p g < $ , k l k k l k k k l l s s s a a a y y y y y 2 % B % = "
};
