/* XPM */
static char *_5fcedc793da4f29dec8c43926d3fdf7qTCnBqnZI9GM854L[] = {
/* columns rows colors chars-per-pixel */
"64 64 256 2 ",
"   c #140E0F",
".  c #1A1619",
"X  c #251918",
"o  c #2B1C1C",
"O  c #361D1C",
"+  c #2E211E",
"@  c #35221D",
"#  c #3B221D",
"$  c #1C1B26",
"%  c #171C37",
"&  c #231D24",
"*  c #361E22",
"=  c #1E2232",
"-  c #292529",
";  c #3C2423",
":  c #382927",
">  c #3D312C",
",  c #282937",
"<  c #342C33",
"1  c #2E323A",
"2  c #34333B",
"3  c #39343A",
"4  c #45261E",
"5  c #532E1F",
"6  c #63391F",
"7  c #422622",
"8  c #442B24",
"9  c #4B2C24",
"0  c #432C2A",
"q  c #4C2D29",
"w  c #532C23",
"e  c #552D27",
"r  c #45332C",
"t  c #4C3429",
"y  c #543225",
"u  c #54332B",
"i  c #5B352D",
"p  c #583829",
"a  c #5C3B2C",
"s  c #473836",
"d  c #563934",
"f  c #5B3B32",
"g  c #663A26",
"h  c #653D2C",
"j  c #703D29",
"k  c #643C33",
"l  c #4D423B",
"z  c #5A4237",
"x  c #69412D",
"c  c #75462D",
"v  c #644334",
"b  c #6A4334",
"n  c #644439",
"m  c #6C443B",
"M  c #674A38",
"N  c #6B4C3C",
"B  c #774935",
"V  c #734D3B",
"C  c #6D513D",
"Z  c #79533B",
"A  c #1E2948",
"S  c #2C3445",
"D  c #2C324B",
"F  c #373846",
"G  c #433E47",
"H  c #3C404A",
"J  c #3B4358",
"K  c #3B4869",
"L  c #48454B",
"P  c #574745",
"I  c #474956",
"U  c #574F53",
"Y  c #4C525B",
"T  c #575559",
"R  c #664B43",
"E  c #744B42",
"W  c #6A564B",
"Q  c #755442",
"!  c #7C5B44",
"~  c #785748",
"^  c #645A57",
"/  c #795D53",
"(  c #7B624D",
")  c #6A645B",
"_  c #7B6556",
"`  c #494D66",
"'  c #4C5568",
"]  c #575B68",
"[  c #515971",
"{  c #625D63",
"}  c #5B606B",
"|  c #586477",
" . c #6A6668",
".. c #756C68",
"X. c #6F7075",
"o. c #8D4D2D",
"O. c #834C34",
"+. c #87563A",
"@. c #83543C",
"#. c #8B5A3C",
"$. c #975A38",
"%. c #945C3C",
"&. c #A05F38",
"*. c #9B623C",
"=. c #A6663C",
"-. c #B26C3C",
";. c #835C43",
":. c #885D46",
">. c #915E46",
",. c #8A6547",
"<. c #85634C",
"1. c #8C644C",
"2. c #966546",
"3. c #936B4C",
"4. c #9B6C4B",
"5. c #9B724E",
"6. c #876854",
"7. c #8C6C54",
"8. c #926C53",
"9. c #986C54",
"0. c #8B7359",
"q. c #947254",
"w. c #9C7454",
"e. c #94735A",
"r. c #9B745A",
"t. c #997B59",
"y. c #9C7B5C",
"u. c #A86A44",
"i. c #A96F4A",
"p. c #A7744B",
"a. c #B57A4B",
"s. c #A27554",
"d. c #A67A55",
"f. c #A47D5B",
"g. c #AA7D5B",
"h. c #B97C52",
"j. c #857367",
"k. c #937A63",
"l. c #9B7D63",
"z. c #A37C62",
"x. c #C07D4E",
"c. c #98815E",
"v. c #BA824C",
"b. c #AC825C",
"n. c #A8865C",
"m. c #BB8454",
"M. c #B7875C",
"N. c #B5915E",
"B. c #9C8365",
"V. c #978B78",
"C. c #A48363",
"Z. c #AC8463",
"A. c #AB8B64",
"S. c #A8886A",
"D. c #B48A63",
"F. c #B78A65",
"G. c #B38C6B",
"H. c #AC926C",
"J. c #BD9265",
"K. c #B5926C",
"L. c #BA976A",
"P. c #BB946C",
"I. c #AA8C71",
"U. c #AD9476",
"Y. c #BB9573",
"T. c #B69877",
"R. c #BC9B73",
"E. c #BDA279",
"W. c #C7884D",
"Q. c #C48B54",
"!. c #C98A57",
"~. c #C48C5B",
"^. c #D18C56",
"/. c #CB925A",
"(. c #D5975A",
"). c #E29F5F",
"_. c #C38F63",
"`. c #C49364",
"'. c #CB9765",
"]. c #C4956B",
"[. c #C49B6C",
"{. c #CB9A6B",
"}. c #D49B67",
"|. c #C49B73",
" X c #CB9D72",
".X c #C49B78",
"XX c #D29E71",
"oX c #C8A36D",
"OX c #D4A26D",
"+X c #DAA66B",
"@X c #CBA274",
"#X c #C5A27A",
"$X c #CBA57B",
"%X c #C9A87A",
"&X c #D3A474",
"*X c #D5A676",
"=X c #DCAB75",
"-X c #D3AB7C",
";X c #DBAC7C",
":X c #CBB17A",
">X c #D7B27D",
",X c #DCB37D",
"<X c #E4A86A",
"1X c #E4AE75",
"2X c #E6B578",
"3X c #E3B47C",
"4X c #EFB879",
"5X c #EFC27D",
"6X c #576282",
"7X c #6B7487",
"8X c #89878D",
"9X c #BC9D81",
"0X c #BDA686",
"qX c #C8A986",
"wX c #D6AD84",
"eX c #CDB287",
"rX c #D5B383",
"tX c #DBB383",
"yX c #D8B68A",
"uX c #DCBB8C",
"iX c #CBAE90",
"pX c #CBB491",
"aX c #D4BC97",
"sX c #DBBC92",
"dX c #E3B583",
"fX c #E4BB85",
"gX c #E9BB87",
"hX c #E3BC8C",
"jX c #F0B982",
"kX c #E3BD92",
"lX c #DBC48C",
"zX c #DBC599",
"xX c #EBC38B",
"cX c #E8C58C",
"vX c #F3C988",
"bX c #F3D48F",
"nX c #E3C393",
"mX c #EBC593",
"MX c #ECCB95",
"NX c #E7CA9A",
"BX c #F2CD96",
"VX c #EBD299",
"CX c #F7D796",
"ZX c #F3D49C",
"AX c #F4DA9D",
"SX c #F9E39D",
"DX c #D9C4A2",
"FX c #EACDA3",
"GX c #EBD6A5",
"HX c #F5DBA2",
"JX c #F6DAA7",
"KX c #F1D7AE",
"LX c #F8E3A9",
"PX c #F8E7B6",
"IX c #F3E9B3",
"UX c #F8EAC2",
/* pixels */
"8X{ ^ _ bXMXMXVXVXNXmXV.X.} | ^ fXgXhXnXnXnXnXeXX.X.X.T :XfXhXuXnXzXzXDX..X.[ } B.tXrXyXsXsXuXzX..7X} X._ gXfXgXgXhXgXxXB.8XX.} ",
"I ] H z Q.!.!.Q.Q.Q./.6.] T H r v.W.^.(./.~.m.p.Y L F - a.W.W./.(./.v.v.P  .[ , Z a.a.m.Q.~.M.M.( I ' F b !.^.^.!.^.!./.,.Y Y F ",
"3 $ $ X y 5 y w 5 w y # 2 $ & X p g g g p p p t - - $   g j g g g g g 6 - < - . # i h h h h g a @ 3 & - @ i i p h h h p # 3 & - ",
"..T . ; V y.b.B M.`.`.3. .8X< - a ;.,.#.3.w.5.,.L V.3 X e >.2.B B 4.2.,.s j.F $ t <.e.7.w ,.>.:.d j._ : : R 1.8.w 2.:.@.f G ..< ",
"Y L - f b.bXvXg.4X5X5XoXX.3 U 9 M.5X4X+X1X5X5X2Xj.j.U @ u.xXBX|.`.vXvXvX( ..I & Z }.4X+X%.4X4X4Xw.k.W - h F.bXxX;.gXvXvXL...s L ",
"Y - < f `.xX1Xp.=X<X+Xd.I Y 2 ; 2.'.}.a.~.~.m.p.L ..s o O.-XnXf.N.=X=XOX/ L F & +.}.2X}.i.+X}.<X<.U 3 - t D.rX$X@.[.[.].,.L Y 2 ",
"} Y S V !.<X<X<X<X<X<Xh.) U 3 8 !.(.}.<X2X4X4X>XT L G : [.4X2X1X1X<X<X=Xs  .L & i.(.<X1X1X<X<X<X! L s - 7.&X;XdXdX1X<X<X3.P ^ & ",
"} - S o a x x h c B B x j.&XE X i a x x c c c 6 U - 3 - c O.O.O.O.o.o.c 9 wX2.o 9 h h b B B B c t U < - a +.#.#.B c c j y t.}.g ",
"z a . 3 P <.7.9 3.4.s.4.B.*Xm 7 Z 8.r.a ! <.:.~ > M X X t n ~ u n 7.( _ P rX2.@ n <.8.6.t 6./ / P s 0 . * s ~ 6.8 ;.:.,.! C.}.k ",
"[.Q.9 ~ P.ZXBX2.cXxXmXtXI.OXb f g.nXmX8.{.3XdX;X0.OX@.r r.wXdXb.n.3XdXtX0.wX2.7 2.=X2XoX:.hXfXtXb.{.h.7 / Z.hXhXV *XdXdX.XD.}.k ",
"#X/.p <.uXPXPXd.LXPXPXGXH.}.x @.tXJXPXI.tXCXCXAXH.*X@.z  XAXHX$XqXLXAXLXH.tXu.e F.PXUXKXy.LXZXHX#X-XQ.t 9.NXLXLX8.GXLXJXzXP.}.b ",
"K.'.y Q D.[.].Z D.P.P.b.l.{.x z d.J.@X,.P.>X>X-Xk.;X@.q r.#XwXy.6.R.|.E.7.rXu.# ;.T.R.S.Q #XoX@Xg.-Xm.8 v y.Z.Z.M U.0XqXU.G.'.m ",
"K.'.y x D.J.P.x |.@X@XP.l.{.x u C.@X%XC <.z.C.z.6.;X@.7 6.T.R.:.6.qXqXE.7.tXu.; 6.0X0XU.N Y.9X9Xk.@X~.7 R T.qXqXf S.P.P.A.D./.k ",
"P.'.y @.fXBXBX3.MXBXmXtXC.OXh b uXJXJXC.yXHXHXHXB.;XZ i P.BXmXR.Y.ZXMXMXC.-X*.# f.KXKXDX8.vXvXvX[.@Xx.8 7.KXJXJX6.nXMXVXnXZ.}.k ",
"L.~.y ,.ZXLXLXy.IXPXPXGXC.{.h B mXPXPXT.lXIXPXPXB.*XB f qXPXPXpXE.PXPXUXS.*X%.# G.PXPXNXq.LXPXPXeX@Xa.9 e.PXUXPX0.GXPXPXNXS.'.i ",
"G.M.u x d.M.n.x s.g.g.3.l.J.x p s.M.b.N 1.C.C.B.6.*XB 8 1.Z.Z.! V s.d.d.! ;X%.O M q.r.1.b g.g.d.<.@Xa.8 z k.l.l.p 3.5.w.3.C.'.f ",
"R.M.p N `.,XtX@.,X5X2X'.S.J.g b F.mXMX3.@XcXdX*Xq.&XB q i.*XtXZ.b.3X2X;X8.*X$.@ ,.yXmXwX@.3X3X3Xg.%Xi.8 ( yXnXnXZ ,XxXxXR.C.'.u ",
"L.M.t Q *XSXAX2.MXCXbX2XC.b.p M ].HXHXw.rXAXZXZXe.J.k p M.GXLXE.R.AXCXAXt.D.B # d.GXHXsX,.bXAXAXT.H.>.@ ( cXCXZX:.cXCXbX>X0.y.3 ",
"T < 1 r r.%X@Xb H.E.K.<.^ 3 1 @ 4.#X#XZ t.K.D.q. .F G < Z n.[.3.,.L.J.M.) H F 3 a C.|.A.N P.R.R.) I F H 0 w.G.P.b A.Y.D.( ] L F ",
"T L S ! +X3XfXkXnXNXVX9X^ U G z =X1X3XtXtX3X2XOX{ ] ` S `.=X;XrXrX,X,XhXT | I $ Z.-XtXtXkXfX2XgX6.[ ] 2 7.dXdXhXkXsXuXuXU.' I , ",
"F 3 F p &.=.=.=.=.-.i.#.T F F ; $.*.*.=.=.u.u.*.U F J , c #.%.*.*.=.*.u.G K S = h #.%.%.$.u.=.a.M ' 1 S t o.$.*.*.*.2.*.V ] , F ",
"> . . . # # 8 @ > > < < - o . . ; > 0 @ 4 9 9 4 - - . . O 7 9 # # 9 9 8 o < o . o # 8 8 @ y 9 p : 1 : .   o : 0 X r s s : - r . ",
"D.M.i v 3.R.R.N K.G.I.k.t.(.n d 1.G.Y.Q f.D.D.Z.( {.Z 8 :.F. X1.;.D.Z.d.Q oX@.; @.f.P.S.v G.F.Z.6.D.p.; ~ C.qXqXd Z.K.G.e.y.!.i ",
"L.~.p Z  XGXGX7.BXZXZXuXN.(.E n G.HXJXB.zXKXKXFXB.&X@.y Z.HXJXK.Z.xXxXxXl.*X+.9 i.MXJXaX! cXhXhXY.[.a.; :.wXKXFXQ 3XjX4X;XG./.i ",
"P.M.y ;.@XrX$XZ qXeXqXT.n.(.M n [.*X X;.G.eXeXeXk.*X@.q 2.].].2.p.1X=X=Xy.*X>.# 4.9XqXU.V &XOX Xg.[.h.7 E T.iXqXz Y.@X$XY.S./.k ",
"P.m.p B R.zXzX1.eXyXsXqXA.(.n d T.zXzXS.R.rXrXqXl.&XO.k F.FXGXT.N.gX3X,Xr.;X2.; <.DXDXaX1.nXuXyXS. XQ.8 N qXsXFX<.pXsXaXqXS.!.k ",
"R.m.y 3.mXLXLXq.VXAXAXnXA./.n Z VXLXLXY.NXIXPXPXS.XXO.b -XPXKXE.|.AXAXLXH.;X2.q Y.UXPXGXr.LXJXJXqX[.i.0 9.LXJXZX3.FXLXLXFXH.Q.k ",
"Y.a.y v s.D.D.b b.N.D.w.n.(.a q t.A.K.~ q.D.G.C.0.OXZ q 1.f.g.! V y.f.y.! tX#.O ! Z.Z.s.h z.S.S./ ].i.7 z e.f.s.i e.y.y.6.l.m.i ",
"E.m.y N K.uXnX! $X,XtX|.N.(.f k Z.sXsX6.D.tX*XJ.e.+XB u z.nXmXG.Z.NXuXtXe.rX#.; <.qXhXqX;.tX,X-Xy.@Xi.: _ P.yXhXB |.-X-XG.B.~.k ",
"E.b.9 V #XJXJX1.cXxXvXlXn./.p N P.ZXHXl.@XZXZXZXl.J.k k D.MXJXR.P.MXxXvXk.T.Z : e.NXGXzX1.xXMXBXH.n.>.: / rXCXCX;.nXZXMXrXc.n.r ",
"U < S > S.eXwXM K.|.[.B.} 3 S : r.$XwX6.f. X#XA...L G < V G.|.1.,.P.J.K...` D D R S.qXT.V P.|.L.W F 3 2 s w. X|.f H..XR.0.] 3 2 ",
"] Y D ~ }.+X}.*X=X1X2XK.[ [ ` d (.).<X3X=X<X1X:XI ] ` 3 {.<X=X=X;X;X=X1XI 6X' = s.OX1X1XdX1X1X2X6.| T 1 ( *X*X*X-X-X{.{.C.L I 1 ",
"I , S a u.u.u.-.-.u.u.%.' S J r -.-.-.-.-.u.=.*.T F J - %.u.u.u.=.=.$.$.G K F D B -.u.u.u.u.=.=.v [ S F a $.o.$.&.$.2.2.;.{ , 1 ",
"< . . X O O O X 4 9 9 7 - X & . # 4 # o ; ; 7 ; - - X . ; q 9 ; * q u d & s & . o 7 7 # O 8 8 t - F : $ . O O ; X * # ; * - : & ",
"M.i.8 f r..XqXM G.].|.G.k.J.b u 7.Z.P.~ C.].P.P.Q XXB 7 >.T.qXS.y.$X$XJ.! OX%.O E f.S.S.Q Y.K.G.7.Y.i.O v 6.U.9Xd Z.F.P.A.C.M.q ",
"P.m.5 B .XmXnX7.hXxXhX%XI.[.x f C.NXmXt.$XcXhXtXe.OX@.q g.mXcXB.f.-X,XtXq.*X$.# 1.hXxXwX,.gXdX3Xb.@Xa.7 :.qXKXVXQ hXcXfX$XS.N.f ",
"R.~.y 9.tXHXJXl.VXAXAXuXI.{.x Z yXAXHXn.yXLXAXMXt.OX@.a -XHXAXT.K.vXvXZXy.OX%.; G.KXKXzX3.ZXZXCXR. Xh.4 1.nXAXHX! NXbXxXrXZ.m.i ",
"K.Q.9 a 2.g.g.g 2.p.p.+.B.{.x 9 :.n.C.N ,.g.g.w.6.{.O.; ~ A.S.~ Z g.b.n.~ *X*.o R S.f.3.k s.f.9.~ [.h.8 i 4.s.s.i s.d.d.2.w.~.i ",
"Y.Q.5 7.tXAXJXw.MXHXHXnXI.].x x -XJXJXA.wXHXZXMXl.}.B x J.PXPXqXY.HXZXZXC.OX*.7 Z.FXFXkXw.HXbXmXY.].h.9 >.hXZXZX<.tXgXdX-Xb.~.i ",
"K.m.y 8.uXLXHXd.NXAXAXnXH.`.x c OXHXHXb.rXLXHXZXB.{.B v $XKXKXqXL.HXAXZXC.XX$.7 G.FXFXuXs.vXvXCXR.{.i.7 3.FXJXHX6.nXBXZXuXZ.~.i ",
"C.M.9 > ! q.3.h ,.s.3.@.y.'.h 7 @.i.p.B +.4.5.2.<.}.B @ b w.w.V B s.3.,.M +X$.o t 9.e.7.a 4.s.w.Z {.p.: d 8.f.C.z 1.r.e.<.B.'.f ",
"K.M.8 R G.hXhX1.;XgXdX@XZ./.g N M.xXxXd.#XMXmXyX0.OXB a M.gXgXZ.d.4X2X2Xe.=X=.0 0.sXNXyXZ ,X;X;XC.*Xh.: W F.,XgX~ qXyXtXY.I.`.d ",
"T s $ z S.NXNX<.uXcXcXE.U R - z M.nXmXw.#XkXuX%XU P < r d.nXmXH.C.VXMXsX^ W ; - W #XkXwX! MXcXdX..^ P 3 P S.xXmXC yXMXmXT.^ R < ",
"7XJ J R D.].|.G.#X#X#Xk.| [ ` l F.].[.K..X XoXA.' | | S y.P.|.K.T.#X|.P.T | [ A 1.].@X].F. X{.|.^ 8X' I z P.|.|.S.Y.Y.P._ 7X` J ",
"J S F b x.W.^.^.^.^.(.p.} H L s W.Q.W.W./.W.W.a.} F J < p.Q.'.+X}./.N.m.T [ I , +.!.!./.}.}././.W Y I , C /.(.}.}._.~.Q.g.} J 1 ",
"H $ , X 4 5 w w w e y 9 1 $ 1 X 8 4 4 w y y y u < - $ $ 4 w e y q q q d < , . , O q q q q 9 q q o I $ S X w w w y y u u r F , $ ",
"! N o r ~ e.k.r ;.2.:.B R ;.; : P j.j.d R ( ( W s 6.s + R / j.P z 6.6.6.r <.k X z / 6./ 7 6.6.6.z z b X ; R ~ _ : ~ <.6.~ n +.# ",
"L.h.q Q D.xXfX<.wXdX;X|.H.'.v z z.sXnX8..XnXkXyXl.XXQ s r.mXBXC.f.3X,X=X7. X@.@ 1.sXFXqXQ nXyXuXS.|.u.7 ~ .XnXmX~ &X=X&XP.C.Q.i ",
"L.m.y 8.,XAXCXy.cXCXCXcXT.'.b ~ yXLXAXb.yXLXAXbXB.XXQ d Y.JXAXR.E.HXZXLXC. X#.8 Z.KXPXzX1.CXBXMXK.|.a.7 :.hXMXMX1.fXvXbXyXA.Q.i ",
"P.m.9 v 3.d.f.N B.A.A.q.C.'.b 7 1.A.b.V q.Z.Z.f.6.XXE ; <.C.A.<.0.H.H.H.( &X%.O Q z.C.8.v Z.A.A.! |.a.7 k n.D.Z.v d.N.Z.8.f.Q.u ",
"K.m.9 N G.yXuX~ #XrXyXR.S.{.h a P.uXuX<.P.rX%X$X0.{.n 7 2.&X=Xs.,.`.].J.1.&X%.@ ;.wXwXG.! rXyXyXy.].a.7 V $XwXyXQ |.tX-XG.n.h.q ",
"D.a.9 @.tXMXBXq.cXCXCX5XS.`.h h *XcXcXr.eXVXZXMXy.].n u M.vXvX].K.AXZXCXC.XX%.7 d.GXJXyX3.MXBXVXH.|.u.8 4.kXZXZX8.tXMXmXyXZ.h.u ",
"D.a.q B rXNXzX0.lXNXlX:XB.J.k p U.0XqX0.U.pXaXqX7.].M p N.NXVXH.S.zXzXzXB. X%.# r.sXkXqX( aXsXyXB. Xi.4 1.pXsXsX! E.yXyXT.n.m.u ",
"n.a.9 y ;.4.4.t V ;.;.Q e.F.p s Z 3.8.z N <.:.Q / {.b o k ,.2.V f ! ~ Q z &X#.o P <.1.~ 8 ;.;.! z [.a.@ ; Q 1.3.i Z >.:.B f.m.i ",
"L.v.q c ].xXMX,.rXvXmX>XC._.a M K.bXAXt.|.BXxXcX0.{.b 8 i.2XjXP.c.mXcXkX7.*X$.+ ) wXhXwXQ hXhXfXB.].a.@ W |.mXBX:.@XfXfX[.n.a.e ",
"^ M X q f.rX>X! K.-X%Xn.^ 6.: r t.eXrX<.t.#X:XR.P ! 0 : ;.-XgXC.e.eXeX%XR j.r , P T.eX9XM qX#X.X~ 7.Z . s B.uXuXZ D.&X&Xf.~ ,.* ",
"7XF F n `.'.@XrX-X&X-XA.X.` ] s `.`.{.$X#X@X@XA.] ` ` 3 b.{.XXXX X XOXoX^ ] ' F <.].XX X#X@X X&X( T L L a m.'.{.|.|. X Xq. .Y F ",
"` I F p m.~./.Q.}././.a.Y F L r a.v.Q.v.Q././.v.I ` ] - a.W.W.!.^.(.(.Q.R I L $ #.h.Q.~.~.'.N.M.~ P L 1 h h.^./.}.'.'.~.2. ...3 ",
"S . - o B @.+.+.#.#.#.Z 3 - X o x c B B +.%.#.@.L - . & k 3.4.>.2.2.*.%.s 3 < . 9 h c c Z B c Z s s - $ # B +.2.2.2.2.%.N 3 & $ ",
"V...- + k Z Q b n N N f  ._ l . t N N M V V V v L j.] . r n M z n v v z - z.W   0 N Q N N N N C < / <.$ o u f p f z z z > T F F ",
"G L $ 0 <.M.b.b.g.M.D.k.I T - - ( P.G.b.M.`.`.D.2 ] S - W D.D.Z.D.F.J.J.G G S $ f d._.J.b.M.J.~.P ` P , 9 ,.b.Z.G.G.D.F.q., | = ",
"L F F 0 ;.d.s.w.5.w.s.W Y F G - Q r.w.y.5.w.f.( ] S I 3 M w.w.w.5.d.g.q.Y ` F S z 5.s.s.,.4.4.p.P [ F - q ;.5.w.s.s.w.3.R } 1 F ",
"U < L / +X+X=X=X=X1X1Xe.{ < L s {.+X}.XX{.OX+XM.] J , s ].=X{. X=X=X+X[. .' D F 3.}.'.OX&X}.}.+X..| , L ~ {.@X;X&X=X*X*X0.Y F S ",
"= , . : m m m m n n M s % A % & m m b m n m R d , A % $ f b m E m m E n , D % % y k k m E Q Q Q G = , $ > E m E m m m m 0 , 1 , "
};
