/* XPM */
static char *d2accfacd19e44f6f63461241e36b444k5jiy66vMYV89moQ[] = {
/* columns rows colors chars-per-pixel */
"64 64 252 2 ",
"   c #030304",
".  c #070906",
"X  c #06060A",
"o  c #08070B",
"O  c #07090C",
"+  c #0A0A0D",
"@  c #0D110C",
"#  c #11150E",
"$  c #0C0D12",
"%  c #0D0F19",
"&  c #120E13",
"*  c #0E1115",
"=  c #0E131A",
"-  c #121315",
";  c #141A14",
":  c #13141B",
">  c #151A1C",
",  c #1A1818",
"<  c #1A1B1D",
"1  c #231B1D",
"2  c #291F1F",
"3  c #1A231A",
"4  c #25281D",
"5  c #26371E",
"6  c #141621",
"7  c #161A23",
"8  c #171926",
"9  c #1B1C24",
"0  c #131829",
"q  c #1B1E2B",
"w  c #261D24",
"e  c #1D2125",
"r  c #1B2629",
"t  c #1D222C",
"y  c #1C3528",
"u  c #1E2332",
"i  c #1D2839",
"p  c #222325",
"a  c #2C2224",
"s  c #232B25",
"d  c #22252C",
"f  c #2B252A",
"g  c #242A2B",
"h  c #2B2B2D",
"j  c #35262A",
"k  c #34252C",
"l  c #3C2B2D",
"z  c #293628",
"x  c #35372C",
"c  c #232632",
"v  c #252934",
"b  c #2A2C35",
"n  c #222638",
"m  c #252B3B",
"M  c #2A2D3A",
"N  c #352A34",
"B  c #3B2C33",
"V  c #2D3334",
"C  c #243A34",
"Z  c #2B3B33",
"A  c #2D323C",
"S  c #363736",
"D  c #32343C",
"F  c #333A3C",
"G  c #432B2D",
"H  c #4B2E2C",
"J  c #51322D",
"K  c #432D33",
"L  c #492C30",
"P  c #443334",
"I  c #473438",
"U  c #4B353A",
"Y  c #4B393C",
"T  c #533638",
"R  c #543C3D",
"E  c #2B421E",
"W  c #2C422A",
"Q  c #36482A",
"!  c #3A532B",
"~  c #2D4635",
"^  c #384738",
"/  c #3C5436",
"(  c #59413D",
")  c #455738",
"_  c #495338",
"`  c #4A6537",
"'  c #506F34",
"]  c #546839",
"[  c #68663A",
"{  c #1D2841",
"}  c #282D41",
"|  c #2D3343",
" . c #29364A",
".. c #2D354A",
"X. c #323543",
"o. c #343A44",
"O. c #3A3D44",
"+. c #333649",
"@. c #353C4B",
"#. c #393D4C",
"$. c #2B3B53",
"%. c #343D52",
"&. c #3A3F52",
"*. c #313D5A",
"=. c #4D3943",
"-. c #553D43",
";. c #3C4446",
":. c #3C414D",
">. c #3E5140",
",. c #2D4157",
"<. c #3C4354",
"1. c #33435B",
"2. c #384758",
"3. c #3C455A",
"4. c #3C495A",
"5. c #384A64",
"6. c #3C536C",
"7. c #3D5978",
"8. c #42454C",
"9. c #444B4B",
"0. c #5C4343",
"q. c #574449",
"w. c #475745",
"e. c #57544D",
"r. c #414553",
"t. c #434A55",
"y. c #4A4B54",
"u. c #414759",
"i. c #444B5C",
"p. c #494E5B",
"a. c #47515B",
"s. c #4C525C",
"d. c #51545C",
"f. c #565A59",
"g. c #644946",
"h. c #6A4C4B",
"j. c #734D47",
"k. c #6A504D",
"l. c #78554B",
"z. c #6D5656",
"x. c #775A55",
"c. c #4A6644",
"v. c #546847",
"b. c #587549",
"n. c #596657",
"m. c #587651",
"M. c #616B4F",
"N. c #667B49",
"B. c #79625A",
"V. c #697A58",
"C. c #454E62",
"Z. c #494F62",
"A. c #475161",
"S. c #4C5364",
"D. c #495569",
"F. c #4D566A",
"G. c #4E5A6B",
"H. c #515564",
"J. c #535A64",
"K. c #555967",
"L. c #545B6C",
"P. c #595E6D",
"I. c #4A5974",
"U. c #545D72",
"Y. c #585F74",
"T. c #735E60",
"R. c #57616C",
"E. c #5A626C",
"W. c #48617C",
"Q. c #556173",
"!. c #5B6374",
"~. c #586677",
"^. c #5C667A",
"/. c #5C697B",
"(. c #65646A",
"). c #707467",
"_. c #616673",
"`. c #646A74",
"'. c #676B7A",
"]. c #636B7C",
"[. c #667078",
"{. c #6C737E",
"}. c #74757B",
"|. c #815E4C",
" X c #815B53",
".X c #876558",
"XX c #946B58",
"oX c #9A735C",
"OX c #A0725D",
"+X c #8E7268",
"@X c #8C746B",
"#X c #9B7965",
"$X c #A57964",
"%X c #68853D",
"&X c #68874B",
"*X c #728F4D",
"=X c #6A8553",
"-X c #688D54",
";X c #738A58",
":X c #789858",
">X c #7BA257",
",X c #7A9662",
"<X c #839559",
"1X c #8DAD56",
"2X c #86A55A",
"3X c #8E9171",
"4X c #A58975",
"5X c #89A863",
"6X c #97B76B",
"7X c #94B06E",
"8X c #A2BD74",
"9X c #9AC45D",
"0X c #9EC16B",
"qX c #A5C475",
"wX c #B1CE77",
"eX c #3D6792",
"rX c #4F6E91",
"tX c #646E81",
"yX c #6C7483",
"uX c #6A7687",
"iX c #727A84",
"pX c #747986",
"aX c #737C8B",
"sX c #6C7892",
"dX c #737D91",
"fX c #4671A1",
"gX c #77838C",
"hX c #7B838C",
"jX c #7B8493",
"kX c #7B8695",
"lX c #8A8C8B",
"zX c #838A95",
"xX c #848C97",
"cX c #8A949B",
"vX c #AB9784",
"bX c #9EB786",
"nX c #AAB587",
"mX c #8A96A3",
"MX c #939CA5",
"NX c #97A3AF",
"BX c #9AA5AC",
"VX c #A4ABAD",
"CX c #A7B1B5",
"ZX c #A9B0B3",
"AX c #B2C886",
"SX c #BAD786",
"DX c #C2DD89",
"FX c #CCE58F",
"GX c #CBE496",
"HX c #CCE4A2",
"JX c #AFBAC4",
"KX c #B7C4CA",
/* pixels */
"4.4.2.4.4.2.2.I.rX6.5.1.*.*.,.6.rXrX5.1.*.*.*.5.rXrX5.%.%.$.1.1.6.rXrX5.*.,.5.7.7.%.*.%.@.@.1.W.rX5...@.$.%.1.4.rX6.4.2.2.<.2.<.",
"#XoX4 $Xl.j.g.2.5.nX4XXXXXXXXX( W.I.4X4X.X.Xl.@X<.fXzXvX4XvX4X@XB.1.rXlX#Xz..Xz.$.vX4X#X|.j.j.| 7.4X#Xl.B.0.x.N eXQ.3XU g.g.p g.",
"oXj.1  X-.L G 5.1.4Xx.R j.j.K k W.G.#Xl.Y z.l =.M fXlX.XT x.-.P k.| ~.@Xh.L h.0.w 4Xx.g.R J J | 7.#Xk.B q.l I 1 rXQ.oXB ( ( w L ",
"oXl.w l.0.G j 4.*.$X.XN g.g.K k W.S.#X-.l g.B -.c eX}.l.l 0.I Y k.M Q.@Xh.K h.-.1 @Xx.-.U G H D I.4Xh.a q.l -.1 eXL.XXP R g.1 T ",
"oXl.a l.0.L l %.$.oXx.N g.g.K k 5.:.XX0.I q.k =.d rX(. Xl g.B P R d i.+Xl.G h.R 1 @Xg.U B G H b @.+Xg.w q.N U w ,.r.XXP L R 2 T ",
".Xj.a j.P P B  . .oXg.N 0.B N w q b .X( B q.a =.7  .(.l.B g.K B Y : m .Xh.l h.U , +X0.U k G J , : .Xg.a q.a Y w = I  XB U T 2 T ",
" Xj.a j.Y l B  . .$Xx.f g.q.k w $.o..X0.Y q.a =.9 6.T.l.l h.P l -.8 ,..X0.l h.U , B.R Y k l T , : |.g.k Y a =.p 0 S  XB R R a T ",
".Xj.a h.U U N  .{ OXB.h 0.Y N w i b .X0.=.e.k -.w } T.l.k 0.P l -.:  .x.0.l h.I , x.U Y h K P & $ l.0.j U j =.f   B .XS 0.R a T ",
".Xg.j j.B K D O o $XB.f g.B B w X 1 .Xg.Y q.a q.w   z.x.w R P G q.+ + z.-.l g.K , z.U -.B l U & X l.( l I a =.a   N x.N -.U a G ",
"g.U 2 0.N k N . X l.q.1 0.I k &   , g.l N B w =.,   e.U w R B l Y + o z.-.j P l - =.a l w a I & . g.B w P 1 P p   a k.w G k w L ",
"*X%X%X%X' ' ' ' ` ` ) / / Q ! ! / ) ) / Q ! Q ) ] M.] ] ] N.[ ] ` ] ` M.N.*XN.<X<X<X<X<X;X=XN.` ` ` ! ! ! Q Q W Q Q Q Q W z 4 4 ",
"*X2X' %XE 4 z z z ; ; ; ; ; ; 3 s s p 3 ; 3 s 5 5 %X` ! ` ' ! Q 3 x ! ` ' *X&X*X:X*X1X2X&X) ] z / z s ; z z s s s 3 < ; # # @ @ ",
"<X1X&X` Q [.`.].'.* q % O X 8.hX].U.D.n X [.yX_.9.Z _ ^ 2Xb.C - #.r.b 3 ! ' &X:X5X5X6X5Xc./ ! z x ; - o A r.s.K.t.<.| $         ",
"b.) ` z V cX[.aXQ.t yX{.O.- pXzXtX!.U.#.o.aXU.C.p.| d ).` ~ + v G.F.i.| : ^ W / v.&X5X:X/ z - = ; 8.d.(.t t H.L.m <.X.$         ",
"y.8.V r 6 `.]./.<.<.mXpX_.M }.dXtXI.F.C.G.].!.i.| @.* 8.V s X A.L.!.L.u.M 9 ; ! *XN.N.^ r *   O J.aXyX`.K.6 b p.o.#.A o o : :   ",
"VXL.@.X.#.q L.Q.n dXaX`.P.p.9 uX/.Q.U.v ].].!.A.<.<.> 7 d : X `.Y.Q.L.i.&.q 6 s ! Q Q h : O   + jX^.U.K.F.<.M + c 9 * o._.t.v . ",
"mXF.^.Q.^.X.A o.* Q.sXP.K.r.+ d F.C.&.!.^.S.i.i.u.X.g iXaXL.q t u.C.4.<.| * Z.F s w./ > $ $ + $ aX!.L.F.S.@.<.<.t   O.A.r.&.n : ",
"aXaXyXtX^.| 9 d.O.} ^.F.S.c s.o.: 7 $ L.`.u.u.<.r.q xXyXQ.S.u.% c X.| | q M <.6 6 ] ) < % * q + :.P.S.A.t.:.!.#.@.+ 8.i.@.+.b + ",
"6 R.G.`.<.v iXzXdXK.d <.r.o.S.U.kXjXiXd o.r.#.+.M 9 mXQ.S.S.u.q > 9 d d > i.y.| } Z Q O c X.:.D 9 | #.@.@.'.u.%.m O h r.X.A n - ",
"p A X.9 9 pXpX]._.L.d $ O.v C.jXjXjXaXi.+ : 6 9 - + L.Q.L.i.:.c t.:.O.O.e ;.;.M m 9._ : 7 @.r.r.b g o.b A G.2.| m M - v X.D q > ",
"O.8.V   f.JXyX].P.H.q : b : `.BXdXuX/.L.: f.BXMXzXhX| v @.X.| : s.9.n.n.M.Q ^ 9 O $ * b | u.<.:.v `./.Q.r.t 8 r.aXpXS.: X $ -   ",
"KXJXNX@.d.MXpXY.L.S.b VXVXP.7 E.kXcXxXt.V ZXjX^.!.!.<.9 #.X.9 f.J.e.AX3XnX:XN.b.x + > E.p.K.K.A Y.^.!.F.S.#.b jX!.F.L.p.d 8.r.t ",
"MXkXuX].9 ^.jXS.K.X.MXcX].`.@.6 u q 0 $ (.MXyX].!.L.#.A /.| ;.lXlXnX8X6X0X2X&X' ) g g K.A.S.p.v ].L.K.K.L.a.D yX].S.i.<.e c i.b ",
"kXjX/.^.c M jX^.@.: cX!.Q.P.i.L.a.a.#.v d.zX`.'.L.S.| c 2.q c m.7X,X;X<X:X*X5Xb.z e * :.i.t.i.M ].L.S.L.A.r.V !.<.A.<.@.d - X.c ",
"kXuXtX].r.t d L.<.- hXU.U.S.o.A.Q.S.@.t D {.L.K.S.A.o.t ..t :.w.) c.w.^ ) N.&X! 3 o   b o.r.t.7 S.S.A.S.#.e - p.Z.<.<.X.:   $ : ",
"y.`.`.p.A O.A d $ o y.t.r.<.q @.| M q t : A d.p.<.A * - u e E.s.< b D g g ) ! 4 ;     < 7 t e + > d g b : +   9 @.M c : o < p < ",
"D F b < cXCXyX`.X.+ y.d.M O.: : y.CXVXCXZX[.$ : + X P.E.`.d t.A.X.e g > : - ) 3       : :.L.<.K.p.<.* hXpXs.#.y.r.b $ + (.}.8.< ",
"hXaX`.:.NXdX^.Y.<.lXMXzX!.pXS.9 mXmXI.Y.tX^.n D v `.NXjXaXL.A t.r.q - - : g ^ >   +   t m i...<.C.4.} ].F.<.].K._.Z.X.b `.#.#.9 ",
"kXyX{.@.NXuX].!.t.}.zXaXyXyXZ.9 ^.C.I.~.U.C.t M c `.`.].F.P.X.v t.iX}.(.9 ^ ^ -   - O X.i.u.@.u | %.n ].S.<.{.P.S.S.X.b `.+.+.w ",
"yXL.L.v uXtXtXU.r.(.'.K.S.&.3.: S.U.F.F.C.<.t #.q E.P.U.F.L.r.t mXaXtX^.r.9 c $ : b * | <.2.i.| : v u F.i.<.yX<.p.i.M < i.#.b : ",
"yXY.].u.d Q.yXE.X.d.!.i.Z.&.} $ t <.i.&.@.c t.].@.A S.!.S.p.X.8.dX/.~.Q.L.: : q u X.% v i.4.<.@.% * q v M | '.r.A.@.9 - 9 9 : + ",
"aXyXyXK.m 9 r.#.7 v u.r.p.| @.zXhXi.t : * :.aXyXL.:.c H.S.r.b 8.xXQ.U.L.A.$ X * u 6 $ M #.| ..d b zXdX'.o.7 p.#.@.q g `.P.d.8.+ ",
"zXdXyXS.#.h S p 9 : b V h X `.zXtXU.%.* F jXpXK.S.].E.O.9 - + 9 F.yX!.S.u     7 <.v : c X.M M * jXaXL.!.:.+ + $ +   y.{.H.8.X.q ",
"yX].^._.H.BXjXaXy.g NXjXkX#.#.yXQ.S.4.v A aX^.K.jXgX{.K.7 F jXjXA | b 9 u !.{.K.u e $ q v q 7 $ L.L.A.i.v g iXgXaXi.b L.Z.#.X.n ",
"tXyX].J.zXY.F.S.&.D uXU.U.U.q <.C.u.i.q : P.L.R.yXK.A.<.o.xXmXaXyX;.o O.R.Q.Q.J.i.A % P.d.A : 9 <.p.i.:.b `.Q.F.S.u.v X.r.#.M c ",
"O.:.A tX].K.p.A.r.D aXQ.D.C.A.7 m M <.u.t.q o.S.p.i.<.@.t.BXyX!.R.K.9 `.F.F.S.<.:.A % X.F v t #.t A r.t r.jXK.A.<.#.X.q d b h d ",
"8.lXr.'.yXS.i.i.r.A yXL.F.S.A.n $ a.K.D.F.<.7 p.t.<.#.v o.MX].L.L.a.9 a.A.<.u.u.<.F ^ e ^ b :.t.o.d $ O O.P.i.i.#.<.<.9 - - - + ",
"J.cX`.p.i.#.@.#.b d ].S.C.A.a.q - H.C.4.4.<.6 - g o.c : q dXyX^.U.M - M t.m X.A V.).3X=X=Xw.>.9.F A :   X.!.:.@.| A X.% b b O.9 ",
"@.u.S.H.b g F V h - t #.M #.q n.v.^ ;.D O.c V f.h X   + O 9 p.<.X.% u : M v w.3XSXGXHXAXAX3Xm.) F z 3   X : d v v c c 9 b b 9 X ",
"e d p p g BXBXzXhXf.s n.V.8X,XbX5Xb.m.b.=Xc.=Xv.^ g cXMXgXH.: + 9 * t 8 : 9 ,XSXSXSXSXqX7X:Xv.^ Z z ^ e V o.F A d c : O + $ +   ",
"ZXZXxXd.V hXE.s.p.).AXGXFXFXDX8X6X5X6X:X5X<X:Xm.v.s.'.J.A.A.@.X.F.!.].p.9 S bXwXAXwX6XqX-Xb.w.z Z g e + 7 A F A b A p 9 P.y.D o ",
"MXMX`.L.h aXK.s.p.;XwXSXSXwXqXqX1X5X7X,X=X` b.c.^ o.J.S.u.<.v K.i.!.A.r.n n.7XqX8X7Xb.m.c.^ r 7 e r : . . > V v m A d V p.X.v - ",
"mXxX/.E.: s.J.y.o.M.:X5X;X:X:X&X>X=X=X:Xm.^ ^ ~ F 9 M t.<.A <.L.C.p.p.r.q _ v.=X:X:Xv.s z 7 * - $ *   % : + > d n b < 9 =.D M + ",
"kXE.i.d V :.b D S V.] c.3 ) b.c.&Xv.n.w.r ~ Z > 7 : d o.X.t H.S.u.4.u.@.q >./ W N.*Xw.r : * 7 $ + $ 9 u | $ . + $ 9 X.d q d c : ",
"A  .m {.MXaXp.: p v./ ^ S 3 y W / e.w.Z * r = > . O + d t * i.p.<.<.@.v : ^ z s :X2X^ >   X O : n } ..+.+.9 O d c <.p.i.q % 9 $ ",
"> A L.tX!.^.p.M e M.n.w.w.p + X O z ^ *   # @     . d L.S.o.t A X.A c q a.#.c g v.` F 7   q 7 9 } %.| | +.9 K.H.i.r.i.<.v % +   ",
"VX!.@./.U.L.:.b v d f.n.F d +     x F @   . . . $ X !./.K.A.v 7 i.K.;.d t.y.o.A 4 x s   O m q * m #.@.+.| : s.L.i.<.r.:.c d F : ",
"cX].K.<.u.:.A {.<.q y.n.@.M o * : - e >   9 6 : % $ ^.^.p.u.A {.mXuXyXE.7 A d r w.) s . $ : b v 7 7 } M : - * r.#.o.| M M <.7 & ",
"cX^.^.t.q v _.p.<.q v v o.c t.kXP.A $   % X.| | M 9 t.L.a.4.a.mX!.S.a.S.9 - D 9 ) ] _ : $ :.L.L.p.t $ d `.^.u.9 9 q q 7 L.%.} : ",
"jXQ.L.<.6 [.S.<.%.@.cXF.n e NXkX].S.#.: D S.i.C.i.K.c 9 d 9 `.L.A.p.u.4.t R.tXC.s ) ) + : K.U.S.C.u.* iX!.F.S.F.M $ 6 c <.m } 9 ",
":.L.L.@.6 L.<.<.t.r.mXI.| V yX!.S.i.r.: o.S.u.i.4.<.D = 8 v ].S.<.<.<.| M sXD.S.| v.` ; 9 A.K.p.<.<.* jXD.Z.C.3.&.n O u o.m m 6 ",
"< b d * + D c q * D sXD.| d ^.!.J.@.A O b S.<.<.X.X.b = 0 9 !.<.| @.M u M sXD.A.%.) s ; $ | <.u.+.7 $ S.S.C.i.%.@.c * 6 + % 6 : ",
"cXMXkXyX7 b yX!.@.> A b b p t b b O.9.O.D v c A u 9 A _.`.d.d t * 9 9 $ d sXF.S.<.^ z - 9 9 % - D E.(.t :.u.#.A n % $ : , d.d.;.",
"iXaX]./.p.o.uXtX2.t + E.xXyXS.n g kXjXjXuXS.% o   8.VXuX].^.:.- y.hXhXK.q #.S.4.} 7 b m <.%.v - _.!.p.X.9 9 M <.X.O   , zX'.H.r.",
"hX`.A.4.M 9 Q.3.2.| #.yX~.D.$. .A Q.G.S.D.4.9 | 6 yX[.F.S.C.o.i.tX^./.S.:.: u 7 : s.M #.4.<.| : r.r.#.#.c * %.5.*.%.n h hXK.i.: ",
"K.t.<.X.% 7 @...| u @.a.i.C.1.} $ i.a.p.A.m 6 6 $ X.L.i.i.<.c t.^.D.F.4.&.9 i.i.$ @.i.2.3.<.n $ n #.M d v t...} ..1...v S.#.#.b ",
"> b V x w._ , > ) c.V.n.w.F @.t d t D o.O.e s.{.R.o.V b o.X.$ t C.3.i.%.A aXmXU.i.% t  . .} 6 + $ - 7 : ].Q.5.} - 6 9 X : 9 9 9 ",
") V.3XSX6X2X^ 3X9X9X9X*X&Xw.^ Q N.w.g : - s.S.G.R.uX<.+ . < g > 8 ....0 i.aXG.C.%.n + : : = n ..<.M : = G.3.2.M u $ t Z ^ 3 .   ",
"8XSXGXGX6X0X:XqXwXDXwX2X*Xv.m.;Xv.w.h <   9.A.4.i.A.| : : 9.D.2.q $ X X @.<.@. .| o.[.xXiX<.q | #.i 2.$ u M A n A a.~.c./ ! # O ",
"wXwXDXqX2X5X:X,X5XqX6XN.b.~ ) v./ n.w.s   p ;.t @.@.| : % D <...m 9 + O X 9 M M b cXCXMXgX2.i * A M A.m + + + O.jX].!.w.^ Q 3 f ",
"6XqX,X=X&X:Xb.v.v.;X;X^ / W g Z ^ 9.^ Z s / v.Z b b $ < + $ e v w.v.c.^ -   X * [.gXgXA.4.@.t   * q c d :   O.gXG.A.p.A V 3 @ @ ",
"*X,Xm.b./ / ^ ~ ~ Z ~ z > > e g ; V z z ~ 3 x 3 X .       - Q Q ;X=Xv.W h +   p [.E.R.E.:.7 $     X - -   O C.2.4.:.| 9 : < : o ",
"^ ;.Z > Z Z - * g + = 9 - + + O - $ d > ^ * = -         ; ) ] V./ ^ ^ s > $   p g V V 7 D 9               . X.v c + $ $         ",
"7 7 7 = = = = * = = = = = = * = = = 7 = 7 = = = * = = = r Z ^ ^ ^ e e : : : * 7 > 9 9 7 t = * * * * * * * * : = = * * * * * * * "
};
