/* XPM */
static char *_ab20c94816041fbd1f04bc5bf6f2f60J3ubjR8vC6kzxLVE[] = {
/* columns rows colors chars-per-pixel */
"64 64 239 2 ",
"   c #0E0D16",
".  c #12121E",
"X  c #1C141D",
"o  c #131423",
"O  c #191B28",
"+  c #191C2D",
"@  c #261C24",
"#  c #331F20",
"$  c #1A202E",
"%  c #1D2336",
"&  c #272228",
"*  c #2B252C",
"=  c #342324",
"-  c #3A2524",
";  c #372827",
":  c #352A2C",
">  c #3B2D2C",
",  c #3C302E",
"<  c #272835",
"1  c #232A3B",
"2  c #332C34",
"3  c #3B2E33",
"4  c #332E3A",
"5  c #2F323F",
"6  c #3D3233",
"7  c #363438",
"8  c #34323D",
"9  c #3B353C",
"0  c #4A312B",
"q  c #49342E",
"w  c #423433",
"e  c #4B3A37",
"r  c #43363A",
"t  c #433B3E",
"y  c #543C35",
"u  c #563D39",
"i  c #4D413D",
"p  c #5C4235",
"a  c #57453C",
"s  c #5C433C",
"d  c #64483A",
"f  c #6F543B",
"g  c #2C3646",
"h  c #323442",
"j  c #3C3C45",
"k  c #363B49",
"l  c #2D3B50",
"z  c #453D44",
"x  c #3C404C",
"c  c #2E445A",
"v  c #394558",
"b  c #2B4A65",
"n  c #384D64",
"m  c #3D566B",
"M  c #3B5B77",
"N  c #39617D",
"B  c #4B4344",
"V  c #454349",
"C  c #4C444B",
"Z  c #4E494C",
"A  c #544543",
"S  c #584845",
"D  c #544B4C",
"F  c #5C4C4B",
"G  c #5C514C",
"H  c #494A56",
"J  c #534B52",
"K  c #574B53",
"L  c #4B525B",
"P  c #5C5354",
"I  c #56565A",
"U  c #5A565B",
"Y  c #624641",
"T  c #644B43",
"R  c #694B45",
"E  c #624E4A",
"W  c #64534B",
"Q  c #695648",
"!  c #6A544C",
"~  c #755949",
"^  c #635453",
"/  c #6B5B53",
"(  c #675A59",
")  c #735D56",
"_  c #7C624D",
"`  c #6C625B",
"'  c #7B6454",
"]  c #74635B",
"[  c #78665A",
"{  c #454D61",
"}  c #485768",
"|  c #575B66",
" . c #485D74",
".. c #515C76",
"X. c #625E64",
"o. c #57646B",
"O. c #486379",
"+. c #556776",
"@. c #5B6B74",
"#. c #5C6C7A",
"$. c #58717A",
"%. c #646364",
"&. c #686668",
"*. c #6D6B6C",
"=. c #786A65",
"-. c #746C6C",
";. c #6F706A",
":. c #7A726B",
">. c #656B75",
",. c #736D72",
"<. c #69737C",
"1. c #747273",
"2. c #7A7675",
"3. c #7B7C7B",
"4. c #825F4F",
"5. c #8B6D57",
"6. c #836A5A",
"7. c #836D64",
"8. c #877469",
"9. c #937A68",
"0. c #847B73",
"q. c #877A76",
"w. c #937E74",
"e. c #878178",
"r. c #8C837B",
"t. c #998679",
"y. c #A28A7C",
"u. c #486B83",
"i. c #536C83",
"p. c #597388",
"a. c #557990",
"s. c #677786",
"d. c #6C7B84",
"f. c #757D85",
"g. c #657B90",
"h. c #827F89",
"j. c #5C859A",
"k. c #6A808E",
"l. c #788288",
"z. c #668596",
"x. c #778A96",
"c. c #75919C",
"v. c #7B929B",
"b. c #5D89A0",
"n. c #7B98A3",
"m. c #878887",
"M. c #968B85",
"N. c #8B908F",
"B. c #8B9699",
"V. c #989B97",
"C. c #939B9C",
"Z. c #A39689",
"A. c #A79488",
"S. c #9CA19C",
"D. c #A3A39C",
"F. c #AAA69C",
"G. c #849BA3",
"H. c #879BA7",
"J. c #959EA1",
"K. c #8CA2A6",
"L. c #86A3AB",
"P. c #8BA4AB",
"I. c #8DA9AF",
"U. c #98A5A6",
"Y. c #94ABAE",
"T. c #8BA7B3",
"R. c #8DABB2",
"E. c #92ADB3",
"W. c #99ADB3",
"Q. c #8EB1B9",
"!. c #94B1B5",
"~. c #9BB3B4",
"^. c #94B3BA",
"/. c #9CB5BA",
"(. c #9EB9BC",
"). c #A7AAA7",
"_. c #B1AEA9",
"`. c #A6B1AB",
"'. c #ACB2AC",
"]. c #B6B6AC",
"[. c #A4ACB3",
"{. c #A6B5B6",
"}. c #A3B9B6",
"|. c #A4BBBC",
" X c #A9BDBC",
".X c #B4BBB3",
"XX c #B6BAB5",
"oX c #CFBFA6",
"OX c #AAC1BE",
"+X c #B7C2BA",
"@X c #BCC4BC",
"#X c #C6C8BA",
"$X c #C4CABD",
"%X c #CDCFB9",
"&X c #96B8C1",
"*X c #A4BDC1",
"=X c #A9BFC0",
"-X c #A9C4C4",
";X c #B4C6C3",
":X c #B7C9C6",
">X c #BCCBC5",
",X c #BFD0CA",
"<X c #C3CDC4",
"1X c #C7CEC5",
"2X c #C4D2C6",
"3X c #CCD3C4",
"4X c #CED9C7",
"5X c #C5D3CB",
"6X c #CAD6CC",
"7X c #CCD9CE",
"8X c #D6D7C8",
"9X c #D2DBCD",
"0X c #C9D5D1",
"qX c #CDDBD1",
"wX c #D4DDD3",
"eX c #DADED3",
"rX c #E2DEC9",
"tX c #DAE1CE",
"yX c #D8E2D6",
"uX c #DDE3D5",
"iX c #DEE5D9",
"pX c #E4E3CE",
"aX c #E3E5D5",
"sX c #E7E9D4",
"dX c #E2E6DA",
"fX c #E4EADB",
"gX c #EAEDDD",
"hX c #F1EFDE",
"jX c #EDF1DE",
"kX c #F1F3DE",
"lX c #F6F8DF",
"zX c #E5E9E1",
"xX c #EBEEE1",
"cX c #EDF2E2",
"vX c #F3F5E3",
"bX c #F6F8E5",
"nX c #F9F9E5",
"mX c #F6F8E8",
"MX c #F9FAE9",
/* pixels */
"  ; > > > > > - = = = = = = = = = = = = - - ; = = = - > ; ; ; > > > : : > : - - - - - - - - - = = = = = = - ; = ; = = = = = = # ",
"  o o o o O o o . . . . . . o o o o o o . o o o o o . o o o o o . o o . . . . . o . o o o o o . . o o . o o O o o o o o o o o o ",
"  O 1 1 1 . % % $ O + O + % $ o % % 1 o o 1 $ 1 o o 1 % % o O % % % o 1 1 1 $ . 1 % 1 O o 1 % 1 O . + O 1 o O < & O o o $ + +   ",
"o k z.j.z.1 u.b.j.O.$ i.j.j.O.1 z.k.z.g g z.z.j.c x j.j.j.% m j.b.a.< i.z.z. .O g.j.j.m g z.z.z.g g g.g.g.g } j.j.i.& } j.j.a.% ",
"p I 6X9X<XQ x.9X9Xm.6.B.9X9XV.S {.3X3X&.( ;X9X4X:.U 7XwX+X] >.6X9X[.~ x.3X6Xm.W U.9X9Xm.` +X8X1X:.H ;X$X%X` <.4X9XC.6.s.$X9X).s ",
"d %.bXnXxX[ ).nXnX].9.J.nXnX#X! fXnXnXq.( iXnXnXZ.,.MXnXxX7.3.vXnXaX' {.nXvX_.! XXnXbXXX] dXnXgXt.J kXnXMXm.m.nXnX<X8.<.bXlXpXR ",
"d %.vXnXgX[ ).nXnX].9.V.nXnX#X/ hXnXMXq.( uXbXMXZ.:.MXnXgX8.3.nXnXaX6.XXnXbX_./ .XnXnX].[ gXmXxXt.Z kXnXMXM.M.nXnX<X7.f.bXnXpX/ ",
"d %.kXlXgX[ _.nXbX].9.D.bXnX%X/ hXnXMXe.] sXnXbXZ.0.nXnXjX8.3.nXnXdX6.XXnXnX_./ XXnXnX].[ gXbXkXt.Z kXnXMXM.M.nXbX1X8.l.nXnXuX/ ",
"d E oX%XoX' D.rXrXD.9.M.rXpX]./ 8XpXaX0.[ 8XpXsXZ.:.sXaX8X=.:.aXaX3X' F.sXpXF.~ ].sXpX).[ 8XpX8Xt.S rXaXgXe.t.8X8X_.8.2.pXaX8XQ ",
"d w F U ( d z ( ( z 9.z ( &.P s ^ ( &.F W D | &.F t | &.| ' 9 U >.| f z | X.J T C U X.J s U &.&.' > J X.*.S z K ( C 6.2 P &.I p ",
"d ` sXsXrX~ C.sXsXV.9.U.pXaX).W 8XaXaX=.` 9XfXfXr.-.zXfX9X' 3.aXfX1X~ [.fXdXV.E .XfXfXV./ wXsXwX8.Z uXfXxX:.h.dXfX].6.s.aXfX$XT ",
"d X.nXbXgX' ).bXnX].8.).bXbX#XW gXvXmX0.( aXnXbXZ.:.MXmXgX[ 3.vXbXdX~ XXMXbX_.E .XnXbX_.) zXbXgXr.Z fXvXMXq.m.bXbX$X4.f.vXvXeXW ",
"d U vXvXgX' U.nXvX_.8.S.vXvX#XW gXvXMX0.` uXvXbXZ.-.MXbXgX=.1.vXbXdX' XXnXvX_.W ].bXbX_.( dXnXgXr.B sXvXnXr.q.bXbX$X' <.kXvXeX! ",
"d %.jXvXgX[ ).bXvX_.8.V.vXvX#X/ xXvXmX0.( eXvXvXZ.:.nXvXgX=.*.vXvXdX' ].bXvX_.W ].bXbX_.] dXvXxXr.t sXvXnXr.q.vXvX$X=.<.kXvX8X! ",
"p U gXkXgX' ).bXkX_.9.V.kXkX#XQ gXvXvX0./ 8XvXvXZ.=.nXvXgX[ ,.vXvXuX' ].vXkX_.W '.vXvX_.] aXvXgXt.B sXvXbXe.e.kXvX#X[ 3.jXjX8X! ",
"y p 8.9.w.Q =.t.t.) 9./ 9.w.7.d t.t.t.! Q w.t.y.' W A.A.y.' E t.t.w.~ 7.t.y.[ R =.t.t.=.~ t.t.t.6.w 9.w.t./ / t.t.[ 6.S 9.9.8.d ",
"p B <.d.f.s | f.d.{ 5.| f.l.%.S d.f.f.J S <.3.l.! Z s.f.s.~ H <.d.@.R ..l.l.} f | d.f.} E <.f.<.) 9 d.l.x.W J d.d.} 6.x <.l.>.p ",
"s I gXfXaXQ C.vXcX).6.S.jXvXXXF iXvXcX-.^ wXvXcXt.%.vXvXwX) 1.cXcX0X~ W.vXvXV.T {.vXvXV./ yXvXiX8.V uXcXvX8.f.cXcX.X' <.jXjX1XY ",
"p I gXkXgX] ).vXvX'.7.U.vXvX#XW zXvXmX2.^ eXvXvXM.*.mXvXdX] 1.vXvXeX_ [.vXvX_.F .XvXvX)./ uXvXxXq.C dXcXbXr.f.vXvX>X[ d.cXjX9XW ",
"s ( cXvXxX] ).vXvX].7.).vXvX#X/ xXvXmXq.( uXvXvXZ.1.mXvXdX] 3.cXvXeX_ {.vXvX_.E .XvXvX).] dXvXgXq.Z fXvXvXr.m.vXvX<X[ f.cXcX8X/ ",
"p &.vXvXxX[ '.vXvX].6.).vXvX#X/ xXvXvXq./ uXcXvXM.1.nXvXfX] 3.vXcXeX~ '.vXgX).E +XvXvX).[ aXkXfXq.Z fXvXmXr.m.vXvX<X' 3.cXcXeX! ",
"p P #X$X@XW m.#X#Xm.6.m.#X%XV.F XX#X@X( F _.#X#X:.U ].].'./ U ].].S.f f.F.F.:.S N.%X8X3.W D._._.=.t XX3X8X=.-.#X#XV.~ o.$X%X_.s ",
"p P 4XtX2XE l.9XwXl.6.m.8XtXC.S $XwXwXX.F @XwX7X8.( qXwX X! %.3XwX.Xf G.6X7Xl.a C.uXuXm.W +X7X<X=.t %XuXuX=.,.8XeXU.~ &.wXwX.Xs ",
"y P fXfXuX] V.gXgX).6.V.fXfXXXW aXgXcX=.G 9XgXxXM.&.jXgXwX/ -.fXgX7Xf [.cXfXD.s '.gXgXD.` eXgXuX0.B eXfXjX0.1.fXfXXX~ >.dXiX2Xs ",
"y P uXaXuX/ D.fXfX).' V.fXsX].W aXgXcX-.W 4XgXfXt.=.jXgXeX/ *.fXfX4X~ '.xXfXD.s '.fXgXS.] eXgXuX0.z eXfXgX0.2.sXfX.X~ <.aXiX1Xs ",
"y J 3X%X#XW N.8X3XN.) m.3X3XF.E 1X3X3X&.E XX3X%X0.` 3X3X#X/ %.%X3XXXQ V.8X3Xm.p S.3X3XN.! #X3X#X:.t #X%X%X=.1.#X#XD.~ o.#X#X'.s ",
"y q G F G p A F S r 4.S ^ ^ F p ^ ^ E S s E P ( ! p ! F F / e E ^ J d A F F u p F G ^ V d ( P F ! 0 G ^ ( s S F F t ~ 6 Z K D p ",
"y v &XOX/.S s.OX|.p.4.l.:X:Xv.A *X;X-XI D ~.;X;X;.} OX XT.W | -X;XH.d x.-X:X<.a n.:X:X#.G *X:X/.` j ^.-X-XX.#.-X-Xc.~ O.-X-XL.i ",
"q I yXyXwX! C.dXuXU._ C.uXyX.XF eXdXfX-.D 6XiXuXr.*.fXfXwX^ *.uXuX6X~ W.fXdXS.a `.dXuXV./ qXfXyX:.j wXuXyXe.f.yXyX.X~ >.yXyX<XS ",
"q P yXuXwX/ V.dXiX).~ C.uXiX.XE uXdXfX:.G 6XaXaXr.*.fXfXwX^ *.iXdX6XQ [.fXiXS.u '.dXiXD./ wXfXyX:.j wXuXfX0.3.uXuX.XQ <.yXyX<XF ",
"y ( iXuXuX/ ).dXiX)._ ).dXiXXXW uXaXfX=.W 9XdXdXt.1.fXfXwX( 2.dXfX9XQ '.fXiXV.p .XdXaXD.] eXfXuX8.V wXuXfX0.q.fXaX.XQ f.iXiX6XE ",
"e D $X$X@XE l.1X$Xm._ l..X.XN.A )._._.G S D.'. X:.( XX+X'.W &.@X<X'.d m..X.X3.p N.@X@X3.W ).'.).] V U..X.X` &.XX;XB.~ >.@X<X'.A ",
"q Z <X$X+XT m.3X9XB.~ N.7X7XU.a <X4XwX( S @X7XqX8.U wX7X<XF %.<X6X Xa V.7X6Xm.y U.2X7Xm.F >X6X<X] j +X5X7X[ *.7XqXU.Q >.<X<X{.a ",
"q J 6X5X<XE N.7X7XC.~ x.7X6X`.a 5XqXwX&.A @X7XqX0.X.wXqX5XG *.2X6X@XW V.9XwXV.y U.7X7XB.W <X9X6X=.j >X6X7X:.>.7XqX`.R @.2X2X.XA ",
"0 J 6X5X<XW B.7X6XJ.~ N.7X6X`.A 5XqXqX*.S @X7XqX0.X.qX7X<XF &.2X2X+XW V.qX7XV.e U.7X6XB.W <X7X5X-.j <X7X7X:.,.6X5X[.T >.6X6X+XA ",
"> J 5X2X<XQ B.6X5XC.~ N.6X5X).S 2X7XqX&.S @X6X7X0.%.7X6X>XF &.2X6X+XT S.6X6XN.e U.6X6XN.! <X4X2X=.j <X6X7X;.1.6X5X`.d >.6X6X.Xa ",
"0 e 8.7.7.u ( q.8.^ ~ ^ 0.8.] y q.q.q.S u q.q.w./ S m.r.0.T S 0.q.:.d ) q.0.^ y =.0.q.( T 0.q.0.! 3 w.w.t.F P r.q.&.R Z q.m.2.e ",
"0 h #.O.O.r n +.O.l ~ n i.i.m e $.$.i.z t +.#.i.D k i.O.O.d v +.#. .p m i.$.v y { i.u.v a u.+. .F 2 O.O.u.V H O. .n d c +.+.} e ",
"0 H :X>XOXB k.>X>XN.! x.>X>XC.t *X,X5X| V }.>X@X:.} 5X5X XS +.:X>X{.p n.,X,Xl.e B.>X;Xf.Z *X,X;X] h |.;X:X%.>.;X@XU.R +.+X+XU.t ",
"0 H 5X5X>XD B.5X6XJ.! N.5X5X`.B :X0XqX&.V +X6X5Xe.| 6X6X:XF #.5X5X+Xs H.6X5XB.t J.2X5XB.D :X5X,X] k ;X,X6X:.>.2X5X{.E +.>X>X{.z ",
"0 H 6X5X,XG B.6X6XU.E B.5X5X`.Z >X6XqX*.C +X5X5X3.o.6X6X:XF >.5X5X;Xa H.6X6XB.r U.5X5XB.J :X6X5X=.k ;X5X6X2.>.5X5X{.T #.<X>X XB ",
"- L 6X5X5XD C.6X5XU.T B.5X5X`.Z 5X6X6X*.Z ;X5X5X2.&.qX6X>XS >.5X2XOXa H.6X6XB.w U.5X2XB.K :X0X5X=.j >X5X5X-.>.2X5X{.A >.>X,X XB ",
"- L 5X5X>XS N.6X6XC.T B.5X5X).i 5X6XqX&.Z ;X5X6X:.%.7X7X,XB >.>X2X+Xa H.6X0XN.w U.<X<XN.K :X6X5X=.x :X6X6X&.>.2X5X`.s >.>X<X{.e ",
"= x }.}.Y.B d. X|.x.Y d.}.|.B.9 }.*X-XI z E.|. X&.L =X X/.z | ~.}.Y.e x. X=Xf.3 x.{.{.l.Z W.}.|.( h Y.|.-XU | ~.|.G.u } }.}.K.6 ",
"= x /./.!.a f.}.(.x.d s.}.}.B.r |. X-XU z Y.}.(.%.L *X(./.e | }.|.E.y x.|.(.l.> x.}.}.l.A W. X(.( h /. X-X%.| }.|.G.s  ./.|.K.6 ",
"= x (.(./.A l.|.|.x.d d.|. XB.r |.-X-XI z ~. X*X&.L -X*X/.u o.|.*X!.y c. X|.l.> B. X Xf.B ~. X|.^ k |.-X-X| | OX XG.u +. X|.P.6 ",
"@ 8 ,.1.*.w I ,.-.D d J -.:.( 3 -.-.-.B r -.2.2.S z 2.2.-.e B 2.2.,.q I 1.2.P w X.-.1.D w *.1.,.S 2 ,.1.1.z z =.=.( y z *.,.&.: ",
"@ 1  . .} 2 c ....k s c  .M n *  .O.O.8 2 }  .+.z 8  ...m w k O. .m > n O.O.c > n i.#.l 9 O. .m z <  .O.O.h l O. .c 0 l O.+.n * ",
"@ k ~.~.Y.9 p.}.}.d.a p.(.(.c.4 E.|.*XL 9 E.(.(.| H |.|.E.r | ~.~.G.6 g.}.|.d.: x.(./.#.j T.&X^.J g E.~.^.} } /.}.v.e O.~.~.n.2 ",
"@ k (.}.~.z g.|. Xx.e s. X*XG.8 /.*X-X} 9 E.|.*X&.{  X X^.t | }.}.E.r c.*X|.l.: c. X|.d.V !.*X&XI h W.(.*Xo.| }.}.G.e  .(./.P.9 ",
"@ k |.|.}.z g. X|.x.e s. X XG.4 ~.|.-X} j W.|.*X%.L |.|.!.9 | }./.E.6 x. X Xl.: v.|.|.d.j E. X(.I h ~.(.*X| | }.|.H.r O.(./.I.7 ",
"@ k  X X|.t g.OX Xx.e k. X XB.4 {. X-XL j ~. X-X%.L  X X/.9 o.|.}.E.> x.-X Xl.: G. X Xd.j ~. X|.P k }. X-XI |  X XK.r +.|.*XE.7 ",
"@ h P.P.G.2 i./.!.p.e #.W.W.l.2 G.E.E.x 8 G.E.E.I v W.{.L.2 { P.E.c.: p./.E.@.* g.I.Y.#.j H./.P.Z 5 G.E.E.D { Y.Y.x.3 } I.Y.v.: ",
"O h R.R.I.7 p.^.^.k.w #.E.E.x.8 T.!.^.H 8 L.!.Q.U v /.!.T.2 } R.R.L.6 z.^.E.s.* k.E.R.s.j I./.R.J 1 I.R.Q.I n E.E.v.6 } E.I.n.2 ",
"O h I.R.I.9 s.!.E.k.w #.!.E.x.8 T.E.^.H 2 H.E.!.| { !.E.L.2 } R.E.L.3 z.!.E.s.* k.E.E.s.z P.E.I.J 1 L.R.R.I } E.E.v.3 } R.R.v.2 ",
"X 5 R.I.L.9 s.E.E.d.w #.!.!.x.2 T.!.^.H 4 H.E.!.| n ^.!.T.6 L E.E.L.> z.!.E.d.* k.E.E.s.j I.E.R.Z < L.R.R.L } E.E.v.3 } E.R.n.* ",
"X & C C V ; r J C 3 w r J J z * S K D 2 * J J L 7 4 K J J > 3 J H C ; C P P z * C L L z : J J C r @ J J J 2 3 C D z 2 3 J J V & ",
"X 1 O.u.O.* b u.O.c > b O.i.n * M O.u.1 < u.u.u.j g u.u.N * c p.p.O.: M a.a.n & m O.O.c 4 M M M 8 1 O.i.$.h l i.i.m * l O.u.m & ",
". g L.H.G.2 s.K.P.s.> i.L.L.k.* n.I.T.k 4 G.K.K.L H Y.I.G.* } L.L.n.: g.I.I.<.@ k.L.H.<.h G.I.L.V 1 G.L.L.H { L.P.x.*  .L.K.v.* ",
". g I.I.P.7 s.W.E.d.: p.R.I.x.< T.E.Q.V 4 L.E.Y.I v /.!.P.* } I.I.n.: g.!.R.s.@ c.E.I.s.8 T.!.R.V g I.I.E.L { !.E.v.* } R.E.B.* ",
". k ^.E.E.7 s.^.^.g.: p.^.^.x.< T.&X&Xx h R.^.(.| { &X^.T.< ..E.Q.T.: g.&XQ.s.& v.E.E.s.8 T.^.Q.V g ^.^.&XL } ^.^.n.< ..Q.Q.L.* ",
"  < @.o.o.* v #.+.v & x @.@.} & o.@.@.8 * @.#.#.x k <.#.o.& j #.#.+.* L #.+.H O L @.@.H * o.#.+.2 < +.@.#.7 h @.@.} O k +.o.| & ",
"  = : > 6 6 6 , > , > > , > , w w 6 > > , 6 6 6 w r w 6 3 : > > > , > , , > > = 3 6 6 6 6 6 , , : : 6 6 > , 6 6 > > : : > > , , ",
"  y y d Y T s d T R R R T Y T E T S Y T T R E T T T d T T T R d s d d s p s S S T T Y Y T T Y Y s s s Y T E E u s S s s s u p s "
};
