/* XPM */
static char *_ff76d8c95214b32f93d8628bc470c16ZhHJTaRAD4gVJazr[] = {
/* columns rows colors chars-per-pixel */
"64 64 248 2 ",
"   c #040305",
".  c #05050A",
"X  c #0A060B",
"o  c #07080D",
"O  c #0B0A0D",
"+  c #140B0D",
"@  c #1A110F",
"#  c #0C0C13",
"$  c #090C17",
"%  c #120D12",
"&  c #160E17",
"*  c #0D1017",
"=  c #0D121B",
"-  c #1A1214",
";  c #14131B",
":  c #171519",
">  c #1B141B",
",  c #241617",
"<  c #22161B",
"1  c #231A1B",
"2  c #2B1C1D",
"3  c #321E1D",
"4  c #2E211E",
"5  c #0E1424",
"6  c #0F1628",
"7  c #121523",
"8  c #1A1622",
"9  c #151924",
"0  c #1B1B24",
"q  c #171B2B",
"w  c #161B31",
"e  c #241C23",
"r  c #2B1D23",
"t  c #231B28",
"y  c #321E24",
"u  c #1C212B",
"i  c #1D2335",
"p  c #2C2224",
"a  c #24242A",
"s  c #2C242B",
"d  c #332324",
"f  c #3A2727",
"g  c #34242A",
"h  c #3C2B2B",
"j  c #3C302E",
"k  c #262836",
"l  c #2A2D3B",
"z  c #392A33",
"x  c #28313C",
"c  c #2E323C",
"v  c #38343A",
"b  c #442B27",
"n  c #432B2B",
"m  c #4C2D2B",
"M  c #552F2A",
"N  c #4A352B",
"B  c #4B322D",
"V  c #52332C",
"C  c #56382B",
"Z  c #462E32",
"A  c #443234",
"S  c #4B3434",
"D  c #4A3839",
"F  c #533532",
"G  c #533B34",
"H  c #533B3C",
"J  c #593C38",
"K  c #643D34",
"L  c #613D3B",
"P  c #56402E",
"I  c #5A4339",
"U  c #644235",
"Y  c #6A4335",
"T  c #63433A",
"R  c #6B443A",
"E  c #684A3A",
"W  c #6B4A3C",
"Q  c #754B39",
"!  c #78533D",
"~  c #151F40",
"^  c #172D4B",
"/  c #1A314E",
"(  c #1A3253",
")  c #1A3358",
"_  c #252D43",
"`  c #2C3343",
"'  c #2B354A",
"]  c #343543",
"[  c #363A45",
"{  c #3A3C45",
"}  c #343C4C",
"|  c #2C3954",
" . c #343D52",
".. c #363E55",
"X. c #4B3B43",
"o. c #553C42",
"O. c #3B424C",
"+. c #3C4354",
"@. c #374358",
"#. c #3C455C",
"$. c #3C4862",
"%. c #3F536E",
"&. c #494246",
"*. c #5B4443",
"=. c #574847",
"-. c #5D524B",
";. c #464957",
":. c #434B5D",
">. c #45505E",
",. c #4C525C",
"<. c #545158",
"1. c #644A47",
"2. c #744D44",
"3. c #64544C",
"4. c #6A5449",
"5. c #785648",
"6. c #734F51",
"7. c #695855",
"8. c #775C56",
"9. c #766152",
"0. c #79645A",
"q. c #434C63",
"w. c #444E68",
"e. c #4C5464",
"r. c #49546A",
"t. c #545866",
"y. c #535C6C",
"u. c #4C5973",
"i. c #525C73",
"p. c #695B62",
"a. c #57616C",
"s. c #5B6578",
"d. c #7B6661",
"f. c #656B78",
"g. c #6D7079",
"h. c #82533D",
"j. c #865B47",
"k. c #945E47",
"l. c #875D53",
"z. c #8A634A",
"x. c #94644C",
"c. c #98674B",
"v. c #886758",
"b. c #956957",
"n. c #946C54",
"m. c #9B6C53",
"M. c #957356",
"N. c #997459",
"B. c #9C745C",
"V. c #A46B4C",
"C. c #A9724D",
"Z. c #B4734F",
"A. c #A26C53",
"S. c #A76F54",
"D. c #A47253",
"F. c #AC7454",
"G. c #A4765B",
"H. c #AC755A",
"J. c #AC7C5C",
"K. c #B57956",
"L. c #B37C5B",
"P. c #BB7D5A",
"I. c #896B62",
"U. c #946D62",
"Y. c #8C7569",
"T. c #997865",
"R. c #937A73",
"E. c #A67A65",
"W. c #A37C64",
"Q. c #B37D63",
"!. c #AE825E",
"~. c #B6855C",
"^. c #BC835C",
"/. c #9A8371",
"(. c #A6836A",
"). c #AC846B",
"_. c #B48364",
"`. c #BB8463",
"'. c #BC8A64",
"]. c #B68669",
"[. c #B58A6C",
"{. c #BC8B6B",
"}. c #BB926C",
"|. c #A88873",
" X c #B38B72",
".X c #BA8D74",
"XX c #AD927B",
"oX c #BB9373",
"OX c #B8967A",
"+X c #C5875C",
"@X c #CA915C",
"#X c #C38B63",
"$X c #C68865",
"%X c #CB8C63",
"&X c #C38D6B",
"*X c #C4926C",
"=X c #CA9468",
"-X c #D4986A",
";X c #C68D70",
":X c #C69977",
">X c #D49A75",
",X c #C9A37B",
"<X c #D7A47A",
"1X c #536E91",
"2X c #687487",
"3X c #68768D",
"4X c #757B86",
"5X c #607BA2",
"6X c #59819C",
"7X c #728292",
"8X c #7B8797",
"9X c #748CA8",
"0X c #868C95",
"qX c #8C949D",
"wX c #919193",
"eX c #AE9883",
"rX c #B89B84",
"tX c #B9A58E",
"yX c #8795A8",
"uX c #959CA7",
"iX c #8D9FB0",
"pX c #99A3A8",
"aX c #8BA1B7",
"sX c #99A6B5",
"dX c #A7ADB4",
"fX c #A9B3B9",
"gX c #B0B2B3",
"hX c #C49C82",
"jX c #C7A788",
"kX c #D5AB87",
"lX c #D5B48F",
"zX c #C9AD94",
"xX c #D8B795",
"cX c #E2B48D",
"vX c #B8C4BF",
"bX c #D8C2A5",
"nX c #A8AFC2",
"mX c #A9B8C5",
"MX c #B5BDC4",
"NX c #B8C2C9",
"BX c #BAC6D1",
"VX c #C7CCCB",
"CX c #C3CCD2",
"ZX c #CAD3D7",
"AX c #D4D8D8",
"SX c #D3D9E3",
"DX c #DEE5E2",
"FX c #EEF0ED",
/* pixels */
"FXFXFXFXa l r.y.a.a.s.a.AXFX,.#.w.r.#.FXVXi w.r.r.qXFX0Xx >.e.e.dXFXFXFX#.r.w.w.q.DXAXu q.#.#.4XFX,.q.i.i.CXMXi $.$.#.f.FXFXFXFX",
"pXvX,.ZX0 { VXAXZXZXSXfXVXAXa.sXCXZX8XDXvX,.NXCXmXfXFX4Xf.NXVXfXvXVXVXZX:.CXZXZXqXAXpXO.CXZXCXuXDX,.dXCXBXZXsXO.NXNXfX,.SXs.dXpX",
"iX6XBXZX0 9 ..@.@.....| t.g.c ' @.@.} gX/.0 $.$.| 4XpXa.q } } ] f.f.f.f.q | @.@.@.pXf.9  .@.@.f.dX[ ] ;.;.0Xa.: } O.@.O.SXMX4X7X",
"dXaX8XfX0   o ; ; # u : # 0 O # 9 q O v s . 9 q = a v # . 9 q = 0 # # ;   * 9 0 # O.0   % ; * > a O = u ; ; ;   = 0 # k SX8XiXiX",
"dXfX8XsX0   * 0 0 = k i ;.g.v * i i a AX0Xo i l 9 qXfXc o u u u uXk } 8X; q l l u MXy.  u k q g.yX; = k 9 2X0XO 0 ` ; k ZX8XaXyX",
"# O O ; o . k ,.e.l y.y.f.wX&.l a.g.;.DX0X= +.s.i.dXVXO.k :.y.u.sXv t.nXi ` q.s.:.AX2X# c <.t.uXuXq { ,.,.4XqX; } y.i.7 a 7 # # ",
"4X4Xy.pXg.; [ f.t.;.g.t.g.gX&.l t.a.O.FXqXq e.f.e.fXZX;.+.f.f.:.pX[ f.BX` e.2Xg.+.SX4X0 t.f.,.pXMXu O.y.e.8XfX0 ..s.@.fXwXc 8X2X",
"2XmX+.ZXwX0 k ] k { ,.;.0XvX<.; +.#.>.FXuX# `  .x gXAX;.9 ' ` ;.VX{ 4XAX#.0  .:.+.DX7XO ` }  .fXCXi _ #.@.0XMXa u @.i SXwX+.0X8X",
"pX5XyXAX0X0 u k } g.;.] t.wX{ * l } } qXf.o q l k 8X4X+.# l ` :.uXk ;.uX .; k _ ` 0X2X. k ' ' uXqX_ ; k _ qXfXa w ' i AXwX4X1X3X",
"iXaX2XnXw 9 9XnXyXf.;.] ; s l f.MXVXu.w 6 k yXBXsX@.$ i r.mXNX4X+.# # k ' r.mXMXf.= ~ ' sXNXsX` = ^ 3XmXfXq. .i 2X9Xw.l 0Xg.9X9X",
"yXaXs.sX$ * x [ k ; 9 0 #   # l +.O.7     9 ;.,.l     o  .$.| w         o k +.} q     9 } } ` .   . _ @.' $ . ; ] ] ; u yXs.9X1X",
"l k k q o                 .   . . . . . . . . .     . . . o O . .               .   .   .   .                         # i w w u ",
"= O o   < -   O : 0 0 0 8 8 ; : > > : 8 8 8 8 ; : ; : > 8 0 8 > : : - > : ; : # ; ; ; 8 8 8 > > > ; > > ; = # % # o > e . O O o ",
"s.t.O.0 o.g + e S L L o.o.o.o.H H J H H H H H H H *.*.J J H H D D A D X.o.o.D D D D H H D S S D H H S S S A Z Z j p D D k q.;.+.",
"f.f.:.l l.Z o ; 2 d d 1 2 d r p p p d 2 , , < 1 2 d d p 2 < < 4 2 r < < 1 < 2 r r r r 1 2 p r r 2 < , 1 2 < < , > - =.1.{ f.:. .",
"s.e.:.] U.S e < # d g r 1.5.+ g Z y 8.j.X t z g n l.2 > j A y 5.R d # g z e T 1.% s A e s 7.% 1 h s : 3.z # z g & H -.8.{ s.#. .",
"e.w.e.c T.S g p 0 5.l.j.G.^.e 5.J.m.#XL.% H l.l.j.>XN j x.j.K _.J.J e 2.l.2.H.J.e 1.j.5.1.:Xe D l.l.2.#X2.8 6.l.H v.3.8.[ f.#.#.",
",.;.&.9 W.S d r t W.].].&X~.e B.<X'.-X'.& 6.;X*XH.-XS H `.+X5.}._.I t b.].E.`.L.t k.P.Z.5.hXe =.{.Q.A.>X5.k b.Q.l.M.3.8.0  .+.;.",
",.,.<.0 (.F d 2 q ).;X*X&XL.t G.<X'.-X'.& 8.>X:XH.>XB *.$X%Xj.}.L.T 8 U.;XE.#XL.t m.%XP.5.rX> =.:X&XS.-X5.s W.`.x.b.3.v.; [ [ ] ",
"f.s.f.] (.F g y H &X>X*X;X^.1.'.-X'.-X_.n U.:X:X].kX! B.=X=XN.}.J.2.U L.=XP.=XQ.T !.=X#XM.OXz v.*X].H.-Xj.4._.^.G.B.3.v.{ s.s.r.",
"w.r.e.} (.B g f E x.m.A.L.K.Q c.C.V.-X^.V k.m.H.!.*Xj.n.D.D.c.*XH.5.Q z.m.D.+XC.k.S.Z.C.n..Xf 5.x.c.D.^.x.z.n.M.m.n.3.U.] i.w...",
"$.r.y.k W.S g y = n V Z z.V.% j D h {.+X+ s D A G ~.d > j h f }.H.T % v v c N.z.- p A D I ;X< r A D I ^.F : v v s W 3.v.c y.:.@.",
"y.e.#.l W.m g 2 g .X:XjX$XK.a /.zXtX-X^.- 7.jXOX[.<XS =.,X,XB.=XF.U s XXtXeX:XG.e T.rXtXM.;X2 7.jXjX|.%XQ g  XOX(.n.4.v.c i.#.@.",
"' ` k # W.m g r z jXcXlX&XP.s eXbXxX>XP.- 0.bXxXhX>XA =.lXlX X*XK.U k rXbXzX:XD.r (.xXxXT.&Xe 7.xXxX X%XQ z jXjX|.N.4.v.] i.q...",
"a.2Xy.v (.V f d A ,XkXkX;XZ.h XX,X,X-X^., v.kXkX:X<XJ 5.-X,X{.*XK.U B E.OXOX*XA.f m.rXjXT.&X4 5.).[._.+Xh.4.oX,X XG.3.b.* l l l ",
"q.t.#.c (.C y d f J F Z m.C.f P R R %XZ., Y 5.h.j.#XC V h.j.j.*XP.U f K R R K.V.M Q c.m.z.&X2 F W 2.2.^.! 2 f G V N.3.l.{ y.,.,.",
":.e.:.l (.C d 2 ; X.7.8.J.S., G 2.Y =XZ.+ g *.*.5.-XS a 1.7.4.].F.U 7 X.3.-.).V.- j 1.*.4.;X> k 7.7.0.^.! > 3.0.4.B.3.l.k :.;.,.",
"+.+.} 0 T.V d p t U.:XkX`.D.r T.cXjX-XK.: ;.zXzX|.-XF { oX,XT._.Z.K w d.:XXXoXD.1 9.,XOXv.&X< ;.jXjXOX+Xj.e (.kX(.N.3.v.u q.:.;.",
"y.s.t.c T.F d f W @X-X-X%XK.z.}.,X*X=XP.m W.:X:X*X>Xj.G.#X&X_.`.F.K K J.-X=X=XF.Q _.-X>XJ.].f l.'.#X#X+Xx.! J.~._.D.4.l.O.2Xi.$.",
"e.t.;.k T.V d d f Q ! Y x.x.V ! 5.! ^.P.d E 4.4.5.J.C Y 5.h.Q ].F.Y n W 5.W G.j.C Q ! ! ! {.3 V R W Q V.K V Y Q Q z.4.v.[ u.@...",
"e.;.q.c T.F g r ; *.1.o.m.c.; o.1.o.(.^.% z 1.*.1.=Xb p I *.Z ].K.U ; X.X.A W.M.% v 1.1.*.&X1 g H X.=.+XR 9 H X.z n.3.v.` u.w.@.",
"] k ` 9 T.F d p t OXkXkX$XV.0 |.kXjX*XP.> p.lXjX X=XN -.kX<Xn.).L.U t |.kXoX&XG.0 v.,X:Xv.{.1 *.hXjX X@X! k OX:XT.G.-.l.; O.c a ",
"4Xy.f.k (.F d r t OXkXkX&XD.u XXcXkX:XK.& 7.bXlX.X-XV -.cXkXE.[.K.K t |.kXhX*XJ.a T.<X:Xv..X1 1.jXjX X+X2.k :XkXW.G.3.5.] g.s.t.",
"y.r.r.l (.V p r e (.:XoXD.c.k |.kX.X].K.- 7.zXrXW.+XG =.:XoXz.(.K.Y e U.:X)._.x.e 0.:X[.8.[.< I  XOXT.Z.W s T.).v.n.3.l.} y.u.@.",
"u.w.q.| W.V p d z.+X+X+X+XP.c._.#X~.#XP.G W.[.[.&X%XD.'.@X^.D.E.F.W 5.!.^.~.#XK.m.'.#X'.B.].G [.*X#X_.L.k.M._._.J.N.3.v.k w.y.#.",
"w.w.u._ W.F s g G 1.1.E c.C.C U E U L.P.f E W E ! C.Y I I P N W.H.W b P U C x.k.N U U U ! {.f I I I I V.Y B G G J c.3.I.l i.:.@.",
"#.#.| i W.V s d = h D D b.A.+ j I D J.P.X p D H 4.%XN e o.=.Z E.H.R & j D D E.m.& j =.X.1.&X> s A D I H.W % v A D B.3.U.k r. . .",
",.,.+.: W.F p g 8 R.kXkX{.J.2 R.kXOX&XP.& -.zXjXoX-XG =.jXjXT._.F.R e Y.tXeXoXC.a Y.jXrXM.*X2 -.jXjXXX$X5.s |.jX(.J.3.I.q +.] ] ",
"i.s.s.c T.V s g 0 /.kXzX[.F.e /.xX,X*X^.& 3.zXzX[.=XB =.kXkXT._.K.K e Y.zXeX}.S.s T.kXhXb.'.1 3.zXzXXX%X5.s OXkX).E.3.U.;.2Xe.e.",
"w.w...} T.m p g 8 v.:X:X].H.d T.,X X*XQ.& =.:X:X).%XF =.oXoXT._.L.K d v. XW.{.V.g v.{._.z.].1 =.jXOX/.+X5.s T. XT.E.4.U.] yXr.:.",
"w.u.q.l B.m s Z 1.#X%X+X`.V.z.!.~.J.=XK.N ).:X*X{.%Xc.!.^.~.C.~.J.Y Q C.L.K.$XC.c.'.'.~.J.&XA B.'.{.`.%Xx.n.Q.~.!.E.3.U.l s.:.+.",
"q.r.:.i B.m s g O y Z D v.A.@ d n h Q.K.+ f m F R K.b 3 m B m G.F.U O r Z Z x.j.@ r f n J .X- < r g n `.W % y f n N.3.v.9 +.:.:.",
",.e.;.0 W.B s g r I././.E.V.f v. X(.=XK.% n 2.j.j.+Xb f n.N.v.J.H.U j N.[.)._.m.G B.oX:Xv.oX2 4.T.W.v.+X5.J W.[.).W.3.v.u y.:.} ",
"w.u.s.c W.m s p % g S H j.k.& m T F L.J.% Z v.l.l.+Xb d 1.T G G.F.U & g D n z.x.< h F F I .X- g A D H ^.U = k z r T.7.U.] 2Xr.$.",
"q.w.w.c W.b s p - l.J.E.Q.V., 8.oXW.'.J.- I OXOX|.-XB H OX[.T.J.H.R > I.eXR.).G.> 7.(.W.4..X> &.(.|.v.#X2.e Y.Y.1.|.7.U.c s.$.#.",
"#.q.#.k W.n s p < E.<X>X`.F., B.kX.X#XQ.- *.jXkXOX=XB S :X:X(.E.S.R 0 Y.jXXX].m.e I.,X:X5. X> =.OXhXW.$X2.r OXjXT.|.3.U.c i.#.#.",
"w.w. .u G.m d r < W.kXkX`.H., B.cXoX'.Q.- =.jXkXoX>XF A oX,X(.J.D.U 0 I.jXXX_.D.e v.<X:X4. X, X.OX,X).$X5.r OXlXT. X-.I.9 +.] l ",
"k a 0 O E.m g d h v.b.b.l.j.Z 8.v.v.H.S.d 3.Y.Y.0.Y.*.H 5.v.5.T.A.Y A I.T.T.m.x.S z.G.B.1.E.d 1.T.T.z.A.2.D 8.v.4.8.=.U.a s.a.e.",
"s.s.s.k G.m g h v.{.{.].#X#Xx.J.L.K.%XH.I Q._.`.`.=XD.K.P.P.F.].H.Q 5.T.W.W._.L.M.].].].v.].I [.]._._.^.m.E.].).(.W.-.U.` u.u.$.",
"w.q.q.k G.m g p O 1 r r U x.@ 2 d 2 J.H.+ 1 4 p b C.N 2 h f d T.J.W O e y t 5.j.% > p p D Q., > e e 2 ! B % t e e 4.=.T.a w.$.#.",
"i.:.@.k B.m f p > 6.v.I.N.F.; =.0.7.[.P.% D 0.d.v.%X*.k 0.0.7.W.H.W : 1.v.8.W.D.> =.0.0.7.].< v d.d.0.+X5.; =.1.X.v.-.T.l w.#.#.",
"r.#.q.0 T.m g p 8 R.jXjX_.Z.0 Y.zXrX*XL.& =.jXzXOX=XI X.OXjXOX).H.R 0 I.jXXX].H.e Y.kXjX0.].> &.OXOX|.+X5.t /.:XB.T.=.T.0 i.@.#.",
"{ c l # W.B g d t U.OXOXE.C.r Y.jX|.&XL.- *.rXOX(.=X*.X.oXoXN.G.G.K d v.jX/.[.J.g 0.jXOX9..X< =.XX XW.$X2.s (.:XU.T.I U.; } ] c ",
"s.r.s.c U.n g h 2.%X%X%X+XZ.! ^.@X%X=XF.m ~.%X+X#X@X4._.#X=X~.J.A.K h.K.#X~.^.F.! L.#X@Xn.Q.f D.%X+X+X+Xk.c.L.^.~.J.I U.[ 2Xi.:.",
"w.q.q.k U.n g r + 3 y 3 Q k.@ f h d G.H.o 1 d g n Z.h : d d 3 x.m.J @ y y 1 j.j., 4 f f B Q.- 1 g f n V.C , f n f j.D v.c s.$.| ",
"#.#...l v.n d r % 7.Y.R.b.x.% =.d.d.[.D.O v v.I.v.P.A g I.T.v.n.c.J > *.I.8.m.z.- X.v.I.4.Q.- j d.8.8.P.J 8 =.8.=.z.&.I.k s.$.| ",
"#.}  .9 5.f g 2 e T.:XhXQ.c.> /.xXeX{.S.= =.OXrX).+XG X.[.*XW.m.c.J r 8.hXXXJ.c.< 8.oX X9.H.> D OXoXE.^.U s W.{.M.v.&.8.q w. .' ",
"gXgXgXdXO > z e g T..X}.Q.A.< /.OXXX{.S.& *.:X:X).P.D A ).].G.m.A.T r 4. X|.L.N.2 8.{.[.8.Q., D (.[.B.^.T s B.`.N.x.&.v fXdXdXgX",
"sXsXg.aXo # k 0 : I l.j.h.j.- 9.N.z.m.k.O h T.M.j.V.n r j.z.W j.x.G - S M.5.z.j.- I z.5.J m.- g 8.z.! D.J - T 5.I 5.&.l BXs.sXiX",
"8Xr.9X9Xo   O 0 =.4.9.8.8.8.3.7.8.8.9.9.3.7.0.9.7.8.7.1.4.5.4.7.7.3.=.-.1.=.3.4.-.7.4.-.3.8.=.-.7.7.7.8.4.-.3.7.=.X.[ l SXiX1X1X",
"7X3X9X9X#   . t c.A.A.A.c.c.m.A.m.m.c.m.m.c.c.m.m.A.A.A.c.x.n.m.m.m.m.x.m.B.B.N.M.m.m.m.m.m.m.B.m.x.x.k.k.c.x.x.j.E v l ZX3X5X1X",
"8X9Xr.5X#     ; R Q R Y K K K K Y R K K K K Y Y Q Q Y Y Y U Y Y U U K J J J T K U U U U K K U U T U U K K K K F F f a 0 mX%.5X1X",
"_ _ ' | * $ $ = = 5 5 7 5 5 7 7 7 7 5 7 6 6 7 7 5 5 5 5 5 5 5 7 7 5 5 5 6 6 6 5 5 5 5 5 5 5 5 6 6 5 5 5 5 5 5 = = = = # ,. .' ' ",
"^ ^ / / | ) ) ) ) ) ) ) ) ( ) ( / ( ( ( ) ) ) ) ) ) ) ) ) ) ) ) ( ( / / ( ( ( ) ) ( ( ( ( ( ) ) ) ) ) ( ) ) ) ( ( ( ( ( / ^ ^ ^ "
};
